<?xml version="1.0" standalone="no"?>
<!DOCTYPE svg PUBLIC "-//W3C//DTD SVG 1.1//EN" "http://www.w3.org/Graphics/SVG/1.1/DTD/svg11.dtd" >
<svg>
<metadata>
Created by FontForge 20090914 at Thu Jan  3 16:51:44 2019
 By www-data
</metadata>
<defs>
<font id="DrukTextWide-SuperItalic" horiz-adv-x="700" >
  <font-face 
    font-family="Druk Text Wide Super"
    font-weight="400"
    font-style="italic"
    font-stretch="normal"
    units-per-em="1000"
    panose-1="0 0 0 0 0 0 0 0 0 0"
    ascent="805"
    descent="-195"
    x-height="559.999"
    cap-height="744"
    bbox="-105 -324.001 1601 1251"
    underline-thickness="84"
    underline-position="-20"
    slope="-10.75"
    unicode-range="U+000D-U+2013"
  />
<missing-glyph horiz-adv-x="303" 
 />
    <glyph glyph-name=".notdef" horiz-adv-x="303" 
 />
    <glyph glyph-name="uni0000" horiz-adv-x="0" 
 />
    <glyph glyph-name="uni0000" horiz-adv-x="0" 
 />
    <glyph glyph-name="uni000D" unicode="&#xd;" horiz-adv-x="333" 
 />
    <glyph glyph-name="space" unicode=" " horiz-adv-x="303" 
 />
    <glyph glyph-name="exclam" unicode="!" horiz-adv-x="452" 
d="M130 744h375l-207 -460h-139zM368 236l-45 -236h-300l46 236h299z" />
    <glyph glyph-name="comma" unicode="," horiz-adv-x="415" 
d="M33 -159c22 26 42 52.001 60 78.001c22 32.667 38.333 59.667 49 81h-136l46 236h297l-37 -191c-7.33301 -34.667 -22.333 -72.334 -45 -113.001c-14.667 -26.667 -34.667 -57 -60 -91h-174z" />
    <glyph glyph-name="hyphen" unicode="-" horiz-adv-x="478" 
d="M86 411h360l-43 -219h-360z" />
    <glyph glyph-name="period" unicode="." horiz-adv-x="415" 
d="M349 236l-46 -236h-297l46 236h297z" />
    <glyph glyph-name="zero" unicode="0" horiz-adv-x="1091" 
d="M608 757c118.667 0 214.001 -18 286.001 -54c62.667 -31.333 107.667 -76 135 -134c22.667 -48 34 -104.333 34 -169c0 -69.333 -13.667 -131.666 -41 -186.999c-33.333 -68 -84 -121 -152 -159c-79.333 -44.667 -180.333 -67 -303 -67h-45
c-120.667 0 -216.667 18.667 -288 56c-62.667 32.667 -107.334 78 -134.001 136c-22 46.667 -33 103 -33 169c0 67.333 15 129.666 45 186.999c34.667 66.667 86 119 154 157c80 43.333 179 65 297 65h45zM411.001 257c28.667 -33.333 73.333 -50 134 -50
c76 0 132.667 22.333 170 67c14 16.667 24 35.334 30 56.001s9 40.667 9 60c0 42.667 -11.333 76.667 -34 102c-30.667 32.667 -75.667 49 -135 49c-76 0 -132.667 -22.333 -170 -67c-14 -16.667 -24 -35.334 -30 -56.001s-9 -40.667 -9 -60c0 -40 11.667 -73.667 35 -101z
" />
    <glyph glyph-name="one" unicode="1" horiz-adv-x="607" 
d="M78 426l36.999 186c42 0 77.333 2.33301 106 7s53.334 12.334 74.001 23.001c19.333 10 36.333 23.167 51 39.5s29 37.166 43 62.499h229l-144 -744h-296l83 426h-183z" />
    <glyph glyph-name="two" unicode="2" horiz-adv-x="989" 
d="M106 486c5.33301 46.667 16.6729 86.667 34.0059 120c23.333 44.667 62.333 79.667 117 105c65.333 29.333 153 44 263 44h60c147.333 0 252.666 -21 315.999 -63c54 -36 81 -89.667 81 -161c0 -37.333 -6.83301 -69.5 -20.5 -96.5s-35.834 -50.167 -66.501 -69.5
c-31.333 -20 -73.333 -36.833 -126 -50.5s-118 -24.834 -196 -33.501l-123 -14c-64.667 -8 -110.334 -17.667 -137.001 -29c-20.667 -8.66699 -31.667 -19 -33 -31h655l-41 -207h-891l27 142c6 34 15.5 64.333 28.5 91s32.5 51.334 58.5 74.001
c60.667 54 160.667 95 300 123l58 10l24 4c52 8.66699 88.667 16.334 110 23.001c19.333 5.33301 33.666 11 42.999 17c8.66699 5.33301 14.5 10.666 17.5 15.999s4.5 12.333 4.5 21c0 15.333 -7 27 -21 35c-18.667 10 -51.334 15 -98.001 15
c-54.667 0 -93.667 -10.333 -117 -31c-8.66699 -7.33301 -14.834 -15.333 -18.501 -24s-6.5 -18.667 -8.5 -30h-300z" />
    <glyph glyph-name="three" unicode="3" horiz-adv-x="1002" 
d="M328 269c0 -10 1.33008 -18.834 3.99707 -26.501s8.33398 -15.167 17.001 -22.5c10.667 -8.66699 26 -15.334 46 -20.001c22.667 -5.33301 51.667 -8 87 -8c40.667 0 71.667 2.33301 93 7c23.333 4 40 9.33301 50 16c10.667 6 17.667 12.5 21 19.5s5 15.167 5 24.5
c0 12 -4.33301 21.333 -13 28c-9.33301 7.33301 -28.666 11 -57.999 11h-203l35 175h205c30.667 0 51.667 5 63 15c7.33301 6 11 16.333 11 31c0 15.333 -8.66699 26.666 -26 33.999c-23.333 10 -65.666 15 -126.999 15c-64 0 -109 -8.66699 -135 -26
c-8 -5.33301 -13.667 -10.833 -17 -16.5s-5.5 -10.667 -6.5 -15s-1.83301 -7.16602 -2.5 -8.49902h-290c6.66699 47.333 19 86 37 116c25.333 42 66 74.333 122 97c66.667 27.333 156 41 268 41h59c164 0 279 -19.667 345 -59c48.667 -30 73 -70.667 73 -122
c0 -41.333 -15.667 -75 -47 -101c-24 -20.667 -58.667 -35.334 -104 -44.001c37.333 -13.333 65 -30.666 83 -51.999c23.333 -27.333 35 -63.666 35 -108.999s-9.66699 -85.666 -29 -120.999c-26 -48 -68.667 -85 -128 -111c-72.667 -32 -169.667 -48 -291 -48h-56
c-127.333 0 -227.333 17 -300 51c-57.333 26.667 -95.333 64 -114 112c-8 21.333 -12 42 -12 62c0 18 1.66699 36.333 5 55h295z" />
    <glyph glyph-name="four" unicode="4" horiz-adv-x="1024" 
d="M11 131l34 172l494 446h369l-81 -419h174l-39 -199h-174l-25 -131h-290l26 131h-488zM537 330l47 245l-271 -245h224z" />
    <glyph glyph-name="five" unicode="5" horiz-adv-x="956" 
d="M358 233l4.00098 -11.001c1.33301 -4 6.33301 -8.66699 15 -14c8 -5.33301 20.333 -9.33301 37 -12c18 -3.33301 40.333 -5 67 -5c50.667 0 88 8 112 24c18.667 13.333 28 32 28 56c0 19.333 -8.33301 34.333 -25 45s-48.334 16 -95.001 16c-46 0 -81.667 -6 -107 -18
c-10.667 -6 -17 -10.667 -19 -14l-6 -11h-294l88 455h795l-38 -194h-506l-22 -117l20 14c26.667 16 63.667 28.333 111 37c25.333 4.66699 58 7 98 7h13c105.333 0 180.666 -23.333 225.999 -70c36 -36.667 54 -85.334 54 -146.001c0 -45.333 -8.33301 -85.666 -25 -120.999
c-24.667 -49.333 -64 -87.333 -118 -114c-69.333 -34 -158.666 -51 -267.999 -51h-42c-124 0 -220.333 15 -289 45c-56.667 24.667 -93.667 57.667 -111 99c-8.66699 19.333 -13 41 -13 65c0 12.667 1 24.334 3 35.001h307z" />
    <glyph glyph-name="six" unicode="6" horiz-adv-x="1037" 
d="M429 517c-24 -24.667 -39.0029 -59.666 -45.0029 -104.999c2.66699 2 11.334 7.33301 26.001 16c29.333 16 72.333 28 129 36c28.667 4.66699 66.667 7 114 7h8c120.667 0 208 -20 262 -60c44.667 -33.333 67 -82.333 67 -147c0 -45.333 -9.33301 -84.333 -28 -117
c-26.667 -48 -68.667 -84.667 -126 -110c-72 -32 -168 -48 -288 -48h-53c-157.333 0 -270.666 31.333 -339.999 94c-58.667 52.667 -88 126.667 -88 222c0 65.333 9.66699 124.666 29 177.999c27.333 77.333 73 139 137 185c80 56.667 187.333 85 322 85h45
c107.333 0 195 -12.667 263 -38c56.667 -22 97.334 -52.667 122.001 -92c16 -26 24 -55.667 24 -89c0 -10 -0.333008 -17.333 -1 -22h-292c-2.66699 7.33301 -5.66699 13.5 -9 18.5s-9 10.167 -17 15.5c-22 14 -59.333 21 -112 21c-68 0 -117.667 -16.667 -149 -50z
M396.997 195.001c23.333 -12 64.668 -18.002 124.001 -18.002c68.667 0 115.667 9.33301 141 28c10 6.66699 16.5 14 19.5 22s4.5 17 4.5 27c0 18.667 -9.66699 33.334 -29 44.001c-24 12 -63.333 18 -118 18c-38.667 0 -70.334 -2.66699 -95.001 -8
c-42.667 -10.667 -66.667 -25.667 -72 -45c-2.66699 -8 -4 -16.333 -4 -25c0 -19.333 9.66699 -33.666 29 -42.999z" />
    <glyph glyph-name="seven" unicode="7" horiz-adv-x="937" 
d="M285 0l15.999 82.002c6.66699 33.333 14 61.833 22 85.5s18.667 46.167 32 67.5c14.667 23.333 34 47.166 58 71.499s55.667 52.5 95 84.5c51.333 40.667 91 73 119 97c10 8.66699 21.667 19.667 35 33c8 8 12.667 14.333 14 19h-274l-22 -120h-291l63 324h828
c-3.33301 -14.667 -7.66602 -36.667 -12.999 -66c-3.33301 -20 -7.33301 -40.667 -12 -62s-8.66699 -42 -12 -62c-74.667 -80.667 -135.334 -150.667 -182.001 -210c-56 -70.667 -94 -131.667 -114 -183c-9.33301 -23.333 -16.166 -46.333 -20.499 -69
s-8.83301 -53.334 -13.5 -92.001h-328z" />
    <glyph glyph-name="eight" unicode="8" horiz-adv-x="1005" 
d="M464 -12c-166 0 -284.667 23.668 -356 71.001c-52.667 34.667 -79 81.667 -79 141c0 53.333 20.333 96.666 61 129.999c38 30.667 87.667 50.667 149 60c-38 8 -68.833 24 -92.5 48s-35.5 55 -35.5 93c0 64 25.667 113.667 77 149c67.333 47.333 183 71 347 71h45
c162 0 276.667 -19.667 344 -59c28 -16 47.5 -34.333 58.5 -55s16.5 -43 16.5 -67c0 -50 -16.167 -90.667 -48.5 -122s-77.5 -50.666 -135.5 -57.999c44 -12.667 77 -29.334 99 -50.001c27.333 -26 41 -59.667 41 -101c0 -40.667 -8.66699 -76 -26 -106
c-24 -42.667 -65.667 -76 -125 -100c-70.667 -30 -169 -45 -295 -45h-45zM624 474.001c36 6.66699 56.667 18.333 62 35c2.66699 6 4 13.667 4 23c0 16.667 -8 28.667 -24 36c-22 9.33301 -58.333 14 -109 14c-58 0 -98.667 -6.33301 -122 -19
c-16 -9.33301 -24 -23.333 -24 -42c0 -8 1.66699 -15 5 -21s9.66602 -11.333 18.999 -16c20 -10.667 56.333 -16 109 -16c34.667 0 61.334 2 80.001 6zM629 201c10.667 6.66699 17.668 13.999 21.001 21.999s5 17 5 27c0 16.667 -9 29.334 -27 38.001
c-22.667 10.667 -64.334 16 -125.001 16c-65.333 0 -111.333 -7 -138 -21c-18 -10 -27 -25.667 -27 -47c0 -18 8.66699 -32 26 -42c22 -13.333 63 -20 123 -20c68.667 0 116 9 142 27z" />
    <glyph glyph-name="nine" unicode="9" horiz-adv-x="1037" 
d="M649 226c23.333 24.667 37.9961 59.3301 43.9961 103.997c-19.333 -14 -44.666 -25.667 -75.999 -35c-50.667 -16 -111.667 -24 -183 -24h-8c-122 0 -210.667 20.333 -266 61c-48.667 34.667 -73 84.334 -73 149.001c0 44 9 82.667 27 116
c25.333 46.667 67 82.667 125 108c72.667 32 169.334 48 290.001 48h53c154 0 266.333 -31 337 -93c60 -52.667 90 -128 90 -226c0 -67.333 -9.33301 -127.666 -28 -180.999c-27.333 -78 -72.666 -138.667 -135.999 -182c-80 -54.667 -187.667 -82 -323 -82h-45
c-157.333 0 -269.666 26.333 -336.999 79c-48 37.333 -72 85 -72 143c0 8.66699 0.333008 15 1 19h292c2.66699 -7.33301 5.66699 -13.666 9 -18.999s9 -10.333 17 -15c22 -14 59.333 -21 112 -21c67.333 0 117.333 17 150 51zM679.996 546.996
c-25.333 12 -66.667 18.001 -124 18.001c-66.667 0 -113.334 -9 -140.001 -27c-16.667 -12 -25 -28.667 -25 -50c0 -18.667 10 -33 30 -43c23.333 -12.667 62.333 -19 117 -19c38.667 0 70.334 2.66699 95.001 8c42.667 10.667 66.667 26 72 46c2.66699 8 4 16 4 24
c0 19.333 -9.66699 33.666 -29 42.999z" />
    <glyph glyph-name="colon" unicode=":" horiz-adv-x="434" 
d="M417 560l-46 -236h-297l46 236h297zM354 236l-46 -236h-297l46 236h297z" />
    <glyph glyph-name="semicolon" unicode=";" horiz-adv-x="434" 
d="M417 560l-46 -236h-297l46 236h297zM38 -159c22 26 42 52.001 60 78.001c22 32.667 38.333 59.667 49 81h-136l46 236h297l-37 -191c-7.33301 -34.667 -22.333 -72.334 -45 -113.001c-14.667 -26.667 -34.667 -57 -60 -91h-174z" />
    <glyph glyph-name="question" unicode="?" horiz-adv-x="911" 
d="M288 284l5.99805 33.001c4 21.333 8.83301 39.5 14.5 54.5s13.834 28.833 24.501 41.5c24.667 28.667 68.334 49 131.001 61l73 14c30 6 51 12.667 63 20c10 7.33301 15 16 15 26c0 13.333 -6.66699 23 -20 29c-14 5.33301 -40 8 -78 8c-48.667 0 -83.667 -9 -105 -27
c-8 -6.66699 -13.5 -13.5 -16.5 -20.5s-5.83301 -15.5 -8.5 -25.5h-307c5.33301 26.667 10.166 48 14.499 64s10.833 32.333 19.5 49c22.667 43.333 61 76.666 115 99.999c64.667 28 155.334 42 272.001 42h32c148 0 254 -20.333 318 -61
c51.333 -33.333 77 -82.666 77 -147.999c0 -53.333 -17.333 -96.333 -52 -129c-41.333 -40.667 -105.333 -68.334 -192 -83.001l-73 -13c-18.667 -2.66699 -30.667 -7.66699 -36 -15c-4 -6 -6.66699 -12.667 -8 -20h-279zM567.998 236.001l-46 -236h-299l46 236h299z" />
    <glyph glyph-name="A" unicode="A" horiz-adv-x="1055" 
d="M717 0l-29 113h-366l-71 -113h-312l484 744h386l211 -744h-303zM640 297l-59 227l-143 -227h202z" />
    <glyph glyph-name="B" unicode="B" horiz-adv-x="1082" 
d="M170 744l627.998 -0.00195312c94.667 0 164 -16.333 208 -49c39.333 -29.333 59 -70 59 -122c0 -48 -21 -87.333 -63 -118c-17.333 -12 -36.166 -21.667 -56.499 -29s-40.166 -11.666 -59.499 -12.999c40 -6 74 -20.667 102 -44c35.333 -29.333 53 -69.666 53 -120.999
c0 -72 -23.333 -129 -70 -171c-56.667 -51.333 -147.667 -77 -273 -77h-673zM431.998 558.998l-18.001 -93h255c51.333 0 77 16.667 77 50c0 15.333 -5.16699 26.333 -15.5 33s-27.166 10 -50.499 10h-248zM380.997 295.998l-20 -103h278c32 0 55 6.33301 69 19
c10 9.33301 15 21.333 15 36s-4 25.667 -12 33c-11.333 10 -31.333 15 -60 15h-270z" />
    <glyph glyph-name="C" unicode="C" horiz-adv-x="1086" 
d="M929 702c64 -30 107.333 -71.9971 130 -125.997c11.333 -28 17 -60 17 -96c0 -16 -1 -31.667 -3 -47h-311c0 25.333 -7.66699 46 -23 62c-30 30 -82 45 -156 45c-80.667 0 -137.667 -23.667 -171 -71c-24 -33.333 -36 -73.666 -36 -120.999
c0 -38.667 10.667 -69.667 32 -93c26.667 -31.333 71.667 -47 135 -47c70 0 123.333 15.667 160 47c14 12.667 23.333 24.334 28 35.001c2 3.33301 4.66699 10.666 8 21.999h311c-9.33301 -58.667 -24.333 -106.334 -45 -143.001c-32.667 -56 -79.334 -98.333 -140.001 -127
c-78 -36.667 -178 -55 -300 -55h-44c-122 0 -219.667 18.667 -293 56c-62 31.333 -106.333 75.666 -133 132.999c-21.333 44.667 -32 98.667 -32 162s11.667 121.666 35 174.999c31.333 71.333 80 127.666 146 168.999c80.667 50 186.334 75 317.001 75h44
c136 0 244 -18.333 324 -55z" />
    <glyph glyph-name="D" unicode="D" horiz-adv-x="1078" 
d="M170 744h422c168 0 290.667 -33.667 368 -101c64 -56 96 -135.667 96 -239c0 -73.333 -15.333 -138.666 -46 -195.999c-35.333 -64.667 -90.333 -114.334 -165 -149.001c-84 -39.333 -190.333 -59 -319 -59h-501zM363 203h128.999c96.667 0 165.334 22 206.001 66
c28.667 31.333 43 73 43 125c0 44 -12.667 77.667 -38 101c-33.333 31.333 -90 47 -170 47h-104z" />
    <glyph glyph-name="E" unicode="E" horiz-adv-x="907" 
d="M170 744h761l-37 -187h-461l-16 -84h447l-38 -191h-446l-18 -93h468l-37 -189h-768z" />
    <glyph glyph-name="F" unicode="F" horiz-adv-x="885" 
d="M170 744h750l-38 -192h-451l-18 -100h437l-39 -195h-437l-49 -257h-300z" />
    <glyph glyph-name="G" unicode="G" horiz-adv-x="1126" 
d="M697 233c14 7.33301 24.8311 15.499 32.498 24.499s12.834 17.167 15.501 24.5h-217l28 140h531l-82 -422h-201c-4.66699 42.667 -10.667 73 -18 91c-28 -26.667 -58.667 -47.667 -92 -63c-59.333 -27.333 -128.333 -41 -207 -41h-18
c-135.333 0 -238.333 33.667 -309 101c-32.667 30.667 -57 67.167 -73 109.5s-24 88.833 -24 139.5c0 72 14.333 136.667 43 194c34.667 68.667 87.334 122 158.001 160c84 44.667 190.333 67 319 67h34c130.667 0 235.334 -16 314.001 -48
c62.667 -25.333 107.334 -62.666 134.001 -111.999c17.333 -32 26 -67.333 26 -106c0 -8.66699 -0.333008 -15.334 -1 -20.001h-314c-2.66699 8.66699 -6.16699 16.334 -10.5 23.001s-11.5 13.334 -21.5 20.001c-30 18.667 -78 28 -144 28
c-84.667 0 -146.334 -22.667 -185.001 -68c-28 -34 -42 -76.333 -42 -127c0 -42.667 12.333 -76.334 37 -101.001c29.333 -30.667 75.666 -46 138.999 -46c60 0 109.333 10.667 148 32z" />
    <glyph glyph-name="H" unicode="H" horiz-adv-x="1100" 
d="M25 0l145 744h298l-49 -255h348l49 255h298l-145 -744h-297l53 274h-348l-53 -274h-299z" />
    <glyph glyph-name="I" unicode="I" horiz-adv-x="455" 
d="M468 744l-144 -744h-299l145 744h298z" />
    <glyph glyph-name="J" unicode="J" horiz-adv-x="945" 
d="M341 344c-0.666992 -4.66699 -0.999023 -12.001 -0.999023 -22.001c0 -22.667 4 -42.334 12 -59.001c15.333 -31.333 46.666 -47 93.999 -47c42.667 0 76 14 100 42c19.333 22.667 33.333 57.334 42 104.001l74 382h299l-78 -400
c-11.333 -61.333 -27.333 -113.333 -48 -156c-29.333 -62 -69.666 -108.667 -120.999 -140c-64.667 -40.667 -147 -61 -247 -61h-42c-158.667 0 -269.334 40 -332.001 120c-37.333 46.667 -56 103.334 -56 170.001c0 22.667 2 45 6 67h298z" />
    <glyph glyph-name="K" unicode="K" horiz-adv-x="1000" 
d="M323 0h-298l145 744h297l-53 -275l314 275h355l-411 -351l295 -393h-350l-232 322z" />
    <glyph glyph-name="L" unicode="L" horiz-adv-x="855" 
d="M170 744h298l-99 -515h430l-45 -229h-729z" />
    <glyph glyph-name="M" unicode="M" horiz-adv-x="1328" 
d="M25 0l145 744h397l107 -381l249 381h418l-144 -744h-294l88 452l-300 -452h-171l-123 452l-88 -452h-284z" />
    <glyph glyph-name="N" unicode="N" horiz-adv-x="1124" 
d="M709 0l-311 417l-81 -417h-292l145 744h303l296 -398l78 398h291l-145 -744h-284z" />
    <glyph glyph-name="O" unicode="O" horiz-adv-x="1108" 
d="M617 757c122.667 0 221.333 -18.998 296 -56.998c64 -32 109.667 -76.333 137 -133c22 -46 33 -97.333 33 -154c0 -67.333 -11.667 -128.333 -35 -183c-32 -72.667 -81.333 -129 -148 -169c-83.333 -49.333 -191.666 -74 -324.999 -74h-45
c-123.333 0 -222 19.333 -296 58c-64 33.333 -109.667 78.666 -137 135.999c-22 44.667 -33 96 -33 154c0 67.333 12 127.666 36 180.999c31.333 72 80.666 128 147.999 168c82.667 48.667 190.667 73 324 73h45zM738.999 494.002c-29.333 30.667 -77.667 46 -145 46
c-86.667 0 -148 -25.333 -184 -76c-22.667 -32 -34 -71.667 -34 -119c0 -36.667 11.333 -66.667 34 -90c29.333 -31.333 77.333 -47 144 -47c88 0 149.667 25 185 75c22 31.333 33 71.333 33 120c0 36.667 -11 67 -33 91z" />
    <glyph glyph-name="P" unicode="P" horiz-adv-x="1036" 
d="M365 215l-41 -215h-299l145 744h514c132.667 0 226 -21 280 -63c26 -20 44.5 -45 55.5 -75s16.5 -65.333 16.5 -106c0 -88 -25.667 -155 -77 -201c-62.667 -56 -164 -84 -304 -84h-290zM405 416h228c35.333 0 60.333 8 75 24c12 12.667 18 28.667 18 48
c0 17.333 -4.66699 30.333 -14 39c-12.667 10.667 -34 16 -64 16h-220z" />
    <glyph glyph-name="Q" unicode="Q" horiz-adv-x="1108" 
d="M386 -2c-119.333 18.667 -206.334 65 -261.001 139c-40.667 53.333 -61 119.333 -61 198c0 66.667 12 127 36 181c30.667 72 80 128 148 168c82.667 48.667 190.667 73 324 73h45c122.667 0 221.334 -19 296.001 -57c63.333 -32 109 -76.667 137 -134
c22 -44.667 33 -95.667 33 -153c0 -62.667 -10 -119.667 -30 -171c-26.667 -66.667 -68.667 -121 -126 -163c-70.667 -51.333 -162 -81 -274 -89l111 -145h-407zM738.999 494c-29.333 30.667 -77.667 46 -145 46c-86.667 0 -148 -25.333 -184 -76
c-22.667 -32 -34 -71.667 -34 -119c0 -36.667 11.333 -66.667 34 -90c29.333 -31.333 77.333 -47 144 -47c88 0 149.667 25 185 75c22 31.333 33 71.333 33 120c0 36.667 -11 67 -33 91z" />
    <glyph glyph-name="R" unicode="R" horiz-adv-x="1086" 
d="M975 304c22.667 -27.333 34.001 -62.333 34.001 -105c0 -18 -2 -38 -6 -60l-17 -86c-2 -10 -3 -18 -3 -24c0 -4 0.333008 -6.66699 1 -8c2 -7.33301 4.33301 -12.666 7 -15.999l-1 -5h-307l-3 14l-1 8c0 6 1 13 3 21l12 65c2.66699 13.333 4 26.666 4 39.999
c0 24 -6.66699 41.667 -20 53c-9.33301 8 -22.833 13.667 -40.5 17s-40.167 5 -67.5 5h-204l-42 -223h-299l145 744h618c104 0 181.333 -20.667 232 -62c37.333 -32 56 -74 56 -126c0 -62 -23 -110.667 -69 -146c-36.667 -28.667 -82.334 -46 -137.001 -52
c47.333 -10.667 82.333 -28.667 105 -54zM407.001 429h267c30.667 0 52.667 6.66699 66 20c10 10 15 23.667 15 41c0 16 -4.66699 28.667 -14 38s-27 14 -53 14h-259z" />
    <glyph glyph-name="S" unicode="S" horiz-adv-x="1000" 
d="M358.5 224.5c1.66699 -7.66699 6.16895 -15.166 13.502 -22.499c19.333 -19.333 56.666 -29 111.999 -29h6c58.667 0 99 6.33301 121 19c10 5.33301 16.833 11.166 20.5 17.499s5.5 13.5 5.5 21.5c0 16.667 -7.66699 28.667 -23 36
c-20.667 10.667 -54.667 16.334 -102 17.001l-76 2c-125.333 4 -214.333 26.667 -267 68c-24.667 19.333 -42.167 42.5 -52.5 69.5s-15.5 58.5 -15.5 94.5c0 68.667 27.333 123 82 163c69.333 49.333 180.666 74 333.999 74h46c126 0 223 -12 291 -36
c60.667 -21.333 101.667 -51.333 123 -90c12 -23.333 18 -50 18 -80c0 -12 -1 -24.667 -3 -38h-314c0 18.667 -5.66699 32.667 -17 42c-22 15.333 -59 23 -111 23h-7c-54.667 0 -92 -5.33301 -112 -16c-8.66699 -4.66699 -14.667 -10 -18 -16s-5 -13.333 -5 -22
c0 -14 7.66699 -24.667 23 -32c18 -8.66699 50 -13.334 96 -14.001l78 -2c71.333 -2 129.833 -8.5 175.5 -19.5s81.167 -26.5 106.5 -46.5c24 -18.667 40.667 -41.667 50 -69s14 -60 14 -98c0 -74 -28.667 -131.667 -86 -173c-74.667 -53.333 -200 -80 -376 -80h-22
c-128 0 -228 14.667 -300 44c-59.333 24 -99 58 -119 102c-10.667 23.333 -16 49 -16 77c0 14 1 27 3 39h321c0 -9.33301 0.833008 -17.833 2.5 -25.5z" />
    <glyph glyph-name="T" unicode="T" horiz-adv-x="982" 
d="M289 0l102 522h-298l43 222h892l-43 -222h-297l-101 -522h-298z" />
    <glyph glyph-name="U" unicode="U" horiz-adv-x="1114" 
d="M220 64c-60.667 40 -99.667 95.6689 -117 167.002c-7.33301 27.333 -11 57 -11 89c0 29.333 2.66699 56.666 8 81.999l67 342h297l-66 -342c-2.66699 -12.667 -4 -26.667 -4 -42c0 -32 7.66699 -57.333 23 -76c26.667 -36.667 75.667 -55 147 -55h3
c67.333 0 117 18.333 149 55c24 27.333 40.667 66.666 50 117.999l67 342h297l-66 -342c-6.66699 -36.667 -13.167 -68 -19.5 -94s-15.5 -52 -27.5 -78c-34 -74 -80.333 -129.333 -139 -166c-78 -50 -181.333 -75 -310 -75h-30c-136.667 0 -242.667 25 -318 75z" />
    <glyph glyph-name="V" unicode="V" horiz-adv-x="1059" 
d="M670 0h-362l-231 744h327l127 -462l295 462h328z" />
    <glyph glyph-name="W" unicode="W" horiz-adv-x="1440" 
d="M548 0h-352l-116 744h308l46 -465l221 465h307l49 -466l218 466h303l-375 -744h-345l-60 434z" />
    <glyph glyph-name="X" unicode="X" horiz-adv-x="1027" 
d="M648 0l-130 235l-214 -235h-370l360 394l-199 350h348l116 -212l192 212h357l-332 -359l211 -385h-339z" />
    <glyph glyph-name="Y" unicode="Y" horiz-adv-x="1021" 
d="M315 0l51 262l-297 482h340l143 -247l243 247h340l-472 -482l-51 -262h-297z" />
    <glyph glyph-name="Z" unicode="Z" horiz-adv-x="967" 
d="M852 0h-842l35 184l475 338h-405l44 222h833l-35 -182l-492 -338h431z" />
    <glyph glyph-name="a" unicode="a" horiz-adv-x="848" 
d="M69 375c3.33301 26 9.83398 49.9971 19.501 71.9971s26.167 42 49.5 60c59.333 45.333 156.333 68 291 68h33c143.333 0 240 -21.667 290 -65c29.333 -26 44 -59 44 -99c0 -8.66699 -1.33301 -21.667 -4 -39l-32 -161v-6c0 -8.66699 4.33301 -13 13 -13h37l-38 -192h-222
c-24.667 0 -45.334 7.66699 -62.001 23c-12.667 10.667 -21.334 25 -26.001 43c-16 -18 -36.333 -33.333 -61 -46c-41.333 -21.333 -90.333 -32 -147 -32h-17c-69.333 0 -123.5 14.5 -162.5 43.5s-58.5 69.5 -58.5 121.5c0 58.667 18.333 102.334 55 131.001
c45.333 36 120.333 55.667 225 59l174 7c15.333 0.666992 26.5 3.83398 33.5 9.50098s10.5 13.834 10.5 24.501c0 13.333 -5 23.333 -15 30c-11.333 7.33301 -32 11 -62 11h-4c-33.333 0 -57 -6.33301 -71 -19c-9.33301 -8.66699 -14.666 -19 -15.999 -31h-277z
M448.001 164.997c18.667 16.667 30.667 38.333 36 65l4 19l-94 -14c-40 -6.66699 -66.333 -14 -79 -22c-7.33301 -4 -12.333 -8.83301 -15 -14.5s-4 -12.5 -4 -20.5c0 -28.667 22.667 -43 68 -43c34 0 62 10 84 30z" />
    <glyph glyph-name="b" unicode="b" horiz-adv-x="911" 
d="M160 757h285.001l-50 -260c16 16 37.667 30.667 65 44c44 20 92 30 144 30h9c85.333 0 152 -25.667 200 -77c42 -46.667 63 -108.334 63 -185.001c0 -53.333 -9.66699 -101.666 -29 -144.999c-22.667 -52 -57.334 -93 -104.001 -123c-54 -34.667 -123 -52 -207 -52h-10
c-58 0 -108.333 10 -151 30c-26.667 12.667 -48.667 27.667 -66 45c-8 -14.667 -15.333 -36 -22 -64h-274zM452.001 167c42 0 74.667 15.667 98 47c16.667 24 25 52.333 25 85c0 27.333 -6.66699 49 -20 65c-16.667 20 -42 30 -76 30h-5c-42 0 -74.333 -15.333 -97 -46
c-8.66699 -12 -15.167 -25.667 -19.5 -41s-6.5 -30 -6.5 -44c0 -26 6.66699 -47.667 20 -65c16 -20.667 41.333 -31 76 -31h5z" />
    <glyph glyph-name="c" unicode="c" horiz-adv-x="875" 
d="M831 240c-6.66699 -38 -17.0039 -70.3301 -31.0039 -96.9971c-25.333 -45.333 -61.666 -81 -108.999 -107c-63.333 -34 -144.666 -51 -243.999 -51h-49c-137.333 0 -235.333 28.667 -294 86c-45.333 43.333 -68 102.666 -68 177.999c0 54.667 9.66699 103.667 29 147
c24.667 54 64.334 96 119.001 126c65.333 35.333 150.333 53 255 53h36c114.667 0 202.334 -14.667 263.001 -44c50.667 -24 84 -57 100 -99c8 -20.667 12 -43.334 12 -68.001c0 -8 -0.666992 -18.667 -2 -32h-297c0 16 -5 29.667 -15 41c-15.333 16.667 -40.333 25 -75 25
h-8c-39.333 0 -69.666 -15 -90.999 -45c-17.333 -24.667 -26 -56 -26 -94c0 -28.667 6 -51 18 -67c13.333 -18.667 35.333 -28 66 -28h7c34.667 0 62 10 82 30c11.333 11.333 19.666 26.666 24.999 45.999h297z" />
    <glyph glyph-name="d" unicode="d" horiz-adv-x="911" 
d="M388 571c59.333 0 112.001 -8.33203 158.001 -24.999c20 -8 33.667 -14.333 41 -19l19 -13l47 243h285l-147 -757h-275l11 63c-16.667 -16.667 -38.334 -31.667 -65.001 -45c-40 -19.333 -85.667 -29 -137 -29h-12c-96 0 -168 27.333 -216 82
c-20.667 22.667 -36 49.334 -46 80.001s-15 62.667 -15 96c0 49.333 8.66699 94.666 26 135.999c21.333 53.333 55.333 96.666 102 129.999c56.667 38.667 127.667 58 213 58h11zM359.001 198.001c16 -20.667 40.667 -30.999 74 -30.999h7c40 0 71.333 14.667 94 44
c18.667 24 28 53.667 28 89c0 26.667 -6.66699 48 -20 64c-16.667 20 -41.667 30 -75 30h-7c-40.667 0 -72.334 -14.333 -95.001 -43c-9.33301 -12 -16.166 -25.333 -20.499 -40s-6.5 -29.334 -6.5 -44.001c0 -28 7 -51 21 -69z" />
    <glyph glyph-name="e" unicode="e" horiz-adv-x="895" 
d="M840 187c-11.333 -54 -39.665 -97.333 -84.998 -130c-66.667 -48 -170 -72 -310 -72h-49c-132 0 -228 28.333 -288 85c-48 45.333 -72 106.666 -72 183.999c0 46.667 9.33301 91.334 28 134.001c23.333 54 62.666 97 117.999 129c66 38.667 152.333 58 259 58h45
c159.333 0 267.333 -31.667 324 -95c34 -38 51 -87 51 -147c0 -23.333 -2.66699 -49.333 -8 -78l-4 -21h-517c3.33301 -30 13.666 -51.833 30.999 -65.5s43 -20.5 77 -20.5c31.333 0 56 5.33301 74 16c10.667 6 19 13.667 25 23h301zM344.001 348h225.999
c0 53.333 -35 80 -105 80c-61.333 0 -101.666 -26.667 -120.999 -80z" />
    <glyph glyph-name="f" unicode="f" horiz-adv-x="562" 
d="M592 614h-70.999c-13.333 0 -22.833 -2.33301 -28.5 -7s-9.83398 -13.667 -12.501 -27l-4 -20h106l-35 -180h-105l-74 -380h-281l74 380h-106l35 180h106l4 20c6.66699 32.667 14.167 59.5 22.5 80.5s19.5 38.5 33.5 52.5c15.333 15.333 34.5 26.5 57.5 33.5
s52.5 10.5 88.5 10.5h218z" />
    <glyph glyph-name="g" unicode="g" horiz-adv-x="915" 
d="M335 -12c1.33301 -7.33301 6.66797 -12.999 16.001 -16.999c13.333 -6 32.666 -9 57.999 -9h6c57.333 0 92.333 31 105 93l6 30c-14 -14 -36 -27.333 -66 -40c-40.667 -17.333 -87 -26 -139 -26h-13c-88 0 -155.167 23 -201.5 69s-69.5 110 -69.5 192
c0 38.667 7.16699 75.667 21.5 111s35.166 66.333 62.499 93c61.333 59.333 146.333 89 255 89h10c59.333 0 111.333 -9.33301 156 -28c15.333 -6.66699 29.666 -14.334 42.999 -23.001c5.33301 -3.33301 9.83301 -6.5 13.5 -9.5s6.83398 -5.16699 9.50098 -6.5l10 54h286
l-97 -497c-8 -42 -20 -78.833 -36 -110.5s-38.333 -58.5 -67 -80.5c-64.667 -50.667 -164 -76 -298 -76h-26c-103.333 0 -184.666 11 -243.999 33c-49.333 18 -83 43.333 -101 76c-13.333 22 -20 49.667 -20 83h320zM463.002 400.001c-40 0 -71 -12.667 -93 -38
c-19.333 -22 -29 -49 -29 -81c0 -26 7.33301 -47.333 22 -64c16.667 -20 42 -30 76 -30h6c44.667 0 77.667 14.667 99 44c16 21.333 24 47.333 24 78c0 24.667 -7 45 -21 61c-17.333 20 -43.333 30 -78 30h-6z" />
    <glyph glyph-name="h" unicode="h" horiz-adv-x="899" 
d="M548 292c0 24.667 -7.16699 43.833 -21.5 57.5s-36.166 20.5 -65.499 20.5c-32.667 0 -57.667 -9 -75 -27s-29.333 -44.667 -36 -80l-52 -263h-285l147 757h285l-55 -282c22.667 24 51 45 85 63c48 25.333 99.667 38 155 38h9c79.333 0 136.666 -25.333 171.999 -76
c23.333 -33.333 35 -76 35 -128c0 -22.667 -2.66699 -49 -8 -79l-58 -293h-286l51 263c2 10 3 19.667 3 29z" />
    <glyph glyph-name="i" unicode="i" horiz-adv-x="419" 
d="M446 763l-30 -157h-285l30 157h285zM407 560l-109 -560h-285l109 560h285z" />
    <glyph glyph-name="j" unicode="j" horiz-adv-x="419" 
d="M446 763l-30 -157h-285l30 157h285zM-20 -15c12.667 0 21.332 3.16602 25.999 9.49902s8.33398 15.833 11.001 28.5l105 537h285l-115 -588c-10 -51.333 -26.333 -89.666 -49 -114.999c-26.667 -30 -63.667 -45 -111 -45h-237l34 173h51z" />
    <glyph glyph-name="k" unicode="k" horiz-adv-x="814" 
d="M298 0h-285l147 757h285l-77 -396l178 199h308l-246 -260l162 -300h-305l-121 237z" />
    <glyph glyph-name="l" unicode="l" horiz-adv-x="419" 
d="M445 757l-147 -757h-285l147 757h285z" />
    <glyph glyph-name="m" unicode="m" horiz-adv-x="1347" 
d="M13 0l108.998 559.999h283l-17 -87c26.667 28 54 49.667 82 65c47.333 25.333 97.333 38 150 38h9c102 0 165.333 -40 190 -120c30.667 34.667 67 62.667 109 84c48 24 98.667 36 152 36h9c82 0 140.333 -25.333 175 -76c20.667 -31.333 31 -71.666 31 -120.999
c0 -26 -3 -54.667 -9 -86l-58 -293h-286l51 263c2 10 3 20 3 30c0 18.667 -3.66699 34 -11 46c-13.333 20.667 -35.666 31 -66.999 31c-54.667 0 -89 -35.667 -103 -107l-52 -263h-286l51 263c2 10 3 20 3 30c0 18.667 -3.66699 34 -11 46
c-13.333 20.667 -35.666 31 -66.999 31c-54.667 0 -89 -35.667 -103 -107l-52 -263h-285z" />
    <glyph glyph-name="n" unicode="n" horiz-adv-x="899" 
d="M122 560l283 -0.000976562l-17 -87c22.667 25.333 51.667 47.333 87 66c49.333 24.667 101 37 155 37h9c79.333 0 136.666 -25.333 171.999 -76c23.333 -33.333 35 -76 35 -128c0 -22.667 -2.66699 -49 -8 -79l-58 -293h-286l51 263c2 10 3 19.667 3 29
c0 24.667 -7.16699 43.834 -21.5 57.501s-36.166 20.5 -65.499 20.5c-32.667 0 -57.667 -9 -75 -27s-29.333 -44.667 -36 -80l-52 -263h-285z" />
    <glyph glyph-name="o" unicode="o" horiz-adv-x="899" 
d="M419 -15c-107.333 0 -191.001 14.9971 -251.001 44.9971c-51.333 25.333 -87.666 60.333 -108.999 105c-15.333 32 -23 71.667 -23 119c0 44.667 8 86.334 24 125.001c22.667 56.667 60.667 101.334 114 134.001c67.333 41.333 157.666 62 270.999 62h35
c106 0 190.333 -14.333 253 -43c50.667 -23.333 86.334 -57.333 107.001 -102c14.667 -32.667 22 -72 22 -118c0 -53.333 -6.66699 -97.666 -20 -132.999c-20.667 -57.333 -58 -102 -112 -134c-68 -40 -160.333 -60 -277 -60h-34zM354.999 195.997
c16.667 -22 42.667 -33.002 78 -33.002h6c23.333 0 43.333 4.83301 60 14.5s30 22.167 40 37.5c8 12.667 14 26.834 18 42.501s6 30.167 6 43.5c0 28.667 -6.66699 51.334 -20 68.001c-17.333 20.667 -43.333 31 -78 31h-6c-43.333 0 -76 -15.667 -98 -47
c-16.667 -24 -25 -53.667 -25 -89c0 -29.333 6.33301 -52 19 -68z" />
    <glyph glyph-name="p" unicode="p" horiz-adv-x="911" 
d="M395 496c14 16 36 31 66 45c44 20 91.333 30 142 30h9c87.333 0 154.333 -26 201 -78c42 -46.667 63 -108 63 -184c0 -38.667 -5.5 -76.334 -16.5 -113.001s-28.833 -69.667 -53.5 -99c-60.667 -72 -150.667 -108 -270 -108h-10c-59.333 0 -110.333 10.333 -153 31
c-23.333 10.667 -44.333 25.334 -63 44.001l-49 -252h-285l146 748h285zM452 167c42 0 74.667 15.667 98 47c16.667 24 25 52.333 25 85c0 27.333 -6.66699 49 -20 65c-16.667 20 -42 30 -76 30h-5c-42.667 0 -75 -15.667 -97 -47c-17.333 -24.667 -26 -52.667 -26 -84
c0 -26 6.66699 -47.667 20 -65c16 -20.667 41.333 -31 76 -31h5z" />
    <glyph glyph-name="q" unicode="q" horiz-adv-x="911" 
d="M389 571c68 0 124.331 -9.99805 168.998 -29.998c18 -8 31.667 -15.667 41 -23l19 -15c8.66699 14.667 16.334 33.667 23.001 57h259l-146 -748h-285l48 242c-19.333 -18 -41.666 -31.667 -66.999 -41c-39.333 -16 -81 -24 -125 -24h-12c-96.667 0 -169 27.333 -217 82
c-20.667 23.333 -35.834 50.166 -45.501 80.499s-14.5 62.166 -14.5 95.499c0 48.667 8.66699 93.667 26 135c22 55.333 55.667 99 101 131c56.667 38.667 128.334 58 215.001 58h11zM358.998 198.002c16 -20.667 40.667 -30.999 74 -30.999h7c40 0 71.333 14.667 94 44
c18.667 24 28 53.667 28 89c0 26.667 -6.66699 48 -20 64c-16.667 20 -41.667 30 -75 30h-7c-40.667 0 -72.334 -14.333 -95.001 -43c-9.33301 -12 -16.166 -25.333 -20.499 -40s-6.5 -29.334 -6.5 -44.001c0 -28 7 -51 21 -69z" />
    <glyph glyph-name="r" unicode="r" horiz-adv-x="794" 
d="M480 316c0 35.333 -17.667 53.001 -53 53.001c-21.333 0 -37.5 -6.5 -48.5 -19.5s-19.167 -34.833 -24.5 -65.5l-56 -284h-285l109 560h283l-18 -91c16.667 24.667 38.667 45.667 66 63c42 27.333 87.667 41 137 41h11c58 0 102.333 -18.667 133 -56
c13.333 -16.667 23.5 -36.5 30.5 -59.5s10.5 -47.167 10.5 -72.5c0 -21.333 -3.33301 -48 -10 -80c-4 -18.667 -9 -36.334 -15 -53.001h-280l7 37c2 10 3 19 3 27z" />
    <glyph glyph-name="s" unicode="s" horiz-adv-x="824" 
d="M329 159c12 -10.667 31 -16.001 57 -16.001h2c30 0 51 3 63 9s18 14.333 18 25c0 12 -5 21 -15 27c-11.333 6 -33.333 9.33301 -66 10l-74 4c-90.667 4 -156 22 -196 54c-33.333 27.333 -50 66.333 -50 117c0 56 24 99 72 129c56.667 35.333 150 53 280 53h20
c143.333 0 243.666 -17.667 300.999 -53c23.333 -15.333 39.333 -33.666 48 -54.999s12.667 -46.333 12 -75h-297c-1.33301 10.667 -5.66602 19.334 -12.999 26.001c-11.333 10 -30.333 15 -57 15h-5c-28 0 -47.667 -3 -59 -9c-10.667 -6 -16 -14.667 -16 -26
c0 -10.667 5.66699 -18.667 17 -24c12.667 -6 33.334 -9.33301 62.001 -10l75 -3c96.667 -4 165.667 -20.667 207 -50c34.667 -26 52 -66 52 -120c0 -56.667 -21.667 -101.334 -65 -134.001c-58.667 -44 -159 -66 -301 -66h-28c-108 0 -190.667 10.667 -248 32
c-48.667 18 -81.334 43.333 -98.001 76c-12 22 -17.333 52.333 -16 91h305c0 -11.333 4.33301 -20.333 13 -27z" />
    <glyph glyph-name="t" unicode="t" horiz-adv-x="572" 
d="M471 0h-215.998c-50.667 -0 -88.334 13.333 -113.001 40c-20 21.333 -30 49 -30 83c0 13.333 1.33301 26.333 4 39l43 218h-106l35 180h106l32 167h282l-34 -167h106l-35 -180h-106l-26 -132c-1.33301 -9.33301 -2 -16 -2 -20c0 -12 3.66699 -20.5 11 -25.5
s19.666 -7.5 36.999 -7.5h51z" />
    <glyph glyph-name="u" unicode="u" horiz-adv-x="895" 
d="M774 0h-284l18 87c-22.667 -25.333 -50.667 -47 -84 -65c-48 -25.333 -99.333 -38 -154 -38h-9c-39.333 0 -73.333 6.5 -102 19.5s-51.667 31.833 -69 56.5c-24 34.667 -36 78 -36 130c0 22.667 2.66699 48.334 8 77.001l57 293h286l-50 -263c-2 -10 -3 -19.667 -3 -29
c0 -24.667 7.16699 -43.834 21.5 -57.501s35.5 -20.5 63.5 -20.5c58.667 0 95 35.667 109 107l52 263h285z" />
    <glyph glyph-name="v" unicode="v" horiz-adv-x="843" 
d="M182 0l-137 560h308l45 -346l185 346h314l-343 -560h-372z" />
    <glyph glyph-name="w" unicode="w" horiz-adv-x="1227" 
d="M482 0h-352l-78 560h292l17 -327l153 327h300l35 -327l135 327h291l-280 -560h-342l-39 289z" />
    <glyph glyph-name="x" unicode="x" horiz-adv-x="815" 
d="M464 0l-72 169l-131 -169h-323l251 296l-138 264h308l71 -152l124 152h318l-241 -275l138 -285h-305z" />
    <glyph glyph-name="y" unicode="y" horiz-adv-x="812" 
d="M35 -15l125 -0.000976562c8 0 13.5 1.33301 16.5 4s4.5 6.66699 4.5 12c0 4.66699 -2.33301 17 -7 37l-131 522h304l38 -347l176 347h304l-365 -601c-15.333 -26 -30 -47.667 -44 -65s-29.333 -31.666 -46 -42.999c-37.333 -26 -82 -39 -134 -39h-274z" />
    <glyph glyph-name="z" unicode="z" horiz-adv-x="785" 
d="M677 0h-673l33 172l353 208h-308l35 180h658l-33 -172l-363 -204h335z" />
    <glyph glyph-name="Agrave" unicode="&#xc0;" horiz-adv-x="1055" 
d="M717 0l-29 113h-366l-71 -113h-312l484 744h386l211 -744h-303zM640 297l-59 227l-143 -227h202zM482 794l-116 161h307l80 -161h-271z" />
    <glyph glyph-name="Aacute" unicode="&#xc1;" horiz-adv-x="1055" 
d="M717 0l-29 113h-366l-71 -113h-312l484 744h386l211 -744h-303zM640 297l-59 227l-143 -227h202zM755 794h-273l117 161h309z" />
    <glyph glyph-name="Acircumflex" unicode="&#xc2;" horiz-adv-x="1055" 
d="M717 0l-29 113h-366l-71 -113h-312l484 744h386l211 -744h-303zM640 297l-59 227l-143 -227h202zM800 955l117 -163h-244l-45 68l-69 -68h-259l172 163h328z" />
    <glyph glyph-name="Atilde" unicode="&#xc3;" horiz-adv-x="1055" 
d="M717 0l-29 113h-366l-71 -113h-312l484 744h386l211 -744h-303zM640 297l-59 227l-143 -227h202zM896 1001l-18.998 -97c-5.33301 -31.333 -16.333 -56.666 -33 -75.999c-18.667 -22 -45 -33 -79 -33h-3c-18.667 0 -37.5 2.83301 -56.5 8.5s-43.833 14.5 -74.5 26.5
l-42 17c-10.667 4 -19.334 6 -26.001 6s-11.334 -1.83301 -14.001 -5.5s-5 -9.16699 -7 -16.5l-8 -40h-147l19 97c5.33301 31.333 16.333 56.666 33 75.999c18.667 22 45 33 79 33h3c18.667 0 37.5 -2.83301 56.5 -8.5s43.833 -14.5 74.5 -26.5l43 -17
c11.333 -4 19.666 -6 24.999 -6c6.66699 0 11.334 1.83301 14.001 5.5s5 9.16699 7 16.5l8 40h147z" />
    <glyph glyph-name="Adieresis" unicode="&#xc4;" horiz-adv-x="1055" 
d="M717 0l-29 113h-366l-71 -113h-312l484 744h386l211 -744h-303zM640 297l-59 227l-143 -227h202zM624 951l-30 -157h-265l30 157h265zM937 951l-30 -157h-265l30 157h265z" />
    <glyph glyph-name="Aring" unicode="&#xc5;" horiz-adv-x="1055" 
d="M717 0l-29 113h-366l-71 -113h-312l484 744h386l211 -744h-303zM640 297l-59 227l-143 -227h202zM800 1023c24.667 -21.333 37 -49.667 37 -85c0 -39.333 -11.333 -71.666 -34 -96.999c-34.667 -38 -94.334 -57 -179.001 -57c-69.333 0 -119.666 13.333 -150.999 40
c-24.667 20 -37 48 -37 84c0 39.333 11.333 71.666 34 96.999c33.333 38 92.333 57 177 57c69.333 0 120.333 -13 153 -39zM683 888.499c11.333 11.667 17.001 26.167 17.001 43.5c0 12.667 -5 23 -15 31s-24.333 12 -43 12c-24 0 -41.5 -5.83301 -52.5 -17.5
s-16.5 -26.167 -16.5 -43.5c0 -13.333 4.66699 -23.833 14 -31.5s23.666 -11.5 42.999 -11.5c24 0 41.667 5.83301 53 17.5z" />
    <glyph glyph-name="AE" unicode="&#xc6;" horiz-adv-x="1419" 
d="M568 0l23 120h-266l-94 -120h-310l589 744h934l-37 -187h-431l-16 -84h416l-38 -192h-416l-18 -92h439l-38 -189h-737zM626 300l54 275l-215 -275h161z" />
    <glyph glyph-name="Ccedilla" unicode="&#xc7;" horiz-adv-x="1086" 
d="M625 -273c-38.667 -34 -103.331 -50.9971 -193.998 -50.9971h-170l23 121h142c28 0 42 10 42 30c0 6 -2.33301 11 -7 15s-14.334 6 -29.001 6h-102l30 152c-112.667 20.667 -193.334 66 -242.001 136c-36.667 51.333 -55 118.666 -55 201.999
c0 63.333 11.667 121.666 35 174.999c31.333 71.333 80 127.666 146 168.999c80.667 50 186.334 75 317.001 75h44c136 0 244 -18.333 324 -55c64 -30 107.333 -72 130 -126c11.333 -28 17 -60 17 -96c0 -16 -1 -31.667 -3 -47h-311c0 25.333 -7.66699 46 -23 62
c-30 30 -82 45 -156 45c-80.667 0 -137.667 -23.667 -171 -71c-24 -33.333 -36 -73.666 -36 -120.999c0 -38.667 10.667 -69.667 32 -93c26.667 -31.333 71.667 -47 135 -47c70 0 123.333 15.667 160 47c14 12.667 23.333 24.334 28 35.001
c2 3.33301 4.66699 10.666 8 21.999h311c-9.33301 -58.667 -24.333 -106.334 -45 -143.001c-32.667 -56 -79.334 -98.333 -140.001 -127c-78 -36.667 -178 -55 -300 -55h-57l-8 -42c60 -0.666992 104.333 -11.667 133 -33c23.333 -17.333 35 -42.333 35 -75
c0 -48 -14.333 -84.667 -43 -110z" />
    <glyph glyph-name="Egrave" unicode="&#xc8;" horiz-adv-x="907" 
d="M170 744h761l-37 -187h-461l-16 -84h447l-38 -191h-446l-18 -93h468l-37 -189h-768zM427 794l-116 161h307l80 -161h-271z" />
    <glyph glyph-name="Eacute" unicode="&#xc9;" horiz-adv-x="907" 
d="M170 744h761l-37 -187h-461l-16 -84h447l-38 -191h-446l-18 -93h468l-37 -189h-768zM696 794h-273l117 161h309z" />
    <glyph glyph-name="Ecircumflex" unicode="&#xca;" horiz-adv-x="907" 
d="M170 744h761l-37 -187h-461l-16 -84h447l-38 -191h-446l-18 -93h468l-37 -189h-768zM740 955l117 -163h-244l-45 68l-69 -68h-259l172 163h328z" />
    <glyph glyph-name="Edieresis" unicode="&#xcb;" horiz-adv-x="907" 
d="M170 744h761l-37 -187h-461l-16 -84h447l-38 -191h-446l-18 -93h468l-37 -189h-768zM560 951l-30 -157h-265l30 157h265zM873 951l-30 -157h-265l30 157h265z" />
    <glyph glyph-name="Igrave" unicode="&#xcc;" horiz-adv-x="455" 
d="M468 744l-144 -744h-299l145 744h298zM190 794l-116 161h307l80 -161h-271z" />
    <glyph glyph-name="Iacute" unicode="&#xcd;" horiz-adv-x="455" 
d="M468 744l-144 -744h-299l145 744h298zM459 794h-273l117 161h309z" />
    <glyph glyph-name="Icircumflex" unicode="&#xce;" horiz-adv-x="455" 
d="M468 744l-144 -744h-299l145 744h298zM503 955l117 -163h-244l-45 68l-69 -68h-259l172 163h328z" />
    <glyph glyph-name="Idieresis" unicode="&#xcf;" horiz-adv-x="455" 
d="M468 744l-144 -744h-299l145 744h298zM323 951l-30 -157h-265l30 157h265zM636 951l-30 -157h-265l30 157h265z" />
    <glyph glyph-name="Ntilde" unicode="&#xd1;" horiz-adv-x="1125" 
d="M709 0l-311 417l-81 -417h-292l145 744h303l296 -398l78 398h291l-145 -744h-284zM936 1001l-18.998 -97c-5.33301 -31.333 -16.333 -56.666 -33 -75.999c-18.667 -22 -45 -33 -79 -33h-3c-18.667 0 -37.5 2.83301 -56.5 8.5s-43.833 14.5 -74.5 26.5l-42 17
c-10.667 4 -19.334 6 -26.001 6s-11.334 -1.83301 -14.001 -5.5s-5 -9.16699 -7 -16.5l-8 -40h-147l19 97c5.33301 31.333 16.333 56.666 33 75.999c18.667 22 45 33 79 33h3c18.667 0 37.5 -2.83301 56.5 -8.5s43.833 -14.5 74.5 -26.5l43 -17
c11.333 -4 19.666 -6 24.999 -6c6.66699 0 11.334 1.83301 14.001 5.5s5 9.16699 7 16.5l8 40h147z" />
    <glyph glyph-name="Ograve" unicode="&#xd2;" horiz-adv-x="1108" 
d="M617 757c122.667 0 221.333 -18.998 296 -56.998c64 -32 109.667 -76.333 137 -133c22 -46 33 -97.333 33 -154c0 -67.333 -11.667 -128.333 -35 -183c-32 -72.667 -81.333 -129 -148 -169c-83.333 -49.333 -191.666 -74 -324.999 -74h-45
c-123.333 0 -222 19.333 -296 58c-64 33.333 -109.667 78.666 -137 135.999c-22 44.667 -33 96 -33 154c0 67.333 12 127.666 36 180.999c31.333 72 80.666 128 147.999 168c82.667 48.667 190.667 73 324 73h45zM738.999 494.002c-29.333 30.667 -77.667 46 -145 46
c-86.667 0 -148 -25.333 -184 -76c-22.667 -32 -34 -71.667 -34 -119c0 -36.667 11.333 -66.667 34 -90c29.333 -31.333 77.333 -47 144 -47c88 0 149.667 25 185 75c22 31.333 33 71.333 33 120c0 36.667 -11 67 -33 91zM481.998 794.002l-116 161h307l80 -161h-271z" />
    <glyph glyph-name="Oacute" unicode="&#xd3;" horiz-adv-x="1108" 
d="M617 757c122.667 0 221.333 -18.998 296 -56.998c64 -32 109.667 -76.333 137 -133c22 -46 33 -97.333 33 -154c0 -67.333 -11.667 -128.333 -35 -183c-32 -72.667 -81.333 -129 -148 -169c-83.333 -49.333 -191.666 -74 -324.999 -74h-45
c-123.333 0 -222 19.333 -296 58c-64 33.333 -109.667 78.666 -137 135.999c-22 44.667 -33 96 -33 154c0 67.333 12 127.666 36 180.999c31.333 72 80.666 128 147.999 168c82.667 48.667 190.667 73 324 73h45zM738.999 494.002c-29.333 30.667 -77.667 46 -145 46
c-86.667 0 -148 -25.333 -184 -76c-22.667 -32 -34 -71.667 -34 -119c0 -36.667 11.333 -66.667 34 -90c29.333 -31.333 77.333 -47 144 -47c88 0 149.667 25 185 75c22 31.333 33 71.333 33 120c0 36.667 -11 67 -33 91zM750.998 794.002h-273l117 161h309z" />
    <glyph glyph-name="Ocircumflex" unicode="&#xd4;" horiz-adv-x="1108" 
d="M617 757c122.667 0 221.333 -18.998 296 -56.998c64 -32 109.667 -76.333 137 -133c22 -46 33 -97.333 33 -154c0 -67.333 -11.667 -128.333 -35 -183c-32 -72.667 -81.333 -129 -148 -169c-83.333 -49.333 -191.666 -74 -324.999 -74h-45
c-123.333 0 -222 19.333 -296 58c-64 33.333 -109.667 78.666 -137 135.999c-22 44.667 -33 96 -33 154c0 67.333 12 127.666 36 180.999c31.333 72 80.666 128 147.999 168c82.667 48.667 190.667 73 324 73h45zM738.999 494.002c-29.333 30.667 -77.667 46 -145 46
c-86.667 0 -148 -25.333 -184 -76c-22.667 -32 -34 -71.667 -34 -119c0 -36.667 11.333 -66.667 34 -90c29.333 -31.333 77.333 -47 144 -47c88 0 149.667 25 185 75c22 31.333 33 71.333 33 120c0 36.667 -11 67 -33 91zM794.998 955.002l117 -163h-244l-45 68l-69 -68
h-259l172 163h328z" />
    <glyph glyph-name="Otilde" unicode="&#xd5;" horiz-adv-x="1108" 
d="M617 757c122.667 0 221.333 -18.998 296 -56.998c64 -32 109.667 -76.333 137 -133c22 -46 33 -97.333 33 -154c0 -67.333 -11.667 -128.333 -35 -183c-32 -72.667 -81.333 -129 -148 -169c-83.333 -49.333 -191.666 -74 -324.999 -74h-45
c-123.333 0 -222 19.333 -296 58c-64 33.333 -109.667 78.666 -137 135.999c-22 44.667 -33 96 -33 154c0 67.333 12 127.666 36 180.999c31.333 72 80.666 128 147.999 168c82.667 48.667 190.667 73 324 73h45zM738.999 494.002c-29.333 30.667 -77.667 46 -145 46
c-86.667 0 -148 -25.333 -184 -76c-22.667 -32 -34 -71.667 -34 -119c0 -36.667 11.333 -66.667 34 -90c29.333 -31.333 77.333 -47 144 -47c88 0 149.667 25 185 75c22 31.333 33 71.333 33 120c0 36.667 -11 67 -33 91zM893.998 1001l-18.998 -97
c-5.33301 -31.333 -16.333 -56.666 -33 -75.999c-18.667 -22 -45 -33 -79 -33h-3c-18.667 0 -37.5 2.83301 -56.5 8.5s-43.833 14.5 -74.5 26.5l-42 17c-10.667 4 -19.334 6 -26.001 6s-11.334 -1.83301 -14.001 -5.5s-5 -9.16699 -7 -16.5l-8 -40h-147l19 97
c5.33301 31.333 16.333 56.666 33 75.999c18.667 22 45 33 79 33h3c18.667 0 37.5 -2.83301 56.5 -8.5s43.833 -14.5 74.5 -26.5l43 -17c11.333 -4 19.666 -6 24.999 -6c6.66699 0 11.334 1.83301 14.001 5.5s5 9.16699 7 16.5l8 40h147z" />
    <glyph glyph-name="Odieresis" unicode="&#xd6;" horiz-adv-x="1108" 
d="M617 757c122.667 0 221.333 -18.998 296 -56.998c64 -32 109.667 -76.333 137 -133c22 -46 33 -97.333 33 -154c0 -67.333 -11.667 -128.333 -35 -183c-32 -72.667 -81.333 -129 -148 -169c-83.333 -49.333 -191.666 -74 -324.999 -74h-45
c-123.333 0 -222 19.333 -296 58c-64 33.333 -109.667 78.666 -137 135.999c-22 44.667 -33 96 -33 154c0 67.333 12 127.666 36 180.999c31.333 72 80.666 128 147.999 168c82.667 48.667 190.667 73 324 73h45zM738.999 494.002c-29.333 30.667 -77.667 46 -145 46
c-86.667 0 -148 -25.333 -184 -76c-22.667 -32 -34 -71.667 -34 -119c0 -36.667 11.333 -66.667 34 -90c29.333 -31.333 77.333 -47 144 -47c88 0 149.667 25 185 75c22 31.333 33 71.333 33 120c0 36.667 -11 67 -33 91zM614.998 951.002l-30 -157h-265l30 157h265z
M927.998 951.002l-30 -157h-265l30 157h265z" />
    <glyph glyph-name="Ugrave" unicode="&#xd9;" horiz-adv-x="1114" 
d="M220 64c-60.667 40 -99.667 95.6689 -117 167.002c-7.33301 27.333 -11 57 -11 89c0 29.333 2.66699 56.666 8 81.999l67 342h297l-66 -342c-2.66699 -12.667 -4 -26.667 -4 -42c0 -32 7.66699 -57.333 23 -76c26.667 -36.667 75.667 -55 147 -55h3
c67.333 0 117 18.333 149 55c24 27.333 40.667 66.666 50 117.999l67 342h297l-66 -342c-6.66699 -36.667 -13.167 -68 -19.5 -94s-15.5 -52 -27.5 -78c-34 -74 -80.333 -129.333 -139 -166c-78 -50 -181.333 -75 -310 -75h-30c-136.667 0 -242.667 25 -318 75zM512 794.002
l-116 161h307l80 -161h-271z" />
    <glyph glyph-name="Uacute" unicode="&#xda;" horiz-adv-x="1114" 
d="M220 64c-60.667 40 -99.667 95.6689 -117 167.002c-7.33301 27.333 -11 57 -11 89c0 29.333 2.66699 56.666 8 81.999l67 342h297l-66 -342c-2.66699 -12.667 -4 -26.667 -4 -42c0 -32 7.66699 -57.333 23 -76c26.667 -36.667 75.667 -55 147 -55h3
c67.333 0 117 18.333 149 55c24 27.333 40.667 66.666 50 117.999l67 342h297l-66 -342c-6.66699 -36.667 -13.167 -68 -19.5 -94s-15.5 -52 -27.5 -78c-34 -74 -80.333 -129.333 -139 -166c-78 -50 -181.333 -75 -310 -75h-30c-136.667 0 -242.667 25 -318 75zM779 794.002
h-273l117 161h309z" />
    <glyph glyph-name="Ucircumflex" unicode="&#xdb;" horiz-adv-x="1114" 
d="M220 64c-60.667 40 -99.667 95.6689 -117 167.002c-7.33301 27.333 -11 57 -11 89c0 29.333 2.66699 56.666 8 81.999l67 342h297l-66 -342c-2.66699 -12.667 -4 -26.667 -4 -42c0 -32 7.66699 -57.333 23 -76c26.667 -36.667 75.667 -55 147 -55h3
c67.333 0 117 18.333 149 55c24 27.333 40.667 66.666 50 117.999l67 342h297l-66 -342c-6.66699 -36.667 -13.167 -68 -19.5 -94s-15.5 -52 -27.5 -78c-34 -74 -80.333 -129.333 -139 -166c-78 -50 -181.333 -75 -310 -75h-30c-136.667 0 -242.667 25 -318 75zM824 955.002
l117 -163h-244l-45 68l-69 -68h-259l172 163h328z" />
    <glyph glyph-name="Udieresis" unicode="&#xdc;" horiz-adv-x="1114" 
d="M220 64c-60.667 40 -99.667 95.6689 -117 167.002c-7.33301 27.333 -11 57 -11 89c0 29.333 2.66699 56.666 8 81.999l67 342h297l-66 -342c-2.66699 -12.667 -4 -26.667 -4 -42c0 -32 7.66699 -57.333 23 -76c26.667 -36.667 75.667 -55 147 -55h3
c67.333 0 117 18.333 149 55c24 27.333 40.667 66.666 50 117.999l67 342h297l-66 -342c-6.66699 -36.667 -13.167 -68 -19.5 -94s-15.5 -52 -27.5 -78c-34 -74 -80.333 -129.333 -139 -166c-78 -50 -181.333 -75 -310 -75h-30c-136.667 0 -242.667 25 -318 75zM645 951.002
l-30 -157h-265l30 157h265zM958 951.002l-30 -157h-265l30 157h265z" />
    <glyph glyph-name="Yacute" unicode="&#xdd;" horiz-adv-x="1021" 
d="M315 0l51 262l-297 482h340l143 -247l243 247h340l-472 -482l-51 -262h-297zM729 794h-273l117 161h309z" />
    <glyph glyph-name="germandbls" unicode="&#xdf;" horiz-adv-x="923" 
d="M827 395c36 -34.667 53.9971 -79.9971 53.9971 -135.997c0 -72.667 -20.667 -130 -62 -172c-56.667 -58 -152.667 -87 -288 -87h-181l37 191h118c28.667 0 50 7.66699 64 23c9.33301 10 14 24 14 42c0 15.333 -4.83301 27.333 -14.5 36s-26.5 13 -50.5 13h-109l37 188h77
c31.333 0 53 6.66699 65 20c9.33301 9.33301 14 21.666 14 36.999c0 14.667 -5 25.667 -15 33c-15.333 9.33301 -39.666 14 -72.999 14h-7c-39.333 0 -67 -7 -83 -21c-7.33301 -6 -13 -13.5 -17 -22.5s-7 -20.167 -9 -33.5l-101 -520h-284l104 538
c5.33301 25.333 10 45.166 14 59.499s10 29.166 18 44.499c20.667 40 54.334 70.667 101.001 92c57.333 26 137 39 239 39h41c138.667 0 237.334 -18 296.001 -54c24 -15.333 40.667 -33 50 -53s14 -42 14 -66c0 -45.333 -18.333 -81.333 -55 -108
c-17.333 -12.667 -37 -22.5 -59 -29.5s-44.667 -10.833 -68 -11.5c50 -9.33301 89.667 -28 119 -56z" />
    <glyph glyph-name="agrave" unicode="&#xe0;" horiz-adv-x="848" 
d="M69 375c3.33301 26 9.83398 49.9971 19.501 71.9971s26.167 42 49.5 60c59.333 45.333 156.333 68 291 68h33c143.333 0 240 -21.667 290 -65c29.333 -26 44 -59 44 -99c0 -8.66699 -1.33301 -21.667 -4 -39l-32 -161v-6c0 -8.66699 4.33301 -13 13 -13h37l-38 -192h-222
c-24.667 0 -45.334 7.66699 -62.001 23c-12.667 10.667 -21.334 25 -26.001 43c-16 -18 -36.333 -33.333 -61 -46c-41.333 -21.333 -90.333 -32 -147 -32h-17c-69.333 0 -123.5 14.5 -162.5 43.5s-58.5 69.5 -58.5 121.5c0 58.667 18.333 102.334 55 131.001
c45.333 36 120.333 55.667 225 59l174 7c15.333 0.666992 26.5 3.83398 33.5 9.50098s10.5 13.834 10.5 24.501c0 13.333 -5 23.333 -15 30c-11.333 7.33301 -32 11 -62 11h-4c-33.333 0 -57 -6.33301 -71 -19c-9.33301 -8.66699 -14.666 -19 -15.999 -31h-277z
M448.001 164.997c18.667 16.667 30.667 38.333 36 65l4 19l-94 -14c-40 -6.66699 -66.333 -14 -79 -22c-7.33301 -4 -12.333 -8.83301 -15 -14.5s-4 -12.5 -4 -20.5c0 -28.667 22.667 -43 68 -43c34 0 62 10 84 30zM597.001 610.996h-268l-119 164h304z" />
    <glyph glyph-name="aacute" unicode="&#xe1;" horiz-adv-x="848" 
d="M69 375c3.33301 26 9.83398 49.9971 19.501 71.9971s26.167 42 49.5 60c59.333 45.333 156.333 68 291 68h33c143.333 0 240 -21.667 290 -65c29.333 -26 44 -59 44 -99c0 -8.66699 -1.33301 -21.667 -4 -39l-32 -161v-6c0 -8.66699 4.33301 -13 13 -13h37l-38 -192h-222
c-24.667 0 -45.334 7.66699 -62.001 23c-12.667 10.667 -21.334 25 -26.001 43c-16 -18 -36.333 -33.333 -61 -46c-41.333 -21.333 -90.333 -32 -147 -32h-17c-69.333 0 -123.5 14.5 -162.5 43.5s-58.5 69.5 -58.5 121.5c0 58.667 18.333 102.334 55 131.001
c45.333 36 120.333 55.667 225 59l174 7c15.333 0.666992 26.5 3.83398 33.5 9.50098s10.5 13.834 10.5 24.501c0 13.333 -5 23.333 -15 30c-11.333 7.33301 -32 11 -62 11h-4c-33.333 0 -57 -6.33301 -71 -19c-9.33301 -8.66699 -14.666 -19 -15.999 -31h-277z
M448.001 164.997c18.667 16.667 30.667 38.333 36 65l4 19l-94 -14c-40 -6.66699 -66.333 -14 -79 -22c-7.33301 -4 -12.333 -8.83301 -15 -14.5s-4 -12.5 -4 -20.5c0 -28.667 22.667 -43 68 -43c34 0 62 10 84 30zM329.001 610.996l124 164h311l-161 -164h-274z" />
    <glyph glyph-name="acircumflex" unicode="&#xe2;" horiz-adv-x="848" 
d="M69 375c3.33301 26 9.83398 49.9971 19.501 71.9971s26.167 42 49.5 60c59.333 45.333 156.333 68 291 68h33c143.333 0 240 -21.667 290 -65c29.333 -26 44 -59 44 -99c0 -8.66699 -1.33301 -21.667 -4 -39l-32 -161v-6c0 -8.66699 4.33301 -13 13 -13h37l-38 -192h-222
c-24.667 0 -45.334 7.66699 -62.001 23c-12.667 10.667 -21.334 25 -26.001 43c-16 -18 -36.333 -33.333 -61 -46c-41.333 -21.333 -90.333 -32 -147 -32h-17c-69.333 0 -123.5 14.5 -162.5 43.5s-58.5 69.5 -58.5 121.5c0 58.667 18.333 102.334 55 131.001
c45.333 36 120.333 55.667 225 59l174 7c15.333 0.666992 26.5 3.83398 33.5 9.50098s10.5 13.834 10.5 24.501c0 13.333 -5 23.333 -15 30c-11.333 7.33301 -32 11 -62 11h-4c-33.333 0 -57 -6.33301 -71 -19c-9.33301 -8.66699 -14.666 -19 -15.999 -31h-277z
M448.001 164.997c18.667 16.667 30.667 38.333 36 65l4 19l-94 -14c-40 -6.66699 -66.333 -14 -79 -22c-7.33301 -4 -12.333 -8.83301 -15 -14.5s-4 -12.5 -4 -20.5c0 -28.667 22.667 -43 68 -43c34 0 62 10 84 30zM655.001 774.996l112 -166h-244l-44 68l-65 -68h-259
l168 166h332z" />
    <glyph glyph-name="atilde" unicode="&#xe3;" horiz-adv-x="848" 
d="M69 375c3.33301 26 9.83398 49.9971 19.501 71.9971s26.167 42 49.5 60c59.333 45.333 156.333 68 291 68h33c143.333 0 240 -21.667 290 -65c29.333 -26 44 -59 44 -99c0 -8.66699 -1.33301 -21.667 -4 -39l-32 -161v-6c0 -8.66699 4.33301 -13 13 -13h37l-38 -192h-222
c-24.667 0 -45.334 7.66699 -62.001 23c-12.667 10.667 -21.334 25 -26.001 43c-16 -18 -36.333 -33.333 -61 -46c-41.333 -21.333 -90.333 -32 -147 -32h-17c-69.333 0 -123.5 14.5 -162.5 43.5s-58.5 69.5 -58.5 121.5c0 58.667 18.333 102.334 55 131.001
c45.333 36 120.333 55.667 225 59l174 7c15.333 0.666992 26.5 3.83398 33.5 9.50098s10.5 13.834 10.5 24.501c0 13.333 -5 23.333 -15 30c-11.333 7.33301 -32 11 -62 11h-4c-33.333 0 -57 -6.33301 -71 -19c-9.33301 -8.66699 -14.666 -19 -15.999 -31h-277z
M448.001 164.997c18.667 16.667 30.667 38.333 36 65l4 19l-94 -14c-40 -6.66699 -66.333 -14 -79 -22c-7.33301 -4 -12.333 -8.83301 -15 -14.5s-4 -12.5 -4 -20.5c0 -28.667 22.667 -43 68 -43c34 0 62 10 84 30zM743.001 817.996l-18.9971 -100.002
c-4.66699 -17.333 -9.33398 -32.166 -14.001 -44.499s-11 -22.833 -19 -31.5c-19.333 -22.667 -46.333 -34 -81 -34h-3c-17.333 0 -35 2.66699 -53 8s-43 14.666 -75 27.999c-14.667 6.66699 -27.834 12.334 -39.501 17.001s-20.5 7 -26.5 7
c-6.66699 0 -11.167 -1.83301 -13.5 -5.5s-4.5 -9.83398 -6.5 -18.501l-8 -40h-148l20 100c5.33301 32.667 16.666 58.334 33.999 77.001c20 22 46.667 33 80 33h3c18.667 0 37.167 -2.66699 55.5 -8s42.5 -14.666 72.5 -27.999c32.667 -15.333 54.667 -23 66 -23
c6.66699 0 11.167 1.83301 13.5 5.5s4.5 9.5 6.5 17.5l8 40h147z" />
    <glyph glyph-name="adieresis" unicode="&#xe4;" horiz-adv-x="848" 
d="M69 375c3.33301 26 9.83398 49.9971 19.501 71.9971s26.167 42 49.5 60c59.333 45.333 156.333 68 291 68h33c143.333 0 240 -21.667 290 -65c29.333 -26 44 -59 44 -99c0 -8.66699 -1.33301 -21.667 -4 -39l-32 -161v-6c0 -8.66699 4.33301 -13 13 -13h37l-38 -192h-222
c-24.667 0 -45.334 7.66699 -62.001 23c-12.667 10.667 -21.334 25 -26.001 43c-16 -18 -36.333 -33.333 -61 -46c-41.333 -21.333 -90.333 -32 -147 -32h-17c-69.333 0 -123.5 14.5 -162.5 43.5s-58.5 69.5 -58.5 121.5c0 58.667 18.333 102.334 55 131.001
c45.333 36 120.333 55.667 225 59l174 7c15.333 0.666992 26.5 3.83398 33.5 9.50098s10.5 13.834 10.5 24.501c0 13.333 -5 23.333 -15 30c-11.333 7.33301 -32 11 -62 11h-4c-33.333 0 -57 -6.33301 -71 -19c-9.33301 -8.66699 -14.666 -19 -15.999 -31h-277z
M448.001 164.997c18.667 16.667 30.667 38.333 36 65l4 19l-94 -14c-40 -6.66699 -66.333 -14 -79 -22c-7.33301 -4 -12.333 -8.83301 -15 -14.5s-4 -12.5 -4 -20.5c0 -28.667 22.667 -43 68 -43c34 0 62 10 84 30zM475.001 762.996l-30 -157h-263l30 157h263z
M784.001 762.996l-30 -157h-263l30 157h263z" />
    <glyph glyph-name="aring" unicode="&#xe5;" horiz-adv-x="848" 
d="M69 375c3.33301 26 9.83398 49.9971 19.501 71.9971s26.167 42 49.5 60c59.333 45.333 156.333 68 291 68h33c143.333 0 240 -21.667 290 -65c29.333 -26 44 -59 44 -99c0 -8.66699 -1.33301 -21.667 -4 -39l-32 -161v-6c0 -8.66699 4.33301 -13 13 -13h37l-38 -192h-222
c-24.667 0 -45.334 7.66699 -62.001 23c-12.667 10.667 -21.334 25 -26.001 43c-16 -18 -36.333 -33.333 -61 -46c-41.333 -21.333 -90.333 -32 -147 -32h-17c-69.333 0 -123.5 14.5 -162.5 43.5s-58.5 69.5 -58.5 121.5c0 58.667 18.333 102.334 55 131.001
c45.333 36 120.333 55.667 225 59l174 7c15.333 0.666992 26.5 3.83398 33.5 9.50098s10.5 13.834 10.5 24.501c0 13.333 -5 23.333 -15 30c-11.333 7.33301 -32 11 -62 11h-4c-33.333 0 -57 -6.33301 -71 -19c-9.33301 -8.66699 -14.666 -19 -15.999 -31h-277z
M448.001 164.997c18.667 16.667 30.667 38.333 36 65l4 19l-94 -14c-40 -6.66699 -66.333 -14 -79 -22c-7.33301 -4 -12.333 -8.83301 -15 -14.5s-4 -12.5 -4 -20.5c0 -28.667 22.667 -43 68 -43c34 0 62 10 84 30zM640.001 838.996c24 -21.333 36.001 -49.667 36.001 -85
c0 -40 -10.667 -72.333 -32 -97c-33.333 -38 -91 -57 -173 -57c-67.333 0 -116 13.333 -146 40c-24 20.667 -36 48.667 -36 84c0 40 10.667 72.333 32 97c33.333 38 90.666 57 171.999 57c67.333 0 116.333 -13 147 -39zM524.502 704.995c10.333 12 15.5 26.333 15.5 43
c0 12.667 -4.33301 23 -13 31s-21.667 12 -39 12c-21.333 0 -37.166 -6 -47.499 -18s-15.5 -26.333 -15.5 -43c0 -12.667 4.16699 -23 12.5 -31s21.166 -12 38.499 -12c22 0 38.167 6 48.5 18z" />
    <glyph glyph-name="ae" unicode="&#xe6;" horiz-adv-x="1346" 
d="M1291 187c-11.333 -54.667 -40.0049 -98.0029 -86.0049 -130.003c-69.333 -48 -175.666 -72 -318.999 -72h-49c-82.667 0 -147.667 10 -195 30c-44.667 18 -76 44.333 -94 79c-26.667 -29.333 -59 -52.666 -97 -69.999c-52.667 -24 -115 -36 -187 -36h-17
c-74 0 -131 14.5 -171 43.5s-60 69.5 -60 121.5c0 58.667 18.333 102.334 55 131.001c45.333 36 120.333 55.667 225 59l174 7c15.333 0.666992 26.5 3.83398 33.5 9.50098s10.5 13.834 10.5 24.501c0 13.333 -5 23.333 -15 30c-11.333 7.33301 -32 11 -62 11h-4
c-33.333 0 -57 -6.33301 -71 -19c-9.33301 -8.66699 -14.666 -19 -15.999 -31h-277c2.66699 25.333 8.83398 49.166 18.501 71.499s25.834 42.5 48.501 60.5c58 45.333 154.333 68 289 68h33c108.667 0 181 -20.667 217 -62c54.667 41.333 128.334 62 221.001 62h45
c157.333 0 264.333 -31.667 321 -95c33.333 -38 50 -86.667 50 -146c0 -24 -2.66699 -50.333 -8 -79l-4 -21h-517c3.33301 -30 13.666 -51.833 30.999 -65.5s43 -20.5 77 -20.5c30.667 0 55.334 5.33301 74.001 16c10.667 6 19 13.667 25 23h301zM794.995 347.997h225.999
c0 53.333 -35 80 -105 80c-61.333 0 -101.666 -26.667 -120.999 -80zM447.994 164.997c18.667 16.667 30.667 38.333 36 65l4 19l-94 -14c-40 -6.66699 -66.333 -14 -79 -22c-7.33301 -4 -12.333 -8.83301 -15 -14.5s-4 -12.5 -4 -20.5c0 -28.667 22.667 -43 68 -43
c34 0 62 10 84 30z" />
    <glyph glyph-name="ccedilla" unicode="&#xe7;" horiz-adv-x="875" 
d="M526 -273c-38.667 -34 -103.336 -50.998 -194.003 -50.998h-170l23 121h142c28 0 42 10 42 30c0 6 -2.33301 11 -7 15s-14.334 6 -29.001 6h-102l29 149c-84 17.333 -144 51.333 -180 102c-29.333 40 -44 90 -44 150c0 54.667 9.66699 103.667 29 147
c24.667 54 64.334 96 119.001 126c65.333 35.333 150.333 53 255 53h36c114.667 0 202.334 -14.667 263.001 -44c50.667 -24 84 -57 100 -99c8 -20.667 12 -43.334 12 -68.001c0 -8 -0.666992 -18.667 -2 -32h-297c0 16 -5 29.667 -15 41c-15.333 16.667 -40.333 25 -75 25
h-8c-39.333 0 -69.666 -15 -90.999 -45c-17.333 -24.667 -26 -56 -26 -94c0 -28.667 6 -51 18 -67c13.333 -18.667 35.333 -28 66 -28h7c34.667 0 62 10 82 30c11.333 11.333 19.666 26.666 24.999 45.999h297c-6.66699 -38 -17 -70.333 -31 -97
c-25.333 -45.333 -61.666 -81 -108.999 -107c-63.333 -34 -144.666 -51 -243.999 -51h-39l-7 -40c60 -0.666992 104.333 -11.667 133 -33c23.333 -17.333 35 -42.333 35 -75c0 -48 -14.333 -84.667 -43 -110z" />
    <glyph glyph-name="egrave" unicode="&#xe8;" horiz-adv-x="895" 
d="M840 187c-11.333 -54 -39.665 -97.333 -84.998 -130c-66.667 -48 -170 -72 -310 -72h-49c-132 0 -228 28.333 -288 85c-48 45.333 -72 106.666 -72 183.999c0 46.667 9.33301 91.334 28 134.001c23.333 54 62.666 97 117.999 129c66 38.667 152.333 58 259 58h45
c159.333 0 267.333 -31.667 324 -95c34 -38 51 -87 51 -147c0 -23.333 -2.66699 -49.333 -8 -78l-4 -21h-517c3.33301 -30 13.666 -51.833 30.999 -65.5s43 -20.5 77 -20.5c31.333 0 56 5.33301 74 16c10.667 6 19 13.667 25 23h301zM344.001 348h225.999
c0 53.333 -35 80 -105 80c-61.333 0 -101.666 -26.667 -120.999 -80zM619 611h-268l-119 164h304z" />
    <glyph glyph-name="eacute" unicode="&#xe9;" horiz-adv-x="895" 
d="M840 187c-11.333 -54 -39.665 -97.333 -84.998 -130c-66.667 -48 -170 -72 -310 -72h-49c-132 0 -228 28.333 -288 85c-48 45.333 -72 106.666 -72 183.999c0 46.667 9.33301 91.334 28 134.001c23.333 54 62.666 97 117.999 129c66 38.667 152.333 58 259 58h45
c159.333 0 267.333 -31.667 324 -95c34 -38 51 -87 51 -147c0 -23.333 -2.66699 -49.333 -8 -78l-4 -21h-517c3.33301 -30 13.666 -51.833 30.999 -65.5s43 -20.5 77 -20.5c31.333 0 56 5.33301 74 16c10.667 6 19 13.667 25 23h301zM344.001 348h225.999
c0 53.333 -35 80 -105 80c-61.333 0 -101.666 -26.667 -120.999 -80zM350 611l124 164h311l-161 -164h-274z" />
    <glyph glyph-name="ecircumflex" unicode="&#xea;" horiz-adv-x="895" 
d="M840 187c-11.333 -54 -39.665 -97.333 -84.998 -130c-66.667 -48 -170 -72 -310 -72h-49c-132 0 -228 28.333 -288 85c-48 45.333 -72 106.666 -72 183.999c0 46.667 9.33301 91.334 28 134.001c23.333 54 62.666 97 117.999 129c66 38.667 152.333 58 259 58h45
c159.333 0 267.333 -31.667 324 -95c34 -38 51 -87 51 -147c0 -23.333 -2.66699 -49.333 -8 -78l-4 -21h-517c3.33301 -30 13.666 -51.833 30.999 -65.5s43 -20.5 77 -20.5c31.333 0 56 5.33301 74 16c10.667 6 19 13.667 25 23h301zM344.001 348h225.999
c0 53.333 -35 80 -105 80c-61.333 0 -101.666 -26.667 -120.999 -80zM677 775l112 -166h-244l-44 68l-65 -68h-259l168 166h332z" />
    <glyph glyph-name="edieresis" unicode="&#xeb;" horiz-adv-x="895" 
d="M840 187c-11.333 -54 -39.665 -97.333 -84.998 -130c-66.667 -48 -170 -72 -310 -72h-49c-132 0 -228 28.333 -288 85c-48 45.333 -72 106.666 -72 183.999c0 46.667 9.33301 91.334 28 134.001c23.333 54 62.666 97 117.999 129c66 38.667 152.333 58 259 58h45
c159.333 0 267.333 -31.667 324 -95c34 -38 51 -87 51 -147c0 -23.333 -2.66699 -49.333 -8 -78l-4 -21h-517c3.33301 -30 13.666 -51.833 30.999 -65.5s43 -20.5 77 -20.5c31.333 0 56 5.33301 74 16c10.667 6 19 13.667 25 23h301zM344.001 348h225.999
c0 53.333 -35 80 -105 80c-61.333 0 -101.666 -26.667 -120.999 -80zM497 763l-30 -157h-263l30 157h263zM806 763l-30 -157h-263l30 157h263z" />
    <glyph glyph-name="igrave" unicode="&#xec;" horiz-adv-x="419" 
d="M333 775l72 -164h-268l-97 164h293zM407 560l-109 -560h-285l109 560h285z" />
    <glyph glyph-name="iacute" unicode="&#xed;" horiz-adv-x="419" 
d="M141 611l107 164h293l-131 -164h-269zM407 560l-109 -560h-285l109 560h285z" />
    <glyph glyph-name="icircumflex" unicode="&#xee;" horiz-adv-x="419" 
d="M456 775l86 -166h-227l-32 68l-56 -68h-232l144 166h317zM407 560l-109 -560h-285l109 560h285z" />
    <glyph glyph-name="idieresis" unicode="&#xef;" horiz-adv-x="419" 
d="M278 763l-30 -157h-216l30 157h216zM540 763l-30 -157h-216l30 157h216zM407 560l-109 -560h-285l109 560h285z" />
    <glyph glyph-name="ntilde" unicode="&#xf1;" horiz-adv-x="899" 
d="M122 560l283 -0.000976562l-17 -87c22.667 25.333 51.667 47.333 87 66c49.333 24.667 101 37 155 37h9c79.333 0 136.666 -25.333 171.999 -76c23.333 -33.333 35 -76 35 -128c0 -22.667 -2.66699 -49 -8 -79l-58 -293h-286l51 263c2 10 3 19.667 3 29
c0 24.667 -7.16699 43.834 -21.5 57.501s-36.166 20.5 -65.499 20.5c-32.667 0 -57.667 -9 -75 -27s-29.333 -44.667 -36 -80l-52 -263h-285zM770 817.999l-18.9971 -100.002c-4.66699 -17.333 -9.33398 -32.166 -14.001 -44.499s-11 -22.833 -19 -31.5
c-19.333 -22.667 -46.333 -34 -81 -34h-3c-17.333 0 -35 2.66699 -53 8s-43 14.666 -75 27.999c-14.667 6.66699 -27.834 12.334 -39.501 17.001s-20.5 7 -26.5 7c-6.66699 0 -11.167 -1.83301 -13.5 -5.5s-4.5 -9.83398 -6.5 -18.501l-8 -40h-148l20 100
c5.33301 32.667 16.666 58.334 33.999 77.001c20 22 46.667 33 80 33h3c18.667 0 37.167 -2.66699 55.5 -8s42.5 -14.666 72.5 -27.999c32.667 -15.333 54.667 -23 66 -23c6.66699 0 11.167 1.83301 13.5 5.5s4.5 9.5 6.5 17.5l8 40h147z" />
    <glyph glyph-name="ograve" unicode="&#xf2;" horiz-adv-x="899" 
d="M419 -15c-107.333 0 -191.001 14.9971 -251.001 44.9971c-51.333 25.333 -87.666 60.333 -108.999 105c-15.333 32 -23 71.667 -23 119c0 44.667 8 86.334 24 125.001c22.667 56.667 60.667 101.334 114 134.001c67.333 41.333 157.666 62 270.999 62h35
c106 0 190.333 -14.333 253 -43c50.667 -23.333 86.334 -57.333 107.001 -102c14.667 -32.667 22 -72 22 -118c0 -53.333 -6.66699 -97.666 -20 -132.999c-20.667 -57.333 -58 -102 -112 -134c-68 -40 -160.333 -60 -277 -60h-34zM354.999 195.997
c16.667 -22 42.667 -33.002 78 -33.002h6c23.333 0 43.333 4.83301 60 14.5s30 22.167 40 37.5c8 12.667 14 26.834 18 42.501s6 30.167 6 43.5c0 28.667 -6.66699 51.334 -20 68.001c-17.333 20.667 -43.333 31 -78 31h-6c-43.333 0 -76 -15.667 -98 -47
c-16.667 -24 -25 -53.667 -25 -89c0 -29.333 6.33301 -52 19 -68zM624.999 610.995h-268l-119 164h304z" />
    <glyph glyph-name="oacute" unicode="&#xf3;" horiz-adv-x="899" 
d="M419 -15c-107.333 0 -191.001 14.9971 -251.001 44.9971c-51.333 25.333 -87.666 60.333 -108.999 105c-15.333 32 -23 71.667 -23 119c0 44.667 8 86.334 24 125.001c22.667 56.667 60.667 101.334 114 134.001c67.333 41.333 157.666 62 270.999 62h35
c106 0 190.333 -14.333 253 -43c50.667 -23.333 86.334 -57.333 107.001 -102c14.667 -32.667 22 -72 22 -118c0 -53.333 -6.66699 -97.666 -20 -132.999c-20.667 -57.333 -58 -102 -112 -134c-68 -40 -160.333 -60 -277 -60h-34zM354.999 195.997
c16.667 -22 42.667 -33.002 78 -33.002h6c23.333 0 43.333 4.83301 60 14.5s30 22.167 40 37.5c8 12.667 14 26.834 18 42.501s6 30.167 6 43.5c0 28.667 -6.66699 51.334 -20 68.001c-17.333 20.667 -43.333 31 -78 31h-6c-43.333 0 -76 -15.667 -98 -47
c-16.667 -24 -25 -53.667 -25 -89c0 -29.333 6.33301 -52 19 -68zM355.999 610.995l124 164h311l-161 -164h-274z" />
    <glyph glyph-name="ocircumflex" unicode="&#xf4;" horiz-adv-x="899" 
d="M419 -15c-107.333 0 -191.001 14.9971 -251.001 44.9971c-51.333 25.333 -87.666 60.333 -108.999 105c-15.333 32 -23 71.667 -23 119c0 44.667 8 86.334 24 125.001c22.667 56.667 60.667 101.334 114 134.001c67.333 41.333 157.666 62 270.999 62h35
c106 0 190.333 -14.333 253 -43c50.667 -23.333 86.334 -57.333 107.001 -102c14.667 -32.667 22 -72 22 -118c0 -53.333 -6.66699 -97.666 -20 -132.999c-20.667 -57.333 -58 -102 -112 -134c-68 -40 -160.333 -60 -277 -60h-34zM354.999 195.997
c16.667 -22 42.667 -33.002 78 -33.002h6c23.333 0 43.333 4.83301 60 14.5s30 22.167 40 37.5c8 12.667 14 26.834 18 42.501s6 30.167 6 43.5c0 28.667 -6.66699 51.334 -20 68.001c-17.333 20.667 -43.333 31 -78 31h-6c-43.333 0 -76 -15.667 -98 -47
c-16.667 -24 -25 -53.667 -25 -89c0 -29.333 6.33301 -52 19 -68zM682.999 774.995l112 -166h-244l-44 68l-65 -68h-259l168 166h332z" />
    <glyph glyph-name="otilde" unicode="&#xf5;" horiz-adv-x="899" 
d="M419 -15c-107.333 0 -191.001 14.9971 -251.001 44.9971c-51.333 25.333 -87.666 60.333 -108.999 105c-15.333 32 -23 71.667 -23 119c0 44.667 8 86.334 24 125.001c22.667 56.667 60.667 101.334 114 134.001c67.333 41.333 157.666 62 270.999 62h35
c106 0 190.333 -14.333 253 -43c50.667 -23.333 86.334 -57.333 107.001 -102c14.667 -32.667 22 -72 22 -118c0 -53.333 -6.66699 -97.666 -20 -132.999c-20.667 -57.333 -58 -102 -112 -134c-68 -40 -160.333 -60 -277 -60h-34zM354.999 195.997
c16.667 -22 42.667 -33.002 78 -33.002h6c23.333 0 43.333 4.83301 60 14.5s30 22.167 40 37.5c8 12.667 14 26.834 18 42.501s6 30.167 6 43.5c0 28.667 -6.66699 51.334 -20 68.001c-17.333 20.667 -43.333 31 -78 31h-6c-43.333 0 -76 -15.667 -98 -47
c-16.667 -24 -25 -53.667 -25 -89c0 -29.333 6.33301 -52 19 -68zM759.999 817.995l-18.9971 -100.002c-4.66699 -17.333 -9.33398 -32.166 -14.001 -44.499s-11 -22.833 -19 -31.5c-19.333 -22.667 -46.333 -34 -81 -34h-3c-17.333 0 -35 2.66699 -53 8
s-43 14.666 -75 27.999c-14.667 6.66699 -27.834 12.334 -39.501 17.001s-20.5 7 -26.5 7c-6.66699 0 -11.167 -1.83301 -13.5 -5.5s-4.5 -9.83398 -6.5 -18.501l-8 -40h-148l20 100c5.33301 32.667 16.666 58.334 33.999 77.001c20 22 46.667 33 80 33h3
c18.667 0 37.167 -2.66699 55.5 -8s42.5 -14.666 72.5 -27.999c32.667 -15.333 54.667 -23 66 -23c6.66699 0 11.167 1.83301 13.5 5.5s4.5 9.5 6.5 17.5l8 40h147z" />
    <glyph glyph-name="odieresis" unicode="&#xf6;" horiz-adv-x="899" 
d="M419 -15c-107.333 0 -191.001 14.9971 -251.001 44.9971c-51.333 25.333 -87.666 60.333 -108.999 105c-15.333 32 -23 71.667 -23 119c0 44.667 8 86.334 24 125.001c22.667 56.667 60.667 101.334 114 134.001c67.333 41.333 157.666 62 270.999 62h35
c106 0 190.333 -14.333 253 -43c50.667 -23.333 86.334 -57.333 107.001 -102c14.667 -32.667 22 -72 22 -118c0 -53.333 -6.66699 -97.666 -20 -132.999c-20.667 -57.333 -58 -102 -112 -134c-68 -40 -160.333 -60 -277 -60h-34zM354.999 195.997
c16.667 -22 42.667 -33.002 78 -33.002h6c23.333 0 43.333 4.83301 60 14.5s30 22.167 40 37.5c8 12.667 14 26.834 18 42.501s6 30.167 6 43.5c0 28.667 -6.66699 51.334 -20 68.001c-17.333 20.667 -43.333 31 -78 31h-6c-43.333 0 -76 -15.667 -98 -47
c-16.667 -24 -25 -53.667 -25 -89c0 -29.333 6.33301 -52 19 -68zM502.999 762.995l-30 -157h-263l30 157h263zM811.999 762.995l-30 -157h-263l30 157h263z" />
    <glyph glyph-name="ugrave" unicode="&#xf9;" horiz-adv-x="895" 
d="M774 0h-284l18 87c-22.667 -25.333 -50.667 -47 -84 -65c-48 -25.333 -99.333 -38 -154 -38h-9c-39.333 0 -73.333 6.5 -102 19.5s-51.667 31.833 -69 56.5c-24 34.667 -36 78 -36 130c0 22.667 2.66699 48.334 8 77.001l57 293h286l-50 -263c-2 -10 -3 -19.667 -3 -29
c0 -24.667 7.16699 -43.834 21.5 -57.501s35.5 -20.5 63.5 -20.5c58.667 0 95 35.667 109 107l52 263h285zM643 611h-268l-119 164h304z" />
    <glyph glyph-name="uacute" unicode="&#xfa;" horiz-adv-x="895" 
d="M774 0h-284l18 87c-22.667 -25.333 -50.667 -47 -84 -65c-48 -25.333 -99.333 -38 -154 -38h-9c-39.333 0 -73.333 6.5 -102 19.5s-51.667 31.833 -69 56.5c-24 34.667 -36 78 -36 130c0 22.667 2.66699 48.334 8 77.001l57 293h286l-50 -263c-2 -10 -3 -19.667 -3 -29
c0 -24.667 7.16699 -43.834 21.5 -57.501s35.5 -20.5 63.5 -20.5c58.667 0 95 35.667 109 107l52 263h285zM364 611l124 164h311l-161 -164h-274z" />
    <glyph glyph-name="ucircumflex" unicode="&#xfb;" horiz-adv-x="895" 
d="M774 0h-284l18 87c-22.667 -25.333 -50.667 -47 -84 -65c-48 -25.333 -99.333 -38 -154 -38h-9c-39.333 0 -73.333 6.5 -102 19.5s-51.667 31.833 -69 56.5c-24 34.667 -36 78 -36 130c0 22.667 2.66699 48.334 8 77.001l57 293h286l-50 -263c-2 -10 -3 -19.667 -3 -29
c0 -24.667 7.16699 -43.834 21.5 -57.501s35.5 -20.5 63.5 -20.5c58.667 0 95 35.667 109 107l52 263h285zM690 775l112 -166h-244l-44 68l-65 -68h-259l168 166h332z" />
    <glyph glyph-name="udieresis" unicode="&#xfc;" horiz-adv-x="895" 
d="M774 0h-284l18 87c-22.667 -25.333 -50.667 -47 -84 -65c-48 -25.333 -99.333 -38 -154 -38h-9c-39.333 0 -73.333 6.5 -102 19.5s-51.667 31.833 -69 56.5c-24 34.667 -36 78 -36 130c0 22.667 2.66699 48.334 8 77.001l57 293h286l-50 -263c-2 -10 -3 -19.667 -3 -29
c0 -24.667 7.16699 -43.834 21.5 -57.501s35.5 -20.5 63.5 -20.5c58.667 0 95 35.667 109 107l52 263h285zM509 763l-30 -157h-263l30 157h263zM818 763l-30 -157h-263l30 157h263z" />
    <glyph glyph-name="yacute" unicode="&#xfd;" horiz-adv-x="812" 
d="M35 -15l125 -0.000976562c8 0 13.5 1.33301 16.5 4s4.5 6.66699 4.5 12c0 4.66699 -2.33301 17 -7 37l-131 522h304l38 -347l176 347h304l-365 -601c-15.333 -26 -30 -47.667 -44 -65s-29.333 -31.666 -46 -42.999c-37.333 -26 -82 -39 -134 -39h-274zM308 610.999
l124 164h311l-161 -164h-274z" />
    <glyph glyph-name="ydieresis" unicode="&#xff;" horiz-adv-x="812" 
d="M35 -15l125 -0.000976562c8 0 13.5 1.33301 16.5 4s4.5 6.66699 4.5 12c0 4.66699 -2.33301 17 -7 37l-131 522h304l38 -347l176 347h304l-365 -601c-15.333 -26 -30 -47.667 -44 -65s-29.333 -31.666 -46 -42.999c-37.333 -26 -82 -39 -134 -39h-274zM459 762.999
l-30 -157h-263l30 157h263zM768 762.999l-30 -157h-263l30 157h263z" />
    <glyph glyph-name="Amacron" unicode="&#x100;" horiz-adv-x="1055" 
d="M717 0l-29 113h-366l-71 -113h-312l484 744h386l211 -744h-303zM640 297l-59 227l-143 -227h202zM400 803l28 141h445l-28 -141h-445z" />
    <glyph glyph-name="amacron" unicode="&#x101;" horiz-adv-x="848" 
d="M69 375c3.33301 26 9.83398 49.9971 19.501 71.9971s26.167 42 49.5 60c59.333 45.333 156.333 68 291 68h33c143.333 0 240 -21.667 290 -65c29.333 -26 44 -59 44 -99c0 -8.66699 -1.33301 -21.667 -4 -39l-32 -161v-6c0 -8.66699 4.33301 -13 13 -13h37l-38 -192h-222
c-24.667 0 -45.334 7.66699 -62.001 23c-12.667 10.667 -21.334 25 -26.001 43c-16 -18 -36.333 -33.333 -61 -46c-41.333 -21.333 -90.333 -32 -147 -32h-17c-69.333 0 -123.5 14.5 -162.5 43.5s-58.5 69.5 -58.5 121.5c0 58.667 18.333 102.334 55 131.001
c45.333 36 120.333 55.667 225 59l174 7c15.333 0.666992 26.5 3.83398 33.5 9.50098s10.5 13.834 10.5 24.501c0 13.333 -5 23.333 -15 30c-11.333 7.33301 -32 11 -62 11h-4c-33.333 0 -57 -6.33301 -71 -19c-9.33301 -8.66699 -14.666 -19 -15.999 -31h-277z
M448.001 164.997c18.667 16.667 30.667 38.333 36 65l4 19l-94 -14c-40 -6.66699 -66.333 -14 -79 -22c-7.33301 -4 -12.333 -8.83301 -15 -14.5s-4 -12.5 -4 -20.5c0 -28.667 22.667 -43 68 -43c34 0 62 10 84 30zM251.001 615.996l28 141h444l-28 -141h-444z" />
    <glyph glyph-name="Abreve" unicode="&#x102;" horiz-adv-x="1055" 
d="M717 0l-29 113h-366l-71 -113h-312l484 744h386l211 -744h-303zM640 297l-59 227l-143 -227h202zM424 860c-23.333 28.667 -34.999 63.334 -34.999 104.001l1 17h182c0 -4.66699 0.333008 -10.334 1 -17.001s2.66699 -12.667 6 -18c8 -15.333 23.667 -23 47 -23h2
c22 0 39 7.33301 51 22c9.33301 11.333 14.666 23.333 15.999 36h180c-2 -20 -7.16699 -40.667 -15.5 -62s-20.833 -41 -37.5 -59c-44 -47.333 -106.667 -71 -188 -71h-14c-92.667 0 -158 23.667 -196 71z" />
    <glyph glyph-name="abreve" unicode="&#x103;" horiz-adv-x="848" 
d="M69 375c3.33301 26 9.83398 49.9971 19.501 71.9971s26.167 42 49.5 60c59.333 45.333 156.333 68 291 68h33c143.333 0 240 -21.667 290 -65c29.333 -26 44 -59 44 -99c0 -8.66699 -1.33301 -21.667 -4 -39l-32 -161v-6c0 -8.66699 4.33301 -13 13 -13h37l-38 -192h-222
c-24.667 0 -45.334 7.66699 -62.001 23c-12.667 10.667 -21.334 25 -26.001 43c-16 -18 -36.333 -33.333 -61 -46c-41.333 -21.333 -90.333 -32 -147 -32h-17c-69.333 0 -123.5 14.5 -162.5 43.5s-58.5 69.5 -58.5 121.5c0 58.667 18.333 102.334 55 131.001
c45.333 36 120.333 55.667 225 59l174 7c15.333 0.666992 26.5 3.83398 33.5 9.50098s10.5 13.834 10.5 24.501c0 13.333 -5 23.333 -15 30c-11.333 7.33301 -32 11 -62 11h-4c-33.333 0 -57 -6.33301 -71 -19c-9.33301 -8.66699 -14.666 -19 -15.999 -31h-277z
M448.001 164.997c18.667 16.667 30.667 38.333 36 65l4 19l-94 -14c-40 -6.66699 -66.333 -14 -79 -22c-7.33301 -4 -12.333 -8.83301 -15 -14.5s-4 -12.5 -4 -20.5c0 -28.667 22.667 -43 68 -43c34 0 62 10 84 30zM283.001 678.996c-22.667 28 -34 62.6689 -34 104.002
c0 8.66699 0.333008 15 1 19h182v-18c0 -16.667 6.66699 -28.667 20 -36c6.66699 -4.66699 17 -7 31 -7h2c21.333 0 37.666 8 48.999 24c8.66699 11.333 13.667 23.666 15 36.999h182c-2 -20.667 -7 -41.834 -15 -63.501s-20.333 -41.5 -37 -59.5
c-43.333 -48 -105.666 -72 -186.999 -72h-14c-92.667 0 -157.667 24 -195 72z" />
    <glyph glyph-name="Aogonek" unicode="&#x104;" horiz-adv-x="1055" 
d="M717 0l-29 113h-366l-71 -113h-312l484 744h386l211 -744h-303zM640 297l-59 227l-143 -227h202zM687.5 -86.5c5.66699 10.333 15.833 20.1689 30.5 29.502c31.333 20.667 93 39.667 185 57h117c-30 -12.667 -51 -23.667 -63 -33
c-12.667 -8.66699 -19 -17.334 -19 -26.001c0 -12 11.667 -18 35 -18h31l-22 -111h-186c-78 0 -117 22 -117 66c0 13.333 2.83301 25.166 8.5 35.499z" />
    <glyph glyph-name="aogonek" unicode="&#x105;" horiz-adv-x="848" 
d="M690 -59c0 -12 11.667 -18 35 -18h31l-22 -111h-186c-78 0 -117 22 -117 66c0 13.333 2.83301 25.166 8.5 35.499s15.834 20.166 30.501 29.499c31.333 20.667 93 39.667 185 57h-105c-24.667 0 -45.334 7.66699 -62.001 23c-12.667 10.667 -21.334 25 -26.001 43
c-16 -18 -36.333 -33.333 -61 -46c-41.333 -21.333 -90.333 -32 -147 -32h-17c-69.333 0 -123.5 14.5 -162.5 43.5s-58.5 69.5 -58.5 121.5c0 58.667 18.333 102.334 55 131.001c45.333 36 120.333 55.667 225 59l174 7c15.333 0.666992 26.5 3.83398 33.5 9.50098
s10.5 13.834 10.5 24.501c0 13.333 -5 23.333 -15 30c-11.333 7.33301 -32 11 -62 11h-4c-33.333 0 -57 -6.33301 -71 -19c-9.33301 -8.66699 -14.666 -19 -15.999 -31h-277c3.33301 26 9.83301 50 19.5 72s26.167 42 49.5 60c59.333 45.333 156.333 68 291 68h33
c143.333 0 240 -21.667 290 -65c29.333 -26 44 -59 44 -99c0 -8.66699 -1.33301 -21.667 -4 -39l-32 -161v-6c0 -8.66699 4.33301 -13 13 -13h37l-38 -192c-30 -13.333 -51 -24.333 -63 -33c-12.667 -8.66699 -19 -17.334 -19 -26.001zM488 249l-94 -14.001
c-40 -6.66699 -66.333 -14 -79 -22c-7.33301 -4 -12.333 -8.83301 -15 -14.5s-4 -12.5 -4 -20.5c0 -28.667 22.667 -43 68 -43c34 0 62 10 84 30c18.667 16.667 30.667 38.334 36 65.001z" />
    <glyph glyph-name="Cacute" unicode="&#x106;" horiz-adv-x="1086" 
d="M929 702c64 -30 107.333 -71.9971 130 -125.997c11.333 -28 17 -60 17 -96c0 -16 -1 -31.667 -3 -47h-311c0 25.333 -7.66699 46 -23 62c-30 30 -82 45 -156 45c-80.667 0 -137.667 -23.667 -171 -71c-24 -33.333 -36 -73.666 -36 -120.999
c0 -38.667 10.667 -69.667 32 -93c26.667 -31.333 71.667 -47 135 -47c70 0 123.333 15.667 160 47c14 12.667 23.333 24.334 28 35.001c2 3.33301 4.66699 10.666 8 21.999h311c-9.33301 -58.667 -24.333 -106.334 -45 -143.001c-32.667 -56 -79.334 -98.333 -140.001 -127
c-78 -36.667 -178 -55 -300 -55h-44c-122 0 -219.667 18.667 -293 56c-62 31.333 -106.333 75.666 -133 132.999c-21.333 44.667 -32 98.667 -32 162s11.667 121.666 35 174.999c31.333 71.333 80 127.666 146 168.999c80.667 50 186.334 75 317.001 75h44
c136 0 244 -18.333 324 -55zM751 794.003h-273l117 161h309z" />
    <glyph glyph-name="cacute" unicode="&#x107;" horiz-adv-x="875" 
d="M831 240c-6.66699 -38 -17.0039 -70.3301 -31.0039 -96.9971c-25.333 -45.333 -61.666 -81 -108.999 -107c-63.333 -34 -144.666 -51 -243.999 -51h-49c-137.333 0 -235.333 28.667 -294 86c-45.333 43.333 -68 102.666 -68 177.999c0 54.667 9.66699 103.667 29 147
c24.667 54 64.334 96 119.001 126c65.333 35.333 150.333 53 255 53h36c114.667 0 202.334 -14.667 263.001 -44c50.667 -24 84 -57 100 -99c8 -20.667 12 -43.334 12 -68.001c0 -8 -0.666992 -18.667 -2 -32h-297c0 16 -5 29.667 -15 41c-15.333 16.667 -40.333 25 -75 25
h-8c-39.333 0 -69.666 -15 -90.999 -45c-17.333 -24.667 -26 -56 -26 -94c0 -28.667 6 -51 18 -67c13.333 -18.667 35.333 -28 66 -28h7c34.667 0 62 10 82 30c11.333 11.333 19.666 26.666 24.999 45.999h297zM345.996 611.003l124 164h311l-161 -164h-274z" />
    <glyph glyph-name="Ccircumflex" unicode="&#x108;" horiz-adv-x="1086" 
d="M929 702c64 -30 107.333 -71.9971 130 -125.997c11.333 -28 17 -60 17 -96c0 -16 -1 -31.667 -3 -47h-311c0 25.333 -7.66699 46 -23 62c-30 30 -82 45 -156 45c-80.667 0 -137.667 -23.667 -171 -71c-24 -33.333 -36 -73.666 -36 -120.999
c0 -38.667 10.667 -69.667 32 -93c26.667 -31.333 71.667 -47 135 -47c70 0 123.333 15.667 160 47c14 12.667 23.333 24.334 28 35.001c2 3.33301 4.66699 10.666 8 21.999h311c-9.33301 -58.667 -24.333 -106.334 -45 -143.001c-32.667 -56 -79.334 -98.333 -140.001 -127
c-78 -36.667 -178 -55 -300 -55h-44c-122 0 -219.667 18.667 -293 56c-62 31.333 -106.333 75.666 -133 132.999c-21.333 44.667 -32 98.667 -32 162s11.667 121.666 35 174.999c31.333 71.333 80 127.666 146 168.999c80.667 50 186.334 75 317.001 75h44
c136 0 244 -18.333 324 -55zM795 955.003l117 -163h-244l-45 68l-69 -68h-259l172 163h328z" />
    <glyph glyph-name="ccircumflex" unicode="&#x109;" horiz-adv-x="875" 
d="M831 240c-6.66699 -38 -17.0039 -70.3301 -31.0039 -96.9971c-25.333 -45.333 -61.666 -81 -108.999 -107c-63.333 -34 -144.666 -51 -243.999 -51h-49c-137.333 0 -235.333 28.667 -294 86c-45.333 43.333 -68 102.666 -68 177.999c0 54.667 9.66699 103.667 29 147
c24.667 54 64.334 96 119.001 126c65.333 35.333 150.333 53 255 53h36c114.667 0 202.334 -14.667 263.001 -44c50.667 -24 84 -57 100 -99c8 -20.667 12 -43.334 12 -68.001c0 -8 -0.666992 -18.667 -2 -32h-297c0 16 -5 29.667 -15 41c-15.333 16.667 -40.333 25 -75 25
h-8c-39.333 0 -69.666 -15 -90.999 -45c-17.333 -24.667 -26 -56 -26 -94c0 -28.667 6 -51 18 -67c13.333 -18.667 35.333 -28 66 -28h7c34.667 0 62 10 82 30c11.333 11.333 19.666 26.666 24.999 45.999h297zM672.996 775.003l112 -166h-244l-44 68l-65 -68h-259l168 166
h332z" />
    <glyph glyph-name="Cdotaccent" unicode="&#x10a;" horiz-adv-x="1086" 
d="M929 702c64 -30 107.333 -71.9971 130 -125.997c11.333 -28 17 -60 17 -96c0 -16 -1 -31.667 -3 -47h-311c0 25.333 -7.66699 46 -23 62c-30 30 -82 45 -156 45c-80.667 0 -137.667 -23.667 -171 -71c-24 -33.333 -36 -73.666 -36 -120.999
c0 -38.667 10.667 -69.667 32 -93c26.667 -31.333 71.667 -47 135 -47c70 0 123.333 15.667 160 47c14 12.667 23.333 24.334 28 35.001c2 3.33301 4.66699 10.666 8 21.999h311c-9.33301 -58.667 -24.333 -106.334 -45 -143.001c-32.667 -56 -79.334 -98.333 -140.001 -127
c-78 -36.667 -178 -55 -300 -55h-44c-122 0 -219.667 18.667 -293 56c-62 31.333 -106.333 75.666 -133 132.999c-21.333 44.667 -32 98.667 -32 162s11.667 121.666 35 174.999c31.333 71.333 80 127.666 146 168.999c80.667 50 186.334 75 317.001 75h44
c136 0 244 -18.333 324 -55zM793 951.003l-30 -157h-285l30 157h285z" />
    <glyph glyph-name="cdotaccent" unicode="&#x10b;" horiz-adv-x="875" 
d="M831 240c-6.66699 -38 -17.0039 -70.3301 -31.0039 -96.9971c-25.333 -45.333 -61.666 -81 -108.999 -107c-63.333 -34 -144.666 -51 -243.999 -51h-49c-137.333 0 -235.333 28.667 -294 86c-45.333 43.333 -68 102.666 -68 177.999c0 54.667 9.66699 103.667 29 147
c24.667 54 64.334 96 119.001 126c65.333 35.333 150.333 53 255 53h36c114.667 0 202.334 -14.667 263.001 -44c50.667 -24 84 -57 100 -99c8 -20.667 12 -43.334 12 -68.001c0 -8 -0.666992 -18.667 -2 -32h-297c0 16 -5 29.667 -15 41c-15.333 16.667 -40.333 25 -75 25
h-8c-39.333 0 -69.666 -15 -90.999 -45c-17.333 -24.667 -26 -56 -26 -94c0 -28.667 6 -51 18 -67c13.333 -18.667 35.333 -28 66 -28h7c34.667 0 62 10 82 30c11.333 11.333 19.666 26.666 24.999 45.999h297zM661.996 763.003l-30 -157h-285l30 157h285z" />
    <glyph glyph-name="Ccaron" unicode="&#x10c;" horiz-adv-x="1086" 
d="M929 702c64 -30 107.333 -71.9971 130 -125.997c11.333 -28 17 -60 17 -96c0 -16 -1 -31.667 -3 -47h-311c0 25.333 -7.66699 46 -23 62c-30 30 -82 45 -156 45c-80.667 0 -137.667 -23.667 -171 -71c-24 -33.333 -36 -73.666 -36 -120.999
c0 -38.667 10.667 -69.667 32 -93c26.667 -31.333 71.667 -47 135 -47c70 0 123.333 15.667 160 47c14 12.667 23.333 24.334 28 35.001c2 3.33301 4.66699 10.666 8 21.999h311c-9.33301 -58.667 -24.333 -106.334 -45 -143.001c-32.667 -56 -79.334 -98.333 -140.001 -127
c-78 -36.667 -178 -55 -300 -55h-44c-122 0 -219.667 18.667 -293 56c-62 31.333 -106.333 75.666 -133 132.999c-21.333 44.667 -32 98.667 -32 162s11.667 121.666 35 174.999c31.333 71.333 80 127.666 146 168.999c80.667 50 186.334 75 317.001 75h44
c136 0 244 -18.333 324 -55zM446 794.003l-117 161h244l45 -67l69 67h259l-172 -161h-328z" />
    <glyph glyph-name="ccaron" unicode="&#x10d;" horiz-adv-x="875" 
d="M831 240c-6.66699 -38 -17.0039 -70.3301 -31.0039 -96.9971c-25.333 -45.333 -61.666 -81 -108.999 -107c-63.333 -34 -144.666 -51 -243.999 -51h-49c-137.333 0 -235.333 28.667 -294 86c-45.333 43.333 -68 102.666 -68 177.999c0 54.667 9.66699 103.667 29 147
c24.667 54 64.334 96 119.001 126c65.333 35.333 150.333 53 255 53h36c114.667 0 202.334 -14.667 263.001 -44c50.667 -24 84 -57 100 -99c8 -20.667 12 -43.334 12 -68.001c0 -8 -0.666992 -18.667 -2 -32h-297c0 16 -5 29.667 -15 41c-15.333 16.667 -40.333 25 -75 25
h-8c-39.333 0 -69.666 -15 -90.999 -45c-17.333 -24.667 -26 -56 -26 -94c0 -28.667 6 -51 18 -67c13.333 -18.667 35.333 -28 66 -28h7c34.667 0 62 10 82 30c11.333 11.333 19.666 26.666 24.999 45.999h297zM311.996 611.003l-112 164h244l44 -67l65 67h259l-168 -164
h-332z" />
    <glyph glyph-name="Emacron" unicode="&#x112;" horiz-adv-x="907" 
d="M170 744h761l-37 -187h-461l-16 -84h447l-38 -191h-446l-18 -93h468l-37 -189h-768zM346 803l28 141h445l-28 -141h-445z" />
    <glyph glyph-name="emacron" unicode="&#x113;" horiz-adv-x="895" 
d="M840 187c-11.333 -54 -39.665 -97.333 -84.998 -130c-66.667 -48 -170 -72 -310 -72h-49c-132 0 -228 28.333 -288 85c-48 45.333 -72 106.666 -72 183.999c0 46.667 9.33301 91.334 28 134.001c23.333 54 62.666 97 117.999 129c66 38.667 152.333 58 259 58h45
c159.333 0 267.333 -31.667 324 -95c34 -38 51 -87 51 -147c0 -23.333 -2.66699 -49.333 -8 -78l-4 -21h-517c3.33301 -30 13.666 -51.833 30.999 -65.5s43 -20.5 77 -20.5c31.333 0 56 5.33301 74 16c10.667 6 19 13.667 25 23h301zM344.001 348h225.999
c0 53.333 -35 80 -105 80c-61.333 0 -101.666 -26.667 -120.999 -80zM272 616l28 141h444l-28 -141h-444z" />
    <glyph glyph-name="Ebreve" unicode="&#x114;" horiz-adv-x="907" 
d="M170 744h761l-37 -187h-461l-16 -84h447l-38 -191h-446l-18 -93h468l-37 -189h-768zM370 860c-23.333 28.667 -34.999 63.334 -34.999 104.001l1 17h182c0 -4.66699 0.333008 -10.334 1 -17.001s2.66699 -12.667 6 -18c8 -15.333 23.667 -23 47 -23h2
c22 0 39 7.33301 51 22c9.33301 11.333 14.666 23.333 15.999 36h180c-2 -20 -7.16699 -40.667 -15.5 -62s-20.833 -41 -37.5 -59c-44 -47.333 -106.667 -71 -188 -71h-14c-92.667 0 -158 23.667 -196 71z" />
    <glyph glyph-name="ebreve" unicode="&#x115;" horiz-adv-x="895" 
d="M840 187c-11.333 -54 -39.665 -97.333 -84.998 -130c-66.667 -48 -170 -72 -310 -72h-49c-132 0 -228 28.333 -288 85c-48 45.333 -72 106.666 -72 183.999c0 46.667 9.33301 91.334 28 134.001c23.333 54 62.666 97 117.999 129c66 38.667 152.333 58 259 58h45
c159.333 0 267.333 -31.667 324 -95c34 -38 51 -87 51 -147c0 -23.333 -2.66699 -49.333 -8 -78l-4 -21h-517c3.33301 -30 13.666 -51.833 30.999 -65.5s43 -20.5 77 -20.5c31.333 0 56 5.33301 74 16c10.667 6 19 13.667 25 23h301zM344.001 348h225.999
c0 53.333 -35 80 -105 80c-61.333 0 -101.666 -26.667 -120.999 -80zM304 679c-22.667 28 -34 62.6689 -34 104.002c0 8.66699 0.333008 15 1 19h182v-18c0 -16.667 6.66699 -28.667 20 -36c6.66699 -4.66699 17 -7 31 -7h2c21.333 0 37.666 8 48.999 24
c8.66699 11.333 13.667 23.666 15 36.999h182c-2 -20.667 -7 -41.834 -15 -63.501s-20.333 -41.5 -37 -59.5c-43.333 -48 -105.666 -72 -186.999 -72h-14c-92.667 0 -157.667 24 -195 72z" />
    <glyph glyph-name="Edotaccent" unicode="&#x116;" horiz-adv-x="907" 
d="M170 744h761l-37 -187h-461l-16 -84h447l-38 -191h-446l-18 -93h468l-37 -189h-768zM738 951l-30 -157h-285l30 157h285z" />
    <glyph glyph-name="edotaccent" unicode="&#x117;" horiz-adv-x="895" 
d="M840 187c-11.333 -54 -39.665 -97.333 -84.998 -130c-66.667 -48 -170 -72 -310 -72h-49c-132 0 -228 28.333 -288 85c-48 45.333 -72 106.666 -72 183.999c0 46.667 9.33301 91.334 28 134.001c23.333 54 62.666 97 117.999 129c66 38.667 152.333 58 259 58h45
c159.333 0 267.333 -31.667 324 -95c34 -38 51 -87 51 -147c0 -23.333 -2.66699 -49.333 -8 -78l-4 -21h-517c3.33301 -30 13.666 -51.833 30.999 -65.5s43 -20.5 77 -20.5c31.333 0 56 5.33301 74 16c10.667 6 19 13.667 25 23h301zM344.001 348h225.999
c0 53.333 -35 80 -105 80c-61.333 0 -101.666 -26.667 -120.999 -80zM666 763l-30 -157h-285l30 157h285z" />
    <glyph glyph-name="Eogonek" unicode="&#x118;" horiz-adv-x="907" 
d="M170 744h761l-37 -187h-461l-16 -84h447l-38 -191h-446l-18 -93h468l-37 -189h-768zM367.5 -86.5c5.66699 10.333 15.833 20.1689 30.5 29.502c31.333 20.667 93 39.667 185 57h117c-30 -12.667 -51 -23.667 -63 -33c-12.667 -8.66699 -19 -17.334 -19 -26.001
c0 -12 11.667 -18 35 -18h31l-22 -111h-186c-78 0 -117 22 -117 66c0 13.333 2.83301 25.166 8.5 35.499z" />
    <glyph glyph-name="eogonek" unicode="&#x119;" horiz-adv-x="895" 
d="M628 -190l-187.998 -0.000976562c-79.333 0 -119 21.667 -119 65c0 12 2.33301 22.833 7 32.5s13.334 19.167 26.001 28.5c28 19.333 80.333 37 157 53c-28 -1.33301 -50 -2 -66 -2h-49c-132 0 -228 28.333 -288 85c-48 45.333 -72 106.666 -72 183.999
c0 46.667 9.33301 91.334 28 134.001c23.333 54 62.666 97 117.999 129c66 38.667 152.333 58 259 58h45c159.333 0 267.333 -31.667 324 -95c34 -38 51 -87 51 -147c0 -23.333 -2.66699 -49.333 -8 -78l-4 -21h-517c3.33301 -30 13.666 -51.833 30.999 -65.5
s43 -20.5 77 -20.5c31.333 0 56 5.33301 74 16c10.667 6 19 13.667 25 23h301c-4.66699 -17.333 -9.83398 -32.833 -15.501 -46.5s-14.167 -27.5 -25.5 -41.5c-28 -35.333 -70.667 -66.666 -128 -93.999c-36.667 -17.333 -59 -29 -67 -35c-14 -9.33301 -21 -19 -21 -29
c0 -14 12 -21 36 -21h31zM344.002 349.999h225.999c0 53.333 -35 80 -105 80c-61.333 0 -101.666 -26.667 -120.999 -80z" />
    <glyph glyph-name="Ecaron" unicode="&#x11a;" horiz-adv-x="907" 
d="M170 744h761l-37 -187h-461l-16 -84h447l-38 -191h-446l-18 -93h468l-37 -189h-768zM391 794l-117 161h244l45 -67l69 67h259l-172 -161h-328z" />
    <glyph glyph-name="ecaron" unicode="&#x11b;" horiz-adv-x="895" 
d="M840 187c-11.333 -54 -39.665 -97.333 -84.998 -130c-66.667 -48 -170 -72 -310 -72h-49c-132 0 -228 28.333 -288 85c-48 45.333 -72 106.666 -72 183.999c0 46.667 9.33301 91.334 28 134.001c23.333 54 62.666 97 117.999 129c66 38.667 152.333 58 259 58h45
c159.333 0 267.333 -31.667 324 -95c34 -38 51 -87 51 -147c0 -23.333 -2.66699 -49.333 -8 -78l-4 -21h-517c3.33301 -30 13.666 -51.833 30.999 -65.5s43 -20.5 77 -20.5c31.333 0 56 5.33301 74 16c10.667 6 19 13.667 25 23h301zM344.001 348h225.999
c0 53.333 -35 80 -105 80c-61.333 0 -101.666 -26.667 -120.999 -80zM316 611l-112 164h244l44 -67l65 67h259l-168 -164h-332z" />
    <glyph glyph-name="Gcircumflex" unicode="&#x11c;" horiz-adv-x="1126" 
d="M697 233c14 7.33301 24.8311 15.499 32.498 24.499s12.834 17.167 15.501 24.5h-217l28 140h531l-82 -422h-201c-4.66699 42.667 -10.667 73 -18 91c-28 -26.667 -58.667 -47.667 -92 -63c-59.333 -27.333 -128.333 -41 -207 -41h-18
c-135.333 0 -238.333 33.667 -309 101c-32.667 30.667 -57 67.167 -73 109.5s-24 88.833 -24 139.5c0 72 14.333 136.667 43 194c34.667 68.667 87.334 122 158.001 160c84 44.667 190.333 67 319 67h34c130.667 0 235.334 -16 314.001 -48
c62.667 -25.333 107.334 -62.666 134.001 -111.999c17.333 -32 26 -67.333 26 -106c0 -8.66699 -0.333008 -15.334 -1 -20.001h-314c-2.66699 8.66699 -6.16699 16.334 -10.5 23.001s-11.5 13.334 -21.5 20.001c-30 18.667 -78 28 -144 28
c-84.667 0 -146.334 -22.667 -185.001 -68c-28 -34 -42 -76.333 -42 -127c0 -42.667 12.333 -76.334 37 -101.001c29.333 -30.667 75.666 -46 138.999 -46c60 0 109.333 10.667 148 32zM811.998 954.999l117 -163h-244l-45 68l-69 -68h-259l172 163h328z" />
    <glyph glyph-name="gcircumflex" unicode="&#x11d;" horiz-adv-x="915" 
d="M335 -12c1.33301 -7.33301 6.66797 -12.999 16.001 -16.999c13.333 -6 32.666 -9 57.999 -9h6c57.333 0 92.333 31 105 93l6 30c-14 -14 -36 -27.333 -66 -40c-40.667 -17.333 -87 -26 -139 -26h-13c-88 0 -155.167 23 -201.5 69s-69.5 110 -69.5 192
c0 38.667 7.16699 75.667 21.5 111s35.166 66.333 62.499 93c61.333 59.333 146.333 89 255 89h10c59.333 0 111.333 -9.33301 156 -28c15.333 -6.66699 29.666 -14.334 42.999 -23.001c5.33301 -3.33301 9.83301 -6.5 13.5 -9.5s6.83398 -5.16699 9.50098 -6.5l10 54h286
l-97 -497c-8 -42 -20 -78.833 -36 -110.5s-38.333 -58.5 -67 -80.5c-64.667 -50.667 -164 -76 -298 -76h-26c-103.333 0 -184.666 11 -243.999 33c-49.333 18 -83 43.333 -101 76c-13.333 22 -20 49.667 -20 83h320zM463.002 400.001c-40 0 -71 -12.667 -93 -38
c-19.333 -22 -29 -49 -29 -81c0 -26 7.33301 -47.333 22 -64c16.667 -20 42 -30 76 -30h6c44.667 0 77.667 14.667 99 44c16 21.333 24 47.333 24 78c0 24.667 -7 45 -21 61c-17.333 20 -43.333 30 -78 30h-6zM684.002 775.001l112 -166h-244l-44 68l-65 -68h-259l168 166
h332z" />
    <glyph glyph-name="Gbreve" unicode="&#x11e;" horiz-adv-x="1126" 
d="M697 233c14 7.33301 24.8311 15.499 32.498 24.499s12.834 17.167 15.501 24.5h-217l28 140h531l-82 -422h-201c-4.66699 42.667 -10.667 73 -18 91c-28 -26.667 -58.667 -47.667 -92 -63c-59.333 -27.333 -128.333 -41 -207 -41h-18
c-135.333 0 -238.333 33.667 -309 101c-32.667 30.667 -57 67.167 -73 109.5s-24 88.833 -24 139.5c0 72 14.333 136.667 43 194c34.667 68.667 87.334 122 158.001 160c84 44.667 190.333 67 319 67h34c130.667 0 235.334 -16 314.001 -48
c62.667 -25.333 107.334 -62.666 134.001 -111.999c17.333 -32 26 -67.333 26 -106c0 -8.66699 -0.333008 -15.334 -1 -20.001h-314c-2.66699 8.66699 -6.16699 16.334 -10.5 23.001s-11.5 13.334 -21.5 20.001c-30 18.667 -78 28 -144 28
c-84.667 0 -146.334 -22.667 -185.001 -68c-28 -34 -42 -76.333 -42 -127c0 -42.667 12.333 -76.334 37 -101.001c29.333 -30.667 75.666 -46 138.999 -46c60 0 109.333 10.667 148 32zM446.998 859.999c-23.333 28.667 -34.999 63.334 -34.999 104.001l1 17h182
c0 -4.66699 0.333008 -10.334 1 -17.001s2.66699 -12.667 6 -18c8 -15.333 23.667 -23 47 -23h2c22 0 39 7.33301 51 22c9.33301 11.333 14.666 23.333 15.999 36h180c-2 -20 -7.16699 -40.667 -15.5 -62s-20.833 -41 -37.5 -59c-44 -47.333 -106.667 -71 -188 -71h-14
c-92.667 0 -158 23.667 -196 71z" />
    <glyph glyph-name="gbreve" unicode="&#x11f;" horiz-adv-x="915" 
d="M335 -12c1.33301 -7.33301 6.66797 -12.999 16.001 -16.999c13.333 -6 32.666 -9 57.999 -9h6c57.333 0 92.333 31 105 93l6 30c-14 -14 -36 -27.333 -66 -40c-40.667 -17.333 -87 -26 -139 -26h-13c-88 0 -155.167 23 -201.5 69s-69.5 110 -69.5 192
c0 38.667 7.16699 75.667 21.5 111s35.166 66.333 62.499 93c61.333 59.333 146.333 89 255 89h10c59.333 0 111.333 -9.33301 156 -28c15.333 -6.66699 29.666 -14.334 42.999 -23.001c5.33301 -3.33301 9.83301 -6.5 13.5 -9.5s6.83398 -5.16699 9.50098 -6.5l10 54h286
l-97 -497c-8 -42 -20 -78.833 -36 -110.5s-38.333 -58.5 -67 -80.5c-64.667 -50.667 -164 -76 -298 -76h-26c-103.333 0 -184.666 11 -243.999 33c-49.333 18 -83 43.333 -101 76c-13.333 22 -20 49.667 -20 83h320zM463.002 400.001c-40 0 -71 -12.667 -93 -38
c-19.333 -22 -29 -49 -29 -81c0 -26 7.33301 -47.333 22 -64c16.667 -20 42 -30 76 -30h6c44.667 0 77.667 14.667 99 44c16 21.333 24 47.333 24 78c0 24.667 -7 45 -21 61c-17.333 20 -43.333 30 -78 30h-6zM312.002 679.001c-22.667 28 -34 62.6689 -34 104.002
c0 8.66699 0.333008 15 1 19h182v-18c0 -16.667 6.66699 -28.667 20 -36c6.66699 -4.66699 17 -7 31 -7h2c21.333 0 37.666 8 48.999 24c8.66699 11.333 13.667 23.666 15 36.999h182c-2 -20.667 -7 -41.834 -15 -63.501s-20.333 -41.5 -37 -59.5
c-43.333 -48 -105.666 -72 -186.999 -72h-14c-92.667 0 -157.667 24 -195 72z" />
    <glyph glyph-name="Gdotaccent" unicode="&#x120;" horiz-adv-x="1126" 
d="M697 233c14 7.33301 24.8311 15.499 32.498 24.499s12.834 17.167 15.501 24.5h-217l28 140h531l-82 -422h-201c-4.66699 42.667 -10.667 73 -18 91c-28 -26.667 -58.667 -47.667 -92 -63c-59.333 -27.333 -128.333 -41 -207 -41h-18
c-135.333 0 -238.333 33.667 -309 101c-32.667 30.667 -57 67.167 -73 109.5s-24 88.833 -24 139.5c0 72 14.333 136.667 43 194c34.667 68.667 87.334 122 158.001 160c84 44.667 190.333 67 319 67h34c130.667 0 235.334 -16 314.001 -48
c62.667 -25.333 107.334 -62.666 134.001 -111.999c17.333 -32 26 -67.333 26 -106c0 -8.66699 -0.333008 -15.334 -1 -20.001h-314c-2.66699 8.66699 -6.16699 16.334 -10.5 23.001s-11.5 13.334 -21.5 20.001c-30 18.667 -78 28 -144 28
c-84.667 0 -146.334 -22.667 -185.001 -68c-28 -34 -42 -76.333 -42 -127c0 -42.667 12.333 -76.334 37 -101.001c29.333 -30.667 75.666 -46 138.999 -46c60 0 109.333 10.667 148 32zM809.998 950.999l-30 -157h-285l30 157h285z" />
    <glyph glyph-name="gdotaccent" unicode="&#x121;" horiz-adv-x="915" 
d="M335 -12c1.33301 -7.33301 6.66797 -12.999 16.001 -16.999c13.333 -6 32.666 -9 57.999 -9h6c57.333 0 92.333 31 105 93l6 30c-14 -14 -36 -27.333 -66 -40c-40.667 -17.333 -87 -26 -139 -26h-13c-88 0 -155.167 23 -201.5 69s-69.5 110 -69.5 192
c0 38.667 7.16699 75.667 21.5 111s35.166 66.333 62.499 93c61.333 59.333 146.333 89 255 89h10c59.333 0 111.333 -9.33301 156 -28c15.333 -6.66699 29.666 -14.334 42.999 -23.001c5.33301 -3.33301 9.83301 -6.5 13.5 -9.5s6.83398 -5.16699 9.50098 -6.5l10 54h286
l-97 -497c-8 -42 -20 -78.833 -36 -110.5s-38.333 -58.5 -67 -80.5c-64.667 -50.667 -164 -76 -298 -76h-26c-103.333 0 -184.666 11 -243.999 33c-49.333 18 -83 43.333 -101 76c-13.333 22 -20 49.667 -20 83h320zM463.002 400.001c-40 0 -71 -12.667 -93 -38
c-19.333 -22 -29 -49 -29 -81c0 -26 7.33301 -47.333 22 -64c16.667 -20 42 -30 76 -30h6c44.667 0 77.667 14.667 99 44c16 21.333 24 47.333 24 78c0 24.667 -7 45 -21 61c-17.333 20 -43.333 30 -78 30h-6zM667.002 763.001l-30 -157h-285l30 157h285z" />
    <glyph glyph-name="uni0122" unicode="&#x122;" horiz-adv-x="1126" 
d="M697 233c14 7.33301 24.8311 15.499 32.498 24.499s12.834 17.167 15.501 24.5h-217l28 140h531l-82 -422h-201c-4.66699 42.667 -10.667 73 -18 91c-28 -26.667 -58.667 -47.667 -92 -63c-59.333 -27.333 -128.333 -41 -207 -41h-18
c-135.333 0 -238.333 33.667 -309 101c-32.667 30.667 -57 67.167 -73 109.5s-24 88.833 -24 139.5c0 72 14.333 136.667 43 194c34.667 68.667 87.334 122 158.001 160c84 44.667 190.333 67 319 67h34c130.667 0 235.334 -16 314.001 -48
c62.667 -25.333 107.334 -62.666 134.001 -111.999c17.333 -32 26 -67.333 26 -106c0 -8.66699 -0.333008 -15.334 -1 -20.001h-314c-2.66699 8.66699 -6.16699 16.334 -10.5 23.001s-11.5 13.334 -21.5 20.001c-30 18.667 -78 28 -144 28
c-84.667 0 -146.334 -22.667 -185.001 -68c-28 -34 -42 -76.333 -42 -127c0 -42.667 12.333 -76.334 37 -101.001c29.333 -30.667 75.666 -46 138.999 -46c60 0 109.333 10.667 148 32zM365.998 -298.001c25.333 37.333 42.333 65.666 51 84.999h-125l33 167h297l-22 -116
c-5.33301 -23.333 -14.5 -47.166 -27.5 -71.499s-27.167 -45.833 -42.5 -64.5h-164z" />
    <glyph glyph-name="uni0123" unicode="&#x123;" horiz-adv-x="915" 
d="M335 -12c1.33301 -7.33301 6.66797 -12.999 16.001 -16.999c13.333 -6 32.666 -9 57.999 -9h6c57.333 0 92.333 31 105 93l6 30c-14 -14 -36 -27.333 -66 -40c-40.667 -17.333 -87 -26 -139 -26h-13c-88 0 -155.167 23 -201.5 69s-69.5 110 -69.5 192
c0 38.667 7.16699 75.667 21.5 111s35.166 66.333 62.499 93c61.333 59.333 146.333 89 255 89h10c59.333 0 111.333 -9.33301 156 -28c15.333 -6.66699 29.666 -14.334 42.999 -23.001c5.33301 -3.33301 9.83301 -6.5 13.5 -9.5s6.83398 -5.16699 9.50098 -6.5l10 54h286
l-97 -497c-8 -42 -20 -78.833 -36 -110.5s-38.333 -58.5 -67 -80.5c-64.667 -50.667 -164 -76 -298 -76h-26c-103.333 0 -184.666 11 -243.999 33c-49.333 18 -83 43.333 -101 76c-13.333 22 -20 49.667 -20 83h320zM463.002 400.001c-40 0 -71 -12.667 -93 -38
c-19.333 -22 -29 -49 -29 -81c0 -26 7.33301 -47.333 22 -64c16.667 -20 42 -30 76 -30h6c44.667 0 77.667 14.667 99 44c16 21.333 24 47.333 24 78c0 24.667 -7 45 -21 61c-17.333 20 -43.333 30 -78 30h-6zM608.002 858.001c-25.333 -37.333 -42.333 -65.666 -51 -84.999
h125l-33 -167h-297l22 116c5.33301 23.333 14.5 47.166 27.5 71.499s27.167 45.833 42.5 64.5h164z" />
    <glyph glyph-name="Hcircumflex" unicode="&#x124;" horiz-adv-x="1100" 
d="M25 0l145 744h298l-49 -255h348l49 255h298l-145 -744h-297l53 274h-348l-53 -274h-299zM824 955l117 -163h-244l-45 68l-69 -68h-259l172 163h328z" />
    <glyph glyph-name="hcircumflex" unicode="&#x125;" horiz-adv-x="899" 
d="M548 292c0 24.667 -7.16699 43.833 -21.5 57.5s-36.166 20.5 -65.499 20.5c-32.667 0 -57.667 -9 -75 -27s-29.333 -44.667 -36 -80l-52 -263h-285l147 757h285l-55 -282c22.667 24 51 45 85 63c48 25.333 99.667 38 155 38h9c79.333 0 136.666 -25.333 171.999 -76
c23.333 -33.333 35 -76 35 -128c0 -22.667 -2.66699 -49 -8 -79l-58 -293h-286l51 263c2 10 3 19.667 3 29zM682 977.999l112 -166h-244l-44 68l-65 -68h-259l168 166h332z" />
    <glyph glyph-name="Itilde" unicode="&#x128;" horiz-adv-x="455" 
d="M468 744l-144 -744h-299l145 744h298zM602 1001l-18.998 -97c-5.33301 -31.333 -16.333 -56.666 -33 -75.999c-18.667 -22 -45 -33 -79 -33h-3c-18.667 0 -37.5 2.83301 -56.5 8.5s-43.833 14.5 -74.5 26.5l-42 17c-10.667 4 -19.334 6 -26.001 6
s-11.334 -1.83301 -14.001 -5.5s-5 -9.16699 -7 -16.5l-8 -40h-147l19 97c5.33301 31.333 16.333 56.666 33 75.999c18.667 22 45 33 79 33h3c18.667 0 37.5 -2.83301 56.5 -8.5s43.833 -14.5 74.5 -26.5l43 -17c11.333 -4 19.666 -6 24.999 -6
c6.66699 0 11.334 1.83301 14.001 5.5s5 9.16699 7 16.5l8 40h147z" />
    <glyph glyph-name="itilde" unicode="&#x129;" horiz-adv-x="419" 
d="M534 818l-18.999 -97.999c-6 -32.667 -16.333 -58.334 -31 -77.001c-18.667 -23.333 -44.334 -35 -77.001 -35h-3c-18 0 -35.5 2.66699 -52.5 8s-40.5 14.666 -70.5 27.999c-17.333 8 -30.833 13.833 -40.5 17.5s-17.5 5.5 -23.5 5.5
c-9.33301 0 -15.333 -7.33301 -18 -22l-8 -41h-142l19 98c6 32.667 16.667 58.667 32 78c18 22.667 43.333 34 76 34h3c18 0 35.5 -2.66699 52.5 -8s40.5 -14.666 70.5 -27.999c17.333 -8 30.833 -13.833 40.5 -17.5s17.5 -5.5 23.5 -5.5c9.33301 0 15.333 7.33301 18 22
l8 41h142zM407.001 560.001l-109 -560h-285l109 560h285z" />
    <glyph glyph-name="Imacron" unicode="&#x12a;" horiz-adv-x="455" 
d="M468 744l-144 -744h-299l145 744h298zM109 803l28 141h445l-28 -141h-445z" />
    <glyph glyph-name="imacron" unicode="&#x12b;" horiz-adv-x="419" 
d="M69 616l27 141h405l-27 -141h-405zM407 560l-109 -560h-285l109 560h285z" />
    <glyph glyph-name="Ibreve" unicode="&#x12c;" horiz-adv-x="455" 
d="M468 744l-144 -744h-299l145 744h298zM146 860c-23.333 28.667 -34.999 63.334 -34.999 104.001l1 17h182c0 -4.66699 0.333008 -10.334 1 -17.001s2.66699 -12.667 6 -18c8 -15.333 23.667 -23 47 -23h2c22 0 39 7.33301 51 22c9.33301 11.333 14.666 23.333 15.999 36
h180c-2 -20 -7.16699 -40.667 -15.5 -62s-20.833 -41 -37.5 -59c-44 -47.333 -106.667 -71 -188 -71h-14c-92.667 0 -158 23.667 -196 71z" />
    <glyph glyph-name="ibreve" unicode="&#x12d;" horiz-adv-x="419" 
d="M292 607c-88 0 -148.668 23.9971 -182.001 71.9971c-20 28 -30 61.333 -30 100c0 10.667 0.333008 18.334 1 23.001h173v-10c0 -11.333 1.66699 -20.666 5 -27.999c7.33301 -15.333 20.333 -23 39 -23h2c20 0 35.333 7.66699 46 23c6 8.66699 11.333 21.334 16 38.001
h174c-5.33301 -48.667 -22.666 -89.667 -51.999 -123c-42 -48 -101.333 -72 -178 -72h-14zM406.999 559.997l-109 -560h-285l109 560h285z" />
    <glyph glyph-name="Iogonek" unicode="&#x12e;" horiz-adv-x="455" 
d="M468 744l-144 -744h-299l145 744h298zM-8.5 -86.5c5.66699 10.333 15.833 20.1689 30.5 29.502c31.333 20.667 93 39.667 185 57h117c-30 -12.667 -51 -23.667 -63 -33c-12.667 -8.66699 -19 -17.334 -19 -26.001c0 -12 11.667 -18 35 -18h31l-22 -111h-186
c-78 0 -117 22 -117 66c0 13.333 2.83301 25.166 8.5 35.499z" />
    <glyph glyph-name="iogonek" unicode="&#x12f;" horiz-adv-x="419" 
d="M446 763l-30 -157h-285l30 157h285zM407 560l-109 -560h-285l109 560h285zM-34.5 -86.5c5.66699 10.333 15.833 20.1689 30.5 29.502c31.333 20.667 93 39.667 185 57h117c-30 -12.667 -51 -23.667 -63 -33c-12.667 -8.66699 -19 -17.334 -19 -26.001
c0 -12 11.667 -18 35 -18h31l-22 -111h-186c-78 0 -117 22 -117 66c0 13.333 2.83301 25.166 8.5 35.499z" />
    <glyph glyph-name="Idotaccent" unicode="&#x130;" horiz-adv-x="455" 
d="M468 744l-144 -744h-299l145 744h298zM501 951l-30 -157h-285l30 157h285z" />
    <glyph glyph-name="dotlessi" unicode="&#x131;" horiz-adv-x="419" 
d="M407 560l-109 -560h-285l109 560h285z" />
    <glyph glyph-name="uni0136" unicode="&#x136;" horiz-adv-x="1000" 
d="M323 0h-298l145 744h297l-53 -275l314 275h355l-411 -351l295 -393h-350l-232 322zM357 -298c25.333 37.333 42.333 65.666 51 84.999h-125l33 167h297l-22 -116c-5.33301 -23.333 -14.5 -47.166 -27.5 -71.499s-27.167 -45.833 -42.5 -64.5h-164z" />
    <glyph glyph-name="uni0137" unicode="&#x137;" horiz-adv-x="814" 
d="M298 0h-285l147 757h285l-77 -396l178 199h308l-246 -260l162 -300h-305l-121 237zM276 -298c25.333 37.333 42.333 65.666 51 84.999h-125l33 167h297l-22 -116c-5.33301 -23.333 -14.5 -47.166 -27.5 -71.499s-27.167 -45.833 -42.5 -64.5h-164z" />
    <glyph glyph-name="Lacute" unicode="&#x139;" horiz-adv-x="855" 
d="M170 744h298l-99 -515h430l-45 -229h-729zM460 794h-273l117 161h309z" />
    <glyph glyph-name="lacute" unicode="&#x13a;" horiz-adv-x="419" 
d="M445 757l-147 -757h-285l147 757h285zM444 807h-273l117 161h309z" />
    <glyph glyph-name="uni013B" unicode="&#x13b;" horiz-adv-x="855" 
d="M170 744h298l-99 -515h430l-45 -229h-729zM296 -298c25.333 37.333 42.333 65.666 51 84.999h-125l33 167h297l-22 -116c-5.33301 -23.333 -14.5 -47.166 -27.5 -71.499s-27.167 -45.833 -42.5 -64.5h-164z" />
    <glyph glyph-name="uni013C" unicode="&#x13c;" horiz-adv-x="419" 
d="M445 757l-147 -757h-285l147 757h285zM44 -298c25.333 37.333 42.333 65.666 51 84.999h-125l33 167h297l-22 -116c-5.33301 -23.333 -14.5 -47.166 -27.5 -71.499s-27.167 -45.833 -42.5 -64.5h-164z" />
    <glyph glyph-name="Nacute" unicode="&#x143;" horiz-adv-x="1125" 
d="M709 0l-311 417l-81 -417h-292l145 744h303l296 -398l78 398h291l-145 -744h-284zM793 794h-273l117 161h309z" />
    <glyph glyph-name="nacute" unicode="&#x144;" horiz-adv-x="899" 
d="M122 560l283 -0.000976562l-17 -87c22.667 25.333 51.667 47.333 87 66c49.333 24.667 101 37 155 37h9c79.333 0 136.666 -25.333 171.999 -76c23.333 -33.333 35 -76 35 -128c0 -22.667 -2.66699 -49 -8 -79l-58 -293h-286l51 263c2 10 3 19.667 3 29
c0 24.667 -7.16699 43.834 -21.5 57.501s-36.166 20.5 -65.499 20.5c-32.667 0 -57.667 -9 -75 -27s-29.333 -44.667 -36 -80l-52 -263h-285zM356 610.999l124 164h311l-161 -164h-274z" />
    <glyph glyph-name="uni0145" unicode="&#x145;" horiz-adv-x="1125" 
d="M709 0l-311 417l-81 -417h-292l145 744h303l296 -398l78 398h291l-145 -744h-284zM397 -298c25.333 37.333 42.333 65.666 51 84.999h-125l33 167h297l-22 -116c-5.33301 -23.333 -14.5 -47.166 -27.5 -71.499s-27.167 -45.833 -42.5 -64.5h-164z" />
    <glyph glyph-name="uni0146" unicode="&#x146;" horiz-adv-x="899" 
d="M122 560l283 -0.000976562l-17 -87c22.667 25.333 51.667 47.333 87 66c49.333 24.667 101 37 155 37h9c79.333 0 136.666 -25.333 171.999 -76c23.333 -33.333 35 -76 35 -128c0 -22.667 -2.66699 -49 -8 -79l-58 -293h-286l51 263c2 10 3 19.667 3 29
c0 24.667 -7.16699 43.834 -21.5 57.501s-36.166 20.5 -65.499 20.5c-32.667 0 -57.667 -9 -75 -27s-29.333 -44.667 -36 -80l-52 -263h-285zM286 -298.001c25.333 37.333 42.333 65.666 51 84.999h-125l33 167h297l-22 -116c-5.33301 -23.333 -14.5 -47.166 -27.5 -71.499
s-27.167 -45.833 -42.5 -64.5h-164z" />
    <glyph glyph-name="Ncaron" unicode="&#x147;" horiz-adv-x="1125" 
d="M709 0l-311 417l-81 -417h-292l145 744h303l296 -398l78 398h291l-145 -744h-284zM488 794l-117 161h244l45 -67l69 67h259l-172 -161h-328z" />
    <glyph glyph-name="ncaron" unicode="&#x148;" horiz-adv-x="899" 
d="M122 560l283 -0.000976562l-17 -87c22.667 25.333 51.667 47.333 87 66c49.333 24.667 101 37 155 37h9c79.333 0 136.666 -25.333 171.999 -76c23.333 -33.333 35 -76 35 -128c0 -22.667 -2.66699 -49 -8 -79l-58 -293h-286l51 263c2 10 3 19.667 3 29
c0 24.667 -7.16699 43.834 -21.5 57.501s-36.166 20.5 -65.499 20.5c-32.667 0 -57.667 -9 -75 -27s-29.333 -44.667 -36 -80l-52 -263h-285zM323 610.999l-112 164h244l44 -67l65 67h259l-168 -164h-332z" />
    <glyph glyph-name="Omacron" unicode="&#x14c;" horiz-adv-x="1108" 
d="M617 757c122.667 0 221.333 -18.998 296 -56.998c64 -32 109.667 -76.333 137 -133c22 -46 33 -97.333 33 -154c0 -67.333 -11.667 -128.333 -35 -183c-32 -72.667 -81.333 -129 -148 -169c-83.333 -49.333 -191.666 -74 -324.999 -74h-45
c-123.333 0 -222 19.333 -296 58c-64 33.333 -109.667 78.666 -137 135.999c-22 44.667 -33 96 -33 154c0 67.333 12 127.666 36 180.999c31.333 72 80.666 128 147.999 168c82.667 48.667 190.667 73 324 73h45zM738.999 494.002c-29.333 30.667 -77.667 46 -145 46
c-86.667 0 -148 -25.333 -184 -76c-22.667 -32 -34 -71.667 -34 -119c0 -36.667 11.333 -66.667 34 -90c29.333 -31.333 77.333 -47 144 -47c88 0 149.667 25 185 75c22 31.333 33 71.333 33 120c0 36.667 -11 67 -33 91zM400.998 803.002l28 141h445l-28 -141h-445z" />
    <glyph glyph-name="omacron" unicode="&#x14d;" horiz-adv-x="899" 
d="M419 -15c-107.333 0 -191.001 14.9971 -251.001 44.9971c-51.333 25.333 -87.666 60.333 -108.999 105c-15.333 32 -23 71.667 -23 119c0 44.667 8 86.334 24 125.001c22.667 56.667 60.667 101.334 114 134.001c67.333 41.333 157.666 62 270.999 62h35
c106 0 190.333 -14.333 253 -43c50.667 -23.333 86.334 -57.333 107.001 -102c14.667 -32.667 22 -72 22 -118c0 -53.333 -6.66699 -97.666 -20 -132.999c-20.667 -57.333 -58 -102 -112 -134c-68 -40 -160.333 -60 -277 -60h-34zM354.999 195.997
c16.667 -22 42.667 -33.002 78 -33.002h6c23.333 0 43.333 4.83301 60 14.5s30 22.167 40 37.5c8 12.667 14 26.834 18 42.501s6 30.167 6 43.5c0 28.667 -6.66699 51.334 -20 68.001c-17.333 20.667 -43.333 31 -78 31h-6c-43.333 0 -76 -15.667 -98 -47
c-16.667 -24 -25 -53.667 -25 -89c0 -29.333 6.33301 -52 19 -68zM277.999 615.995l28 141h444l-28 -141h-444z" />
    <glyph glyph-name="Obreve" unicode="&#x14e;" horiz-adv-x="1108" 
d="M617 757c122.667 0 221.333 -18.998 296 -56.998c64 -32 109.667 -76.333 137 -133c22 -46 33 -97.333 33 -154c0 -67.333 -11.667 -128.333 -35 -183c-32 -72.667 -81.333 -129 -148 -169c-83.333 -49.333 -191.666 -74 -324.999 -74h-45
c-123.333 0 -222 19.333 -296 58c-64 33.333 -109.667 78.666 -137 135.999c-22 44.667 -33 96 -33 154c0 67.333 12 127.666 36 180.999c31.333 72 80.666 128 147.999 168c82.667 48.667 190.667 73 324 73h45zM738.999 494.002c-29.333 30.667 -77.667 46 -145 46
c-86.667 0 -148 -25.333 -184 -76c-22.667 -32 -34 -71.667 -34 -119c0 -36.667 11.333 -66.667 34 -90c29.333 -31.333 77.333 -47 144 -47c88 0 149.667 25 185 75c22 31.333 33 71.333 33 120c0 36.667 -11 67 -33 91zM424.998 860.002
c-23.333 28.667 -34.999 63.334 -34.999 104.001l1 17h182c0 -4.66699 0.333008 -10.334 1 -17.001s2.66699 -12.667 6 -18c8 -15.333 23.667 -23 47 -23h2c22 0 39 7.33301 51 22c9.33301 11.333 14.666 23.333 15.999 36h180c-2 -20 -7.16699 -40.667 -15.5 -62
s-20.833 -41 -37.5 -59c-44 -47.333 -106.667 -71 -188 -71h-14c-92.667 0 -158 23.667 -196 71z" />
    <glyph glyph-name="obreve" unicode="&#x14f;" horiz-adv-x="899" 
d="M419 -15c-107.333 0 -191.001 14.9971 -251.001 44.9971c-51.333 25.333 -87.666 60.333 -108.999 105c-15.333 32 -23 71.667 -23 119c0 44.667 8 86.334 24 125.001c22.667 56.667 60.667 101.334 114 134.001c67.333 41.333 157.666 62 270.999 62h35
c106 0 190.333 -14.333 253 -43c50.667 -23.333 86.334 -57.333 107.001 -102c14.667 -32.667 22 -72 22 -118c0 -53.333 -6.66699 -97.666 -20 -132.999c-20.667 -57.333 -58 -102 -112 -134c-68 -40 -160.333 -60 -277 -60h-34zM354.999 195.997
c16.667 -22 42.667 -33.002 78 -33.002h6c23.333 0 43.333 4.83301 60 14.5s30 22.167 40 37.5c8 12.667 14 26.834 18 42.501s6 30.167 6 43.5c0 28.667 -6.66699 51.334 -20 68.001c-17.333 20.667 -43.333 31 -78 31h-6c-43.333 0 -76 -15.667 -98 -47
c-16.667 -24 -25 -53.667 -25 -89c0 -29.333 6.33301 -52 19 -68zM309.999 678.995c-22.667 28 -34 62.6689 -34 104.002c0 8.66699 0.333008 15 1 19h182v-18c0 -16.667 6.66699 -28.667 20 -36c6.66699 -4.66699 17 -7 31 -7h2c21.333 0 37.666 8 48.999 24
c8.66699 11.333 13.667 23.666 15 36.999h182c-2 -20.667 -7 -41.834 -15 -63.501s-20.333 -41.5 -37 -59.5c-43.333 -48 -105.666 -72 -186.999 -72h-14c-92.667 0 -157.667 24 -195 72z" />
    <glyph glyph-name="Ohungarumlaut" unicode="&#x150;" horiz-adv-x="1108" 
d="M617 757c122.667 0 221.333 -18.998 296 -56.998c64 -32 109.667 -76.333 137 -133c22 -46 33 -97.333 33 -154c0 -67.333 -11.667 -128.333 -35 -183c-32 -72.667 -81.333 -129 -148 -169c-83.333 -49.333 -191.666 -74 -324.999 -74h-45
c-123.333 0 -222 19.333 -296 58c-64 33.333 -109.667 78.666 -137 135.999c-22 44.667 -33 96 -33 154c0 67.333 12 127.666 36 180.999c31.333 72 80.666 128 147.999 168c82.667 48.667 190.667 73 324 73h45zM738.999 494.002c-29.333 30.667 -77.667 46 -145 46
c-86.667 0 -148 -25.333 -184 -76c-22.667 -32 -34 -71.667 -34 -119c0 -36.667 11.333 -66.667 34 -90c29.333 -31.333 77.333 -47 144 -47c88 0 149.667 25 185 75c22 31.333 33 71.333 33 120c0 36.667 -11 67 -33 91zM334.998 794.002l98 161h251l-105 -161h-244z
M631.998 794.002l106 161h252l-111 -161h-247z" />
    <glyph glyph-name="ohungarumlaut" unicode="&#x151;" horiz-adv-x="899" 
d="M419 -15c-107.333 0 -191.001 14.9971 -251.001 44.9971c-51.333 25.333 -87.666 60.333 -108.999 105c-15.333 32 -23 71.667 -23 119c0 44.667 8 86.334 24 125.001c22.667 56.667 60.667 101.334 114 134.001c67.333 41.333 157.666 62 270.999 62h35
c106 0 190.333 -14.333 253 -43c50.667 -23.333 86.334 -57.333 107.001 -102c14.667 -32.667 22 -72 22 -118c0 -53.333 -6.66699 -97.666 -20 -132.999c-20.667 -57.333 -58 -102 -112 -134c-68 -40 -160.333 -60 -277 -60h-34zM354.999 195.997
c16.667 -22 42.667 -33.002 78 -33.002h6c23.333 0 43.333 4.83301 60 14.5s30 22.167 40 37.5c8 12.667 14 26.834 18 42.501s6 30.167 6 43.5c0 28.667 -6.66699 51.334 -20 68.001c-17.333 20.667 -43.333 31 -78 31h-6c-43.333 0 -76 -15.667 -98 -47
c-16.667 -24 -25 -53.667 -25 -89c0 -29.333 6.33301 -52 19 -68zM219.999 610.995l105 164h251l-110 -164h-246zM517.999 610.995l112 164h253l-117 -164h-248z" />
    <glyph glyph-name="Racute" unicode="&#x154;" horiz-adv-x="1086" 
d="M975 304c22.667 -27.333 34.001 -62.333 34.001 -105c0 -18 -2 -38 -6 -60l-17 -86c-2 -10 -3 -18 -3 -24c0 -4 0.333008 -6.66699 1 -8c2 -7.33301 4.33301 -12.666 7 -15.999l-1 -5h-307l-3 14l-1 8c0 6 1 13 3 21l12 65c2.66699 13.333 4 26.666 4 39.999
c0 24 -6.66699 41.667 -20 53c-9.33301 8 -22.833 13.667 -40.5 17s-40.167 5 -67.5 5h-204l-42 -223h-299l145 744h618c104 0 181.333 -20.667 232 -62c37.333 -32 56 -74 56 -126c0 -62 -23 -110.667 -69 -146c-36.667 -28.667 -82.334 -46 -137.001 -52
c47.333 -10.667 82.333 -28.667 105 -54zM407.001 429h267c30.667 0 52.667 6.66699 66 20c10 10 15 23.667 15 41c0 16 -4.66699 28.667 -14 38s-27 14 -53 14h-259zM745.001 794h-273l117 161h309z" />
    <glyph glyph-name="racute" unicode="&#x155;" horiz-adv-x="794" 
d="M480 316c0 35.333 -17.667 53.001 -53 53.001c-21.333 0 -37.5 -6.5 -48.5 -19.5s-19.167 -34.833 -24.5 -65.5l-56 -284h-285l109 560h283l-18 -91c16.667 24.667 38.667 45.667 66 63c42 27.333 87.667 41 137 41h11c58 0 102.333 -18.667 133 -56
c13.333 -16.667 23.5 -36.5 30.5 -59.5s10.5 -47.167 10.5 -72.5c0 -21.333 -3.33301 -48 -10 -80c-4 -18.667 -9 -36.334 -15 -53.001h-280l7 37c2 10 3 19 3 27zM302 611.001l124 164h311l-161 -164h-274z" />
    <glyph glyph-name="uni0156" unicode="&#x156;" horiz-adv-x="1086" 
d="M975 304c22.667 -27.333 34.001 -62.333 34.001 -105c0 -18 -2 -38 -6 -60l-17 -86c-2 -10 -3 -18 -3 -24c0 -4 0.333008 -6.66699 1 -8c2 -7.33301 4.33301 -12.666 7 -15.999l-1 -5h-307l-3 14l-1 8c0 6 1 13 3 21l12 65c2.66699 13.333 4 26.666 4 39.999
c0 24 -6.66699 41.667 -20 53c-9.33301 8 -22.833 13.667 -40.5 17s-40.167 5 -67.5 5h-204l-42 -223h-299l145 744h618c104 0 181.333 -20.667 232 -62c37.333 -32 56 -74 56 -126c0 -62 -23 -110.667 -69 -146c-36.667 -28.667 -82.334 -46 -137.001 -52
c47.333 -10.667 82.333 -28.667 105 -54zM407.001 429h267c30.667 0 52.667 6.66699 66 20c10 10 15 23.667 15 41c0 16 -4.66699 28.667 -14 38s-27 14 -53 14h-259zM388.001 -298c25.333 37.333 42.333 65.666 51 84.999h-125l33 167h297l-22 -116
c-5.33301 -23.333 -14.5 -47.166 -27.5 -71.499s-27.167 -45.833 -42.5 -64.5h-164z" />
    <glyph glyph-name="uni0157" unicode="&#x157;" horiz-adv-x="794" 
d="M480 316c0 35.333 -17.667 53.001 -53 53.001c-21.333 0 -37.5 -6.5 -48.5 -19.5s-19.167 -34.833 -24.5 -65.5l-56 -284h-285l109 560h283l-18 -91c16.667 24.667 38.667 45.667 66 63c42 27.333 87.667 41 137 41h11c58 0 102.333 -18.667 133 -56
c13.333 -16.667 23.5 -36.5 30.5 -59.5s10.5 -47.167 10.5 -72.5c0 -21.333 -3.33301 -48 -10 -80c-4 -18.667 -9 -36.334 -15 -53.001h-280l7 37c2 10 3 19 3 27zM42 -297.999c25.333 37.333 42.333 65.666 51 84.999h-125l33 167h297l-22 -116
c-5.33301 -23.333 -14.5 -47.166 -27.5 -71.499s-27.167 -45.833 -42.5 -64.5h-164z" />
    <glyph glyph-name="Rcaron" unicode="&#x158;" horiz-adv-x="1086" 
d="M975 304c22.667 -27.333 34.001 -62.333 34.001 -105c0 -18 -2 -38 -6 -60l-17 -86c-2 -10 -3 -18 -3 -24c0 -4 0.333008 -6.66699 1 -8c2 -7.33301 4.33301 -12.666 7 -15.999l-1 -5h-307l-3 14l-1 8c0 6 1 13 3 21l12 65c2.66699 13.333 4 26.666 4 39.999
c0 24 -6.66699 41.667 -20 53c-9.33301 8 -22.833 13.667 -40.5 17s-40.167 5 -67.5 5h-204l-42 -223h-299l145 744h618c104 0 181.333 -20.667 232 -62c37.333 -32 56 -74 56 -126c0 -62 -23 -110.667 -69 -146c-36.667 -28.667 -82.334 -46 -137.001 -52
c47.333 -10.667 82.333 -28.667 105 -54zM407.001 429h267c30.667 0 52.667 6.66699 66 20c10 10 15 23.667 15 41c0 16 -4.66699 28.667 -14 38s-27 14 -53 14h-259zM440.001 794l-117 161h244l45 -67l69 67h259l-172 -161h-328z" />
    <glyph glyph-name="rcaron" unicode="&#x159;" horiz-adv-x="794" 
d="M480 316c0 35.333 -17.667 53.001 -53 53.001c-21.333 0 -37.5 -6.5 -48.5 -19.5s-19.167 -34.833 -24.5 -65.5l-56 -284h-285l109 560h283l-18 -91c16.667 24.667 38.667 45.667 66 63c42 27.333 87.667 41 137 41h11c58 0 102.333 -18.667 133 -56
c13.333 -16.667 23.5 -36.5 30.5 -59.5s10.5 -47.167 10.5 -72.5c0 -21.333 -3.33301 -48 -10 -80c-4 -18.667 -9 -36.334 -15 -53.001h-280l7 37c2 10 3 19 3 27zM268 611.001l-112 164h244l44 -67l65 67h259l-168 -164h-332z" />
    <glyph glyph-name="Sacute" unicode="&#x15a;" horiz-adv-x="1000" 
d="M358.5 224.5c1.66699 -7.66699 6.16895 -15.166 13.502 -22.499c19.333 -19.333 56.666 -29 111.999 -29h6c58.667 0 99 6.33301 121 19c10 5.33301 16.833 11.166 20.5 17.499s5.5 13.5 5.5 21.5c0 16.667 -7.66699 28.667 -23 36
c-20.667 10.667 -54.667 16.334 -102 17.001l-76 2c-125.333 4 -214.333 26.667 -267 68c-24.667 19.333 -42.167 42.5 -52.5 69.5s-15.5 58.5 -15.5 94.5c0 68.667 27.333 123 82 163c69.333 49.333 180.666 74 333.999 74h46c126 0 223 -12 291 -36
c60.667 -21.333 101.667 -51.333 123 -90c12 -23.333 18 -50 18 -80c0 -12 -1 -24.667 -3 -38h-314c0 18.667 -5.66699 32.667 -17 42c-22 15.333 -59 23 -111 23h-7c-54.667 0 -92 -5.33301 -112 -16c-8.66699 -4.66699 -14.667 -10 -18 -16s-5 -13.333 -5 -22
c0 -14 7.66699 -24.667 23 -32c18 -8.66699 50 -13.334 96 -14.001l78 -2c71.333 -2 129.833 -8.5 175.5 -19.5s81.167 -26.5 106.5 -46.5c24 -18.667 40.667 -41.667 50 -69s14 -60 14 -98c0 -74 -28.667 -131.667 -86 -173c-74.667 -53.333 -200 -80 -376 -80h-22
c-128 0 -228 14.667 -300 44c-59.333 24 -99 58 -119 102c-10.667 23.333 -16 49 -16 77c0 14 1 27 3 39h321c0 -9.33301 0.833008 -17.833 2.5 -25.5zM714.002 794.001h-273l117 161h309z" />
    <glyph glyph-name="sacute" unicode="&#x15b;" horiz-adv-x="824" 
d="M329 159c12 -10.667 31 -16.001 57 -16.001h2c30 0 51 3 63 9s18 14.333 18 25c0 12 -5 21 -15 27c-11.333 6 -33.333 9.33301 -66 10l-74 4c-90.667 4 -156 22 -196 54c-33.333 27.333 -50 66.333 -50 117c0 56 24 99 72 129c56.667 35.333 150 53 280 53h20
c143.333 0 243.666 -17.667 300.999 -53c23.333 -15.333 39.333 -33.666 48 -54.999s12.667 -46.333 12 -75h-297c-1.33301 10.667 -5.66602 19.334 -12.999 26.001c-11.333 10 -30.333 15 -57 15h-5c-28 0 -47.667 -3 -59 -9c-10.667 -6 -16 -14.667 -16 -26
c0 -10.667 5.66699 -18.667 17 -24c12.667 -6 33.334 -9.33301 62.001 -10l75 -3c96.667 -4 165.667 -20.667 207 -50c34.667 -26 52 -66 52 -120c0 -56.667 -21.667 -101.334 -65 -134.001c-58.667 -44 -159 -66 -301 -66h-28c-108 0 -190.667 10.667 -248 32
c-48.667 18 -81.334 43.333 -98.001 76c-12 22 -17.333 52.333 -16 91h305c0 -11.333 4.33301 -20.333 13 -27zM319 610.999l124 164h311l-161 -164h-274z" />
    <glyph glyph-name="Scircumflex" unicode="&#x15c;" horiz-adv-x="1000" 
d="M358.5 224.5c1.66699 -7.66699 6.16895 -15.166 13.502 -22.499c19.333 -19.333 56.666 -29 111.999 -29h6c58.667 0 99 6.33301 121 19c10 5.33301 16.833 11.166 20.5 17.499s5.5 13.5 5.5 21.5c0 16.667 -7.66699 28.667 -23 36
c-20.667 10.667 -54.667 16.334 -102 17.001l-76 2c-125.333 4 -214.333 26.667 -267 68c-24.667 19.333 -42.167 42.5 -52.5 69.5s-15.5 58.5 -15.5 94.5c0 68.667 27.333 123 82 163c69.333 49.333 180.666 74 333.999 74h46c126 0 223 -12 291 -36
c60.667 -21.333 101.667 -51.333 123 -90c12 -23.333 18 -50 18 -80c0 -12 -1 -24.667 -3 -38h-314c0 18.667 -5.66699 32.667 -17 42c-22 15.333 -59 23 -111 23h-7c-54.667 0 -92 -5.33301 -112 -16c-8.66699 -4.66699 -14.667 -10 -18 -16s-5 -13.333 -5 -22
c0 -14 7.66699 -24.667 23 -32c18 -8.66699 50 -13.334 96 -14.001l78 -2c71.333 -2 129.833 -8.5 175.5 -19.5s81.167 -26.5 106.5 -46.5c24 -18.667 40.667 -41.667 50 -69s14 -60 14 -98c0 -74 -28.667 -131.667 -86 -173c-74.667 -53.333 -200 -80 -376 -80h-22
c-128 0 -228 14.667 -300 44c-59.333 24 -99 58 -119 102c-10.667 23.333 -16 49 -16 77c0 14 1 27 3 39h321c0 -9.33301 0.833008 -17.833 2.5 -25.5zM759.002 955.001l117 -163h-244l-45 68l-69 -68h-259l172 163h328z" />
    <glyph glyph-name="scircumflex" unicode="&#x15d;" horiz-adv-x="824" 
d="M329 159c12 -10.667 31 -16.001 57 -16.001h2c30 0 51 3 63 9s18 14.333 18 25c0 12 -5 21 -15 27c-11.333 6 -33.333 9.33301 -66 10l-74 4c-90.667 4 -156 22 -196 54c-33.333 27.333 -50 66.333 -50 117c0 56 24 99 72 129c56.667 35.333 150 53 280 53h20
c143.333 0 243.666 -17.667 300.999 -53c23.333 -15.333 39.333 -33.666 48 -54.999s12.667 -46.333 12 -75h-297c-1.33301 10.667 -5.66602 19.334 -12.999 26.001c-11.333 10 -30.333 15 -57 15h-5c-28 0 -47.667 -3 -59 -9c-10.667 -6 -16 -14.667 -16 -26
c0 -10.667 5.66699 -18.667 17 -24c12.667 -6 33.334 -9.33301 62.001 -10l75 -3c96.667 -4 165.667 -20.667 207 -50c34.667 -26 52 -66 52 -120c0 -56.667 -21.667 -101.334 -65 -134.001c-58.667 -44 -159 -66 -301 -66h-28c-108 0 -190.667 10.667 -248 32
c-48.667 18 -81.334 43.333 -98.001 76c-12 22 -17.333 52.333 -16 91h305c0 -11.333 4.33301 -20.333 13 -27zM646 774.999l112 -166h-244l-44 68l-65 -68h-259l168 166h332z" />
    <glyph glyph-name="Scedilla" unicode="&#x15e;" horiz-adv-x="1000" 
d="M588 -273c-38.667 -34 -103.33 -51.001 -193.997 -51.001h-170l23 121h142c28 0 42 10 42 30c0 6 -2.33301 11 -7 15s-14.334 6 -29.001 6h-102l29 147c-124 14 -208.333 48.667 -253 104c-24.667 30.667 -37 67.334 -37 110.001c0 14.667 1 28.334 3 41.001h321
c0 -9.33301 0.833008 -17.833 2.5 -25.5s6.16699 -15.167 13.5 -22.5c19.333 -19.333 56.666 -29 111.999 -29h6c58.667 0 99 6.33301 121 19c10 5.33301 16.833 11.166 20.5 17.499s5.5 13.5 5.5 21.5c0 16.667 -7.66699 28.667 -23 36
c-20.667 10.667 -54.667 16.334 -102 17.001l-76 2c-125.333 4 -214.333 26.667 -267 68c-24.667 19.333 -42.167 42.5 -52.5 69.5s-15.5 58.5 -15.5 94.5c0 68.667 27.333 123 82 163c69.333 49.333 180.666 74 333.999 74h46c126 0 223 -12 291 -36
c60.667 -21.333 101.667 -51.333 123 -90c12 -23.333 18 -50 18 -80c0 -12 -1 -24.667 -3 -38h-314c0 18.667 -5.66699 32.667 -17 42c-22 15.333 -59 23 -111 23h-7c-54.667 0 -92 -5.33301 -112 -16c-8.66699 -4.66699 -14.667 -10 -18 -16s-5 -13.333 -5 -22
c0 -14 7.66699 -24.667 23 -32c18 -8.66699 50 -13.334 96 -14.001l78 -2c71.333 -2 129.833 -8.5 175.5 -19.5s81.167 -26.5 106.5 -46.5c24 -18.667 40.667 -41.667 50 -69s14 -60 14 -98c0 -74 -28.667 -131.667 -86 -173c-74.667 -53.333 -200 -80 -376 -80h-18l-8 -43
c60 -0.666992 104.333 -11.667 133 -33c23.333 -17.333 35 -42.333 35 -75c0 -48 -14.333 -84.667 -43 -110z" />
    <glyph glyph-name="scedilla" unicode="&#x15f;" horiz-adv-x="824" 
d="M503 -273c-38.667 -34 -103.334 -51.001 -194.001 -51.001h-170l23 121h142c28 0 42 10 42 30c0 6 -2.33301 11 -7 15c-5.33301 4 -15 6 -29 6h-102l29 146c-96 11.333 -161 37.333 -195 78c-13.333 16 -22 33 -26 51s-5.66699 39 -5 63h305
c0 -11.333 4.33301 -20.333 13 -27c12 -10.667 31 -16 57 -16h2c30 0 51 3 63 9s18 14.333 18 25c0 12 -5 21 -15 27c-11.333 6 -33.333 9.33301 -66 10l-74 4c-90.667 4 -156 22 -196 54c-33.333 27.333 -50 66.333 -50 117c0 56 24 99 72 129c56.667 35.333 150 53 280 53
h20c143.333 0 243.666 -17.667 300.999 -53c23.333 -15.333 39.333 -33.666 48 -54.999s12.667 -46.333 12 -75h-297c-1.33301 10.667 -5.66602 19.334 -12.999 26.001c-11.333 10 -30.333 15 -57 15h-5c-28 0 -47.667 -3 -59 -9c-10.667 -6 -16 -14.667 -16 -26
c0 -10.667 5.66699 -18.667 17 -24c12.667 -6 33.334 -9.33301 62.001 -10l75 -3c96.667 -4 165.667 -20.667 207 -50c34.667 -26 52 -66 52 -120c0 -56.667 -21.667 -101.334 -65 -134.001c-58.667 -44 -159 -66 -301 -66h-15l-8 -42c60 -0.666992 104.333 -11.667 133 -33
c23.333 -17.333 35 -42.333 35 -75c0 -48 -14.333 -84.667 -43 -110z" />
    <glyph glyph-name="Scaron" unicode="&#x160;" horiz-adv-x="1000" 
d="M358.5 224.5c1.66699 -7.66699 6.16895 -15.166 13.502 -22.499c19.333 -19.333 56.666 -29 111.999 -29h6c58.667 0 99 6.33301 121 19c10 5.33301 16.833 11.166 20.5 17.499s5.5 13.5 5.5 21.5c0 16.667 -7.66699 28.667 -23 36
c-20.667 10.667 -54.667 16.334 -102 17.001l-76 2c-125.333 4 -214.333 26.667 -267 68c-24.667 19.333 -42.167 42.5 -52.5 69.5s-15.5 58.5 -15.5 94.5c0 68.667 27.333 123 82 163c69.333 49.333 180.666 74 333.999 74h46c126 0 223 -12 291 -36
c60.667 -21.333 101.667 -51.333 123 -90c12 -23.333 18 -50 18 -80c0 -12 -1 -24.667 -3 -38h-314c0 18.667 -5.66699 32.667 -17 42c-22 15.333 -59 23 -111 23h-7c-54.667 0 -92 -5.33301 -112 -16c-8.66699 -4.66699 -14.667 -10 -18 -16s-5 -13.333 -5 -22
c0 -14 7.66699 -24.667 23 -32c18 -8.66699 50 -13.334 96 -14.001l78 -2c71.333 -2 129.833 -8.5 175.5 -19.5s81.167 -26.5 106.5 -46.5c24 -18.667 40.667 -41.667 50 -69s14 -60 14 -98c0 -74 -28.667 -131.667 -86 -173c-74.667 -53.333 -200 -80 -376 -80h-22
c-128 0 -228 14.667 -300 44c-59.333 24 -99 58 -119 102c-10.667 23.333 -16 49 -16 77c0 14 1 27 3 39h321c0 -9.33301 0.833008 -17.833 2.5 -25.5zM409.002 794.001l-117 161h244l45 -67l69 67h259l-172 -161h-328z" />
    <glyph glyph-name="scaron" unicode="&#x161;" horiz-adv-x="824" 
d="M329 159c12 -10.667 31 -16.001 57 -16.001h2c30 0 51 3 63 9s18 14.333 18 25c0 12 -5 21 -15 27c-11.333 6 -33.333 9.33301 -66 10l-74 4c-90.667 4 -156 22 -196 54c-33.333 27.333 -50 66.333 -50 117c0 56 24 99 72 129c56.667 35.333 150 53 280 53h20
c143.333 0 243.666 -17.667 300.999 -53c23.333 -15.333 39.333 -33.666 48 -54.999s12.667 -46.333 12 -75h-297c-1.33301 10.667 -5.66602 19.334 -12.999 26.001c-11.333 10 -30.333 15 -57 15h-5c-28 0 -47.667 -3 -59 -9c-10.667 -6 -16 -14.667 -16 -26
c0 -10.667 5.66699 -18.667 17 -24c12.667 -6 33.334 -9.33301 62.001 -10l75 -3c96.667 -4 165.667 -20.667 207 -50c34.667 -26 52 -66 52 -120c0 -56.667 -21.667 -101.334 -65 -134.001c-58.667 -44 -159 -66 -301 -66h-28c-108 0 -190.667 10.667 -248 32
c-48.667 18 -81.334 43.333 -98.001 76c-12 22 -17.333 52.333 -16 91h305c0 -11.333 4.33301 -20.333 13 -27zM285 610.999l-112 164h244l44 -67l65 67h259l-168 -164h-332z" />
    <glyph glyph-name="uni0162" unicode="&#x162;" horiz-adv-x="982" 
d="M289 0l102 522h-298l43 222h892l-43 -222h-297l-101 -522h-298zM323 -298c25.333 37.333 42.333 65.666 51 84.999h-125l33 167h297l-22 -116c-5.33301 -23.333 -14.5 -47.166 -27.5 -71.499s-27.167 -45.833 -42.5 -64.5h-164z" />
    <glyph glyph-name="uni0163" unicode="&#x163;" horiz-adv-x="572" 
d="M471 0h-215.998c-50.667 -0 -88.334 13.333 -113.001 40c-20 21.333 -30 49 -30 83c0 13.333 1.33301 26.333 4 39l43 218h-106l35 180h106l32 167h282l-34 -167h106l-35 -180h-106l-26 -132c-1.33301 -9.33301 -2 -16 -2 -20c0 -12 3.66699 -20.5 11 -25.5
s19.666 -7.5 36.999 -7.5h51zM179.002 -298c25.333 37.333 42.333 65.666 51 84.999h-125l33 167h297l-22 -116c-5.33301 -23.333 -14.5 -47.166 -27.5 -71.499s-27.167 -45.833 -42.5 -64.5h-164z" />
    <glyph glyph-name="Utilde" unicode="&#x168;" horiz-adv-x="1114" 
d="M220 64c-60.667 40 -99.667 95.6689 -117 167.002c-7.33301 27.333 -11 57 -11 89c0 29.333 2.66699 56.666 8 81.999l67 342h297l-66 -342c-2.66699 -12.667 -4 -26.667 -4 -42c0 -32 7.66699 -57.333 23 -76c26.667 -36.667 75.667 -55 147 -55h3
c67.333 0 117 18.333 149 55c24 27.333 40.667 66.666 50 117.999l67 342h297l-66 -342c-6.66699 -36.667 -13.167 -68 -19.5 -94s-15.5 -52 -27.5 -78c-34 -74 -80.333 -129.333 -139 -166c-78 -50 -181.333 -75 -310 -75h-30c-136.667 0 -242.667 25 -318 75zM922 1001
l-18.998 -97c-5.33301 -31.333 -16.333 -56.666 -33 -75.999c-18.667 -22 -45 -33 -79 -33h-3c-18.667 0 -37.5 2.83301 -56.5 8.5s-43.833 14.5 -74.5 26.5l-42 17c-10.667 4 -19.334 6 -26.001 6s-11.334 -1.83301 -14.001 -5.5s-5 -9.16699 -7 -16.5l-8 -40h-147l19 97
c5.33301 31.333 16.333 56.666 33 75.999c18.667 22 45 33 79 33h3c18.667 0 37.5 -2.83301 56.5 -8.5s43.833 -14.5 74.5 -26.5l43 -17c11.333 -4 19.666 -6 24.999 -6c6.66699 0 11.334 1.83301 14.001 5.5s5 9.16699 7 16.5l8 40h147z" />
    <glyph glyph-name="utilde" unicode="&#x169;" horiz-adv-x="895" 
d="M774 0h-284l18 87c-22.667 -25.333 -50.667 -47 -84 -65c-48 -25.333 -99.333 -38 -154 -38h-9c-39.333 0 -73.333 6.5 -102 19.5s-51.667 31.833 -69 56.5c-24 34.667 -36 78 -36 130c0 22.667 2.66699 48.334 8 77.001l57 293h286l-50 -263c-2 -10 -3 -19.667 -3 -29
c0 -24.667 7.16699 -43.834 21.5 -57.501s35.5 -20.5 63.5 -20.5c58.667 0 95 35.667 109 107l52 263h285zM774 818l-18.9971 -100.002c-4.66699 -17.333 -9.33398 -32.166 -14.001 -44.499s-11 -22.833 -19 -31.5c-19.333 -22.667 -46.333 -34 -81 -34h-3
c-17.333 0 -35 2.66699 -53 8s-43 14.666 -75 27.999c-14.667 6.66699 -27.834 12.334 -39.501 17.001s-20.5 7 -26.5 7c-6.66699 0 -11.167 -1.83301 -13.5 -5.5s-4.5 -9.83398 -6.5 -18.501l-8 -40h-148l20 100c5.33301 32.667 16.666 58.334 33.999 77.001
c20 22 46.667 33 80 33h3c18.667 0 37.167 -2.66699 55.5 -8s42.5 -14.666 72.5 -27.999c32.667 -15.333 54.667 -23 66 -23c6.66699 0 11.167 1.83301 13.5 5.5s4.5 9.5 6.5 17.5l8 40h147z" />
    <glyph glyph-name="Umacron" unicode="&#x16a;" horiz-adv-x="1114" 
d="M220 64c-60.667 40 -99.667 95.6689 -117 167.002c-7.33301 27.333 -11 57 -11 89c0 29.333 2.66699 56.666 8 81.999l67 342h297l-66 -342c-2.66699 -12.667 -4 -26.667 -4 -42c0 -32 7.66699 -57.333 23 -76c26.667 -36.667 75.667 -55 147 -55h3
c67.333 0 117 18.333 149 55c24 27.333 40.667 66.666 50 117.999l67 342h297l-66 -342c-6.66699 -36.667 -13.167 -68 -19.5 -94s-15.5 -52 -27.5 -78c-34 -74 -80.333 -129.333 -139 -166c-78 -50 -181.333 -75 -310 -75h-30c-136.667 0 -242.667 25 -318 75zM432 803.002
l28 141h445l-28 -141h-445z" />
    <glyph glyph-name="umacron" unicode="&#x16b;" horiz-adv-x="895" 
d="M774 0h-284l18 87c-22.667 -25.333 -50.667 -47 -84 -65c-48 -25.333 -99.333 -38 -154 -38h-9c-39.333 0 -73.333 6.5 -102 19.5s-51.667 31.833 -69 56.5c-24 34.667 -36 78 -36 130c0 22.667 2.66699 48.334 8 77.001l57 293h286l-50 -263c-2 -10 -3 -19.667 -3 -29
c0 -24.667 7.16699 -43.834 21.5 -57.501s35.5 -20.5 63.5 -20.5c58.667 0 95 35.667 109 107l52 263h285zM284 616l28 141h444l-28 -141h-444z" />
    <glyph glyph-name="Ubreve" unicode="&#x16c;" horiz-adv-x="1114" 
d="M220 64c-60.667 40 -99.667 95.6689 -117 167.002c-7.33301 27.333 -11 57 -11 89c0 29.333 2.66699 56.666 8 81.999l67 342h297l-66 -342c-2.66699 -12.667 -4 -26.667 -4 -42c0 -32 7.66699 -57.333 23 -76c26.667 -36.667 75.667 -55 147 -55h3
c67.333 0 117 18.333 149 55c24 27.333 40.667 66.666 50 117.999l67 342h297l-66 -342c-6.66699 -36.667 -13.167 -68 -19.5 -94s-15.5 -52 -27.5 -78c-34 -74 -80.333 -129.333 -139 -166c-78 -50 -181.333 -75 -310 -75h-30c-136.667 0 -242.667 25 -318 75zM455 860.002
c-23.333 28.667 -34.999 63.334 -34.999 104.001l1 17h182c0 -4.66699 0.333008 -10.334 1 -17.001s2.66699 -12.667 6 -18c8 -15.333 23.667 -23 47 -23h2c22 0 39 7.33301 51 22c9.33301 11.333 14.666 23.333 15.999 36h180c-2 -20 -7.16699 -40.667 -15.5 -62
s-20.833 -41 -37.5 -59c-44 -47.333 -106.667 -71 -188 -71h-14c-92.667 0 -158 23.667 -196 71z" />
    <glyph glyph-name="ubreve" unicode="&#x16d;" horiz-adv-x="895" 
d="M774 0h-284l18 87c-22.667 -25.333 -50.667 -47 -84 -65c-48 -25.333 -99.333 -38 -154 -38h-9c-39.333 0 -73.333 6.5 -102 19.5s-51.667 31.833 -69 56.5c-24 34.667 -36 78 -36 130c0 22.667 2.66699 48.334 8 77.001l57 293h286l-50 -263c-2 -10 -3 -19.667 -3 -29
c0 -24.667 7.16699 -43.834 21.5 -57.501s35.5 -20.5 63.5 -20.5c58.667 0 95 35.667 109 107l52 263h285zM315 679c-22.667 28 -34 62.6689 -34 104.002c0 8.66699 0.333008 15 1 19h182v-18c0 -16.667 6.66699 -28.667 20 -36c6.66699 -4.66699 17 -7 31 -7h2
c21.333 0 37.666 8 48.999 24c8.66699 11.333 13.667 23.666 15 36.999h182c-2 -20.667 -7 -41.834 -15 -63.501s-20.333 -41.5 -37 -59.5c-43.333 -48 -105.666 -72 -186.999 -72h-14c-92.667 0 -157.667 24 -195 72z" />
    <glyph glyph-name="Uring" unicode="&#x16e;" horiz-adv-x="1114" 
d="M220 64c-60.667 40 -99.667 95.6689 -117 167.002c-7.33301 27.333 -11 57 -11 89c0 29.333 2.66699 56.666 8 81.999l67 342h297l-66 -342c-2.66699 -12.667 -4 -26.667 -4 -42c0 -32 7.66699 -57.333 23 -76c26.667 -36.667 75.667 -55 147 -55h3
c67.333 0 117 18.333 149 55c24 27.333 40.667 66.666 50 117.999l67 342h297l-66 -342c-6.66699 -36.667 -13.167 -68 -19.5 -94s-15.5 -52 -27.5 -78c-34 -74 -80.333 -129.333 -139 -166c-78 -50 -181.333 -75 -310 -75h-30c-136.667 0 -242.667 25 -318 75zM823 1007
c24.667 -21.333 37 -49.667 37 -85c0 -39.333 -11.333 -71.666 -34 -96.999c-34.667 -38 -94.334 -57 -179.001 -57c-69.333 0 -119.666 13.333 -150.999 40c-24.667 20 -37 48 -37 84c0 39.333 11.333 71.666 34 96.999c33.333 38 92.333 57 177 57
c69.333 0 120.333 -13 153 -39zM706 872.501c11.333 11.667 17.001 26.167 17.001 43.5c0 12.667 -5 23 -15 31s-24.333 12 -43 12c-24 0 -41.5 -5.83301 -52.5 -17.5s-16.5 -26.167 -16.5 -43.5c0 -13.333 4.66699 -23.833 14 -31.5s23.666 -11.5 42.999 -11.5
c24 0 41.667 5.83301 53 17.5z" />
    <glyph glyph-name="uring" unicode="&#x16f;" horiz-adv-x="895" 
d="M774 0h-284l18 87c-22.667 -25.333 -50.667 -47 -84 -65c-48 -25.333 -99.333 -38 -154 -38h-9c-39.333 0 -73.333 6.5 -102 19.5s-51.667 31.833 -69 56.5c-24 34.667 -36 78 -36 130c0 22.667 2.66699 48.334 8 77.001l57 293h286l-50 -263c-2 -10 -3 -19.667 -3 -29
c0 -24.667 7.16699 -43.834 21.5 -57.501s35.5 -20.5 63.5 -20.5c58.667 0 95 35.667 109 107l52 263h285zM674 839c24 -21.333 36.001 -49.667 36.001 -85c0 -40 -10.667 -72.333 -32 -97c-33.333 -38 -91 -57 -173 -57c-67.333 0 -116 13.333 -146 40
c-24 20.667 -36 48.667 -36 84c0 40 10.667 72.333 32 97c33.333 38 90.666 57 171.999 57c67.333 0 116.333 -13 147 -39zM558.501 704.999c10.333 12 15.5 26.333 15.5 43c0 12.667 -4.33301 23 -13 31s-21.667 12 -39 12c-21.333 0 -37.166 -6 -47.499 -18
s-15.5 -26.333 -15.5 -43c0 -12.667 4.16699 -23 12.5 -31s21.166 -12 38.499 -12c22 0 38.167 6 48.5 18z" />
    <glyph glyph-name="Uhungarumlaut" unicode="&#x170;" horiz-adv-x="1114" 
d="M220 64c-60.667 40 -99.667 95.6689 -117 167.002c-7.33301 27.333 -11 57 -11 89c0 29.333 2.66699 56.666 8 81.999l67 342h297l-66 -342c-2.66699 -12.667 -4 -26.667 -4 -42c0 -32 7.66699 -57.333 23 -76c26.667 -36.667 75.667 -55 147 -55h3
c67.333 0 117 18.333 149 55c24 27.333 40.667 66.666 50 117.999l67 342h297l-66 -342c-6.66699 -36.667 -13.167 -68 -19.5 -94s-15.5 -52 -27.5 -78c-34 -74 -80.333 -129.333 -139 -166c-78 -50 -181.333 -75 -310 -75h-30c-136.667 0 -242.667 25 -318 75zM364 794.002
l98 161h251l-105 -161h-244zM661 794.002l106 161h252l-111 -161h-247z" />
    <glyph glyph-name="uhungarumlaut" unicode="&#x171;" horiz-adv-x="895" 
d="M774 0h-284l18 87c-22.667 -25.333 -50.667 -47 -84 -65c-48 -25.333 -99.333 -38 -154 -38h-9c-39.333 0 -73.333 6.5 -102 19.5s-51.667 31.833 -69 56.5c-24 34.667 -36 78 -36 130c0 22.667 2.66699 48.334 8 77.001l57 293h286l-50 -263c-2 -10 -3 -19.667 -3 -29
c0 -24.667 7.16699 -43.834 21.5 -57.501s35.5 -20.5 63.5 -20.5c58.667 0 95 35.667 109 107l52 263h285zM228 611l105 164h251l-110 -164h-246zM526 611l112 164h253l-117 -164h-248z" />
    <glyph glyph-name="Uogonek" unicode="&#x172;" horiz-adv-x="1114" 
d="M524 -190c-78 0 -117.001 22 -117.001 66c0 12.667 2.5 23.834 7.5 33.501s14.167 18.834 27.5 27.501c28.667 19.333 82.334 37 161.001 53c-3.33301 -0.666992 -9 -1 -17 -1h-18h-30c-136.667 0 -242.667 25 -318 75c-60.667 40 -99.667 95.667 -117 167
c-7.33301 27.333 -11 57 -11 89c0 29.333 2.66699 56.666 8 81.999l67 342h297l-66 -342c-2.66699 -12.667 -4 -26.667 -4 -42c0 -32 7.66699 -57.333 23 -76c26.667 -36.667 75.667 -55 147 -55h3c67.333 0 117 18.333 149 55c24 27.333 40.667 66.666 50 117.999l67 342
h297l-66 -342c-10 -49.333 -20.167 -91.166 -30.5 -125.499s-24.5 -66.5 -42.5 -96.5c-43.333 -72 -112.666 -127.333 -207.999 -166c-48.667 -20 -80.334 -35 -95.001 -45c-14.667 -10.667 -22 -20.334 -22 -29.001c0 -12.667 11.667 -19 35 -19h31l-22 -111h-186z" />
    <glyph glyph-name="uogonek" unicode="&#x173;" horiz-adv-x="895" 
d="M692 -59c0 -12 11.666 -17.9971 34.999 -17.9971h31l-22 -111h-186c-78 0 -117 22 -117 66c0 13.333 2.83301 25.166 8.5 35.499s15.834 20.166 30.501 29.499c31.333 20.667 93 39.667 185 57h-167l18 87c-22.667 -25.333 -50.667 -47 -84 -65
c-48 -25.333 -99.333 -38 -154 -38h-9c-39.333 0 -73.333 6.5 -102 19.5s-51.667 31.833 -69 56.5c-24 34.667 -36 78 -36 130c0 22.667 2.66699 48.334 8 77.001l57 293h286l-50 -263c-2 -10 -3 -19.667 -3 -29c0 -24.667 7.16699 -43.834 21.5 -57.501
s35.5 -20.5 63.5 -20.5c58.667 0 95 35.667 109 107l52 263h285l-109 -560c-30 -13.333 -51 -24.333 -63 -33c-12.667 -8.66699 -19 -17.334 -19 -26.001z" />
    <glyph glyph-name="Wcircumflex" unicode="&#x174;" horiz-adv-x="1440" 
d="M548 0h-352l-116 744h308l46 -465l221 465h307l49 -466l218 466h303l-375 -744h-345l-60 434zM987 955l117 -163h-244l-45 68l-69 -68h-259l172 163h328z" />
    <glyph glyph-name="wcircumflex" unicode="&#x175;" horiz-adv-x="1227" 
d="M482 0h-352l-78 560h292l17 -327l153 327h300l35 -327l135 327h291l-280 -560h-342l-39 289zM850 775l112 -166h-244l-44 68l-65 -68h-259l168 166h332z" />
    <glyph glyph-name="Ycircumflex" unicode="&#x176;" horiz-adv-x="1021" 
d="M315 0l51 262l-297 482h340l143 -247l243 247h340l-472 -482l-51 -262h-297zM778 955l117 -163h-244l-45 68l-69 -68h-259l172 163h328z" />
    <glyph glyph-name="ycircumflex" unicode="&#x177;" horiz-adv-x="812" 
d="M35 -15l125 -0.000976562c8 0 13.5 1.33301 16.5 4s4.5 6.66699 4.5 12c0 4.66699 -2.33301 17 -7 37l-131 522h304l38 -347l176 347h304l-365 -601c-15.333 -26 -30 -47.667 -44 -65s-29.333 -31.666 -46 -42.999c-37.333 -26 -82 -39 -134 -39h-274zM640 774.999
l112 -166h-244l-44 68l-65 -68h-259l168 166h332z" />
    <glyph glyph-name="Ydieresis" unicode="&#x178;" horiz-adv-x="1021" 
d="M315 0l51 262l-297 482h340l143 -247l243 247h340l-472 -482l-51 -262h-297zM599 951l-30 -157h-265l30 157h265zM912 951l-30 -157h-265l30 157h265z" />
    <glyph glyph-name="Zacute" unicode="&#x179;" horiz-adv-x="967" 
d="M852 0h-842l35 184l475 338h-405l44 222h833l-35 -182l-492 -338h431zM695 794h-273l117 161h309z" />
    <glyph glyph-name="zacute" unicode="&#x17a;" horiz-adv-x="785" 
d="M677 0h-673l33 172l353 208h-308l35 180h658l-33 -172l-363 -204h335zM303 611l124 164h311l-161 -164h-274z" />
    <glyph glyph-name="Zdotaccent" unicode="&#x17b;" horiz-adv-x="967" 
d="M852 0h-842l35 184l475 338h-405l44 222h833l-35 -182l-492 -338h431zM746 951l-30 -157h-285l30 157h285z" />
    <glyph glyph-name="zdotaccent" unicode="&#x17c;" horiz-adv-x="785" 
d="M677 0h-673l33 172l353 208h-308l35 180h658l-33 -172l-363 -204h335zM620 763l-30 -157h-285l30 157h285z" />
    <glyph glyph-name="Zcaron" unicode="&#x17d;" horiz-adv-x="967" 
d="M852 0h-842l35 184l475 338h-405l44 222h833l-35 -182l-492 -338h431zM399 794l-117 161h244l45 -67l69 67h259l-172 -161h-328z" />
    <glyph glyph-name="zcaron" unicode="&#x17e;" horiz-adv-x="785" 
d="M677 0h-673l33 172l353 208h-308l35 180h658l-33 -172l-363 -204h335zM277 611l-112 164h244l44 -67l65 67h259l-168 -164h-332z" />
    <glyph glyph-name="Aringacute" unicode="&#x1fa;" horiz-adv-x="1055" 
d="M717 0l-29 113h-366l-71 -113h-312l484 744h386l211 -744h-303zM640 297l-59 227l-143 -227h202zM800 1023c24.667 -21.333 37 -49.667 37 -85c0 -39.333 -11.333 -71.666 -34 -96.999c-34.667 -38 -94.334 -57 -179.001 -57c-69.333 0 -119.666 13.333 -150.999 40
c-24.667 20 -37 48 -37 84c0 39.333 11.333 71.666 34 96.999c33.333 38 92.333 57 177 57c69.333 0 120.333 -13 153 -39zM683 888.499c11.333 11.667 17.001 26.167 17.001 43.5c0 12.667 -5 23 -15 31s-24.333 12 -43 12c-24 0 -41.5 -5.83301 -52.5 -17.5
s-16.5 -26.167 -16.5 -43.5c0 -13.333 4.66699 -23.833 14 -31.5s23.666 -11.5 42.999 -11.5c24 0 41.667 5.83301 53 17.5zM793.001 1090h-273l117 161h309z" />
    <glyph glyph-name="aringacute" unicode="&#x1fb;" horiz-adv-x="848" 
d="M69 375c3.33301 26 9.83398 49.9971 19.501 71.9971s26.167 42 49.5 60c59.333 45.333 156.333 68 291 68h33c143.333 0 240 -21.667 290 -65c29.333 -26 44 -59 44 -99c0 -8.66699 -1.33301 -21.667 -4 -39l-32 -161v-6c0 -8.66699 4.33301 -13 13 -13h37l-38 -192h-222
c-24.667 0 -45.334 7.66699 -62.001 23c-12.667 10.667 -21.334 25 -26.001 43c-16 -18 -36.333 -33.333 -61 -46c-41.333 -21.333 -90.333 -32 -147 -32h-17c-69.333 0 -123.5 14.5 -162.5 43.5s-58.5 69.5 -58.5 121.5c0 58.667 18.333 102.334 55 131.001
c45.333 36 120.333 55.667 225 59l174 7c15.333 0.666992 26.5 3.83398 33.5 9.50098s10.5 13.834 10.5 24.501c0 13.333 -5 23.333 -15 30c-11.333 7.33301 -32 11 -62 11h-4c-33.333 0 -57 -6.33301 -71 -19c-9.33301 -8.66699 -14.666 -19 -15.999 -31h-277z
M448.001 164.997c18.667 16.667 30.667 38.333 36 65l4 19l-94 -14c-40 -6.66699 -66.333 -14 -79 -22c-7.33301 -4 -12.333 -8.83301 -15 -14.5s-4 -12.5 -4 -20.5c0 -28.667 22.667 -43 68 -43c34 0 62 10 84 30zM640.001 838.996c24 -21.333 36.001 -49.667 36.001 -85
c0 -40 -10.667 -72.333 -32 -97c-33.333 -38 -91 -57 -173 -57c-67.333 0 -116 13.333 -146 40c-24 20.667 -36 48.667 -36 84c0 40 10.667 72.333 32 97c33.333 38 90.666 57 171.999 57c67.333 0 116.333 -13 147 -39zM524.502 704.995c10.333 12 15.5 26.333 15.5 43
c0 12.667 -4.33301 23 -13 31s-21.667 12 -39 12c-21.333 0 -37.166 -6 -47.499 -18s-15.5 -26.333 -15.5 -43c0 -12.667 4.16699 -23 12.5 -31s21.166 -12 38.499 -12c22 0 38.167 6 48.5 18zM366.002 903.995l124 164h311l-161 -164h-274z" />
    <glyph glyph-name="uni0218" unicode="&#x218;" horiz-adv-x="1000" 
d="M358.5 224.5c1.66699 -7.66699 6.16895 -15.166 13.502 -22.499c19.333 -19.333 56.666 -29 111.999 -29h6c58.667 0 99 6.33301 121 19c10 5.33301 16.833 11.166 20.5 17.499s5.5 13.5 5.5 21.5c0 16.667 -7.66699 28.667 -23 36
c-20.667 10.667 -54.667 16.334 -102 17.001l-76 2c-125.333 4 -214.333 26.667 -267 68c-24.667 19.333 -42.167 42.5 -52.5 69.5s-15.5 58.5 -15.5 94.5c0 68.667 27.333 123 82 163c69.333 49.333 180.666 74 333.999 74h46c126 0 223 -12 291 -36
c60.667 -21.333 101.667 -51.333 123 -90c12 -23.333 18 -50 18 -80c0 -12 -1 -24.667 -3 -38h-314c0 18.667 -5.66699 32.667 -17 42c-22 15.333 -59 23 -111 23h-7c-54.667 0 -92 -5.33301 -112 -16c-8.66699 -4.66699 -14.667 -10 -18 -16s-5 -13.333 -5 -22
c0 -14 7.66699 -24.667 23 -32c18 -8.66699 50 -13.334 96 -14.001l78 -2c71.333 -2 129.833 -8.5 175.5 -19.5s81.167 -26.5 106.5 -46.5c24 -18.667 40.667 -41.667 50 -69s14 -60 14 -98c0 -74 -28.667 -131.667 -86 -173c-74.667 -53.333 -200 -80 -376 -80h-22
c-128 0 -228 14.667 -300 44c-59.333 24 -99 58 -119 102c-10.667 23.333 -16 49 -16 77c0 14 1 27 3 39h321c0 -9.33301 0.833008 -17.833 2.5 -25.5zM366.002 -297.999c25.333 37.333 42.333 65.666 51 84.999h-125l33 167h297l-22 -116
c-5.33301 -23.333 -14.5 -47.166 -27.5 -71.499s-27.167 -45.833 -42.5 -64.5h-164z" />
    <glyph glyph-name="uni0219" unicode="&#x219;" horiz-adv-x="824" 
d="M329 159c12 -10.667 31 -16.001 57 -16.001h2c30 0 51 3 63 9s18 14.333 18 25c0 12 -5 21 -15 27c-11.333 6 -33.333 9.33301 -66 10l-74 4c-90.667 4 -156 22 -196 54c-33.333 27.333 -50 66.333 -50 117c0 56 24 99 72 129c56.667 35.333 150 53 280 53h20
c143.333 0 243.666 -17.667 300.999 -53c23.333 -15.333 39.333 -33.666 48 -54.999s12.667 -46.333 12 -75h-297c-1.33301 10.667 -5.66602 19.334 -12.999 26.001c-11.333 10 -30.333 15 -57 15h-5c-28 0 -47.667 -3 -59 -9c-10.667 -6 -16 -14.667 -16 -26
c0 -10.667 5.66699 -18.667 17 -24c12.667 -6 33.334 -9.33301 62.001 -10l75 -3c96.667 -4 165.667 -20.667 207 -50c34.667 -26 52 -66 52 -120c0 -56.667 -21.667 -101.334 -65 -134.001c-58.667 -44 -159 -66 -301 -66h-28c-108 0 -190.667 10.667 -248 32
c-48.667 18 -81.334 43.333 -98.001 76c-12 22 -17.333 52.333 -16 91h305c0 -11.333 4.33301 -20.333 13 -27zM265 -298.001c25.333 37.333 42.333 65.666 51 84.999h-125l33 167h297l-22 -116c-5.33301 -23.333 -14.5 -47.166 -27.5 -71.499s-27.167 -45.833 -42.5 -64.5
h-164z" />
    <glyph glyph-name="uni0401" unicode="&#x401;" horiz-adv-x="907" 
d="M170 744h761l-37 -187h-461l-16 -84h447l-38 -191h-446l-18 -93h468l-37 -189h-768zM560 951l-30 -157h-265l30 157h265zM873 951l-30 -157h-265l30 157h265z" />
    <glyph glyph-name="uni0403" unicode="&#x403;" horiz-adv-x="827" 
d="M25 0l145 744h712l-38 -199h-414l-107 -545h-298zM665 794h-273l117 161h309z" />
    <glyph glyph-name="uni040E" unicode="&#x40e;" horiz-adv-x="1050" 
d="M672 165c-25.333 -30.667 -48.001 -55.666 -68.001 -74.999s-41.333 -35.333 -64 -48c-25.333 -14 -54.166 -24.5 -86.499 -31.5s-70.5 -10.5 -114.5 -10.5h-245l38 199h140c21.333 0 32 9.66699 32 29c0 9.33301 -2.33301 18.666 -7 27.999l-212 488h330l139 -341
l272 341h319zM430.999 860.001c-23.333 28.667 -34.999 63.334 -34.999 104.001l1 17h182c0 -4.66699 0.333008 -10.334 1 -17.001s2.66699 -12.667 6 -18c8 -15.333 23.667 -23 47 -23h2c22 0 39 7.33301 51 22c9.33301 11.333 14.666 23.333 15.999 36h180
c-2 -20 -7.16699 -40.667 -15.5 -62s-20.833 -41 -37.5 -59c-44 -47.333 -106.667 -71 -188 -71h-14c-92.667 0 -158 23.667 -196 71z" />
    <glyph glyph-name="uni0410" unicode="&#x410;" horiz-adv-x="1055" 
d="M717 0l-29 113h-366l-71 -113h-312l484 744h386l211 -744h-303zM640 297l-59 227l-143 -227h202z" />
    <glyph glyph-name="uni0411" unicode="&#x411;" horiz-adv-x="1040" 
d="M170 744l855.001 0.000976562l-35 -184h-558l-15 -76h222c129.333 0 222 -21.333 278 -64c24 -18.667 41 -40.834 51 -66.501s15 -54.5 15 -86.5c0 -81.333 -26.667 -144 -80 -188c-62.667 -52.667 -159.334 -79 -290.001 -79h-588zM573.001 184.001
c36.667 0 63.333 6.33496 80 19.002c12.667 9.33301 19 23.666 19 42.999c0 17.333 -5.83301 30.666 -17.5 39.999s-32.5 14 -62.5 14h-211l-23 -116h215z" />
    <glyph glyph-name="uni0412" unicode="&#x412;" horiz-adv-x="1082" 
d="M170 744l627.998 -0.00195312c94.667 0 164 -16.333 208 -49c39.333 -29.333 59 -70 59 -122c0 -48 -21 -87.333 -63 -118c-17.333 -12 -36.166 -21.667 -56.499 -29s-40.166 -11.666 -59.499 -12.999c40 -6 74 -20.667 102 -44c35.333 -29.333 53 -69.666 53 -120.999
c0 -72 -23.333 -129 -70 -171c-56.667 -51.333 -147.667 -77 -273 -77h-673zM431.998 558.998l-18.001 -93h255c51.333 0 77 16.667 77 50c0 15.333 -5.16699 26.333 -15.5 33s-27.166 10 -50.499 10h-248zM380.997 295.998l-20 -103h278c32 0 55 6.33301 69 19
c10 9.33301 15 21.333 15 36s-4 25.667 -12 33c-11.333 10 -31.333 15 -60 15h-270z" />
    <glyph glyph-name="uni0413" unicode="&#x413;" horiz-adv-x="827" 
d="M25 0l145 744h712l-38 -199h-414l-107 -545h-298z" />
    <glyph glyph-name="uni0414" unicode="&#x414;" horiz-adv-x="1163" 
d="M108 199c32.667 55.333 59.666 116 80.999 182c24.667 76 54.334 197 89.001 363h832l-107 -545h120l-63 -324h-268l25 125h-574l-25 -125h-268l63 324h95zM704.999 199l69 346h-265c-20.667 -92 -41.667 -167.333 -63 -226c-12 -32.667 -30 -72.667 -54 -120h313z" />
    <glyph glyph-name="uni0415" unicode="&#x415;" horiz-adv-x="907" 
d="M170 744h761l-37 -187h-461l-16 -84h447l-38 -191h-446l-18 -93h468l-37 -189h-768z" />
    <glyph glyph-name="uni0416" unicode="&#x416;" horiz-adv-x="1518" 
d="M549 0l60 311l-314 -311h-373l432 414l-263 330h335l215 -270l52 270h297l-52 -271l319 271h344l-404 -342l269 -402h-356l-203 313l-61 -313h-297z" />
    <glyph glyph-name="uni0417" unicode="&#x417;" horiz-adv-x="1053" 
d="M68 482c12.667 92 68 161.334 166 208.001c89.333 43.333 205.666 65 348.999 65h32c158 0 271.667 -19 341 -57c57.333 -32 86 -77.667 86 -137c0 -48 -18 -86.667 -54 -116c-29.333 -23.333 -70.666 -39.666 -123.999 -48.999c44 -8.66699 78.667 -24.334 104 -47.001
c33.333 -30 50 -66.333 50 -109c0 -42 -8.33301 -78.5 -25 -109.5s-43.334 -56.833 -80.001 -77.5c-76 -44 -199.667 -66 -371 -66h-24c-160 0 -282.333 23 -367 69c-86.667 46 -130 112 -130 198c0 5.33301 0.666992 14.666 2 27.999h321c-1.33301 -9.33301 -2 -16 -2 -20
c0 -30.667 15.667 -53.167 47 -67.5s78 -21.5 140 -21.5c66 0 111.333 5.66699 136 17c12.667 5.33301 21.667 12 27 20s8 18 8 30c0 20 -9.33301 34.333 -28 43c-18 8.66699 -51 13 -99 13h-155l34 176h163c36.667 0 63.834 4.16699 81.501 12.5s26.5 21.5 26.5 39.5
c0 16.667 -7.33301 28.667 -22 36c-21.333 10.667 -56 16 -104 16c-62 0 -109.667 -7 -143 -21c-39.333 -16 -61 -40.333 -65 -73h-321z" />
    <glyph glyph-name="uni0418" unicode="&#x418;" horiz-adv-x="1086" 
d="M658 0l81 420l-416 -420h-298l144 744h298l-81 -420l416 420h298l-144 -744h-298z" />
    <glyph glyph-name="uni0419" unicode="&#x419;" horiz-adv-x="1086" 
d="M658 0l81 420l-416 -420h-298l144 744h298l-81 -420l416 420h298l-144 -744h-298zM459 860c-23.333 28.667 -34.999 63.334 -34.999 104.001l1 17h182c0 -4.66699 0.333008 -10.334 1 -17.001s2.66699 -12.667 6 -18c8 -15.333 23.667 -23 47 -23h2
c22 0 39 7.33301 51 22c9.33301 11.333 14.666 23.333 15.999 36h180c-2 -20 -7.16699 -40.667 -15.5 -62s-20.833 -41 -37.5 -59c-44 -47.333 -106.667 -71 -188 -71h-14c-92.667 0 -158 23.667 -196 71z" />
    <glyph glyph-name="uni041A" unicode="&#x41a;" horiz-adv-x="1000" 
d="M617 0l-232 322l-62 -322h-298l145 744h297l-53 -275l314 275h355l-411 -351l295 -393h-350z" />
    <glyph glyph-name="uni041B" unicode="&#x41b;" horiz-adv-x="1046" 
d="M724 545l-227 0.00195312c-36.667 -188.667 -77 -320.334 -121 -395.001c-10 -17.333 -20.833 -33.5 -32.5 -48.5s-27.834 -29.5 -48.501 -43.5c-56.667 -38.667 -133.667 -58 -231 -58h-84l44 229h7c28 0 50.333 4.83301 67 14.5s30.667 23.167 42 40.5
c10.667 18 19.334 36.333 26.001 55c11.333 37.333 22.333 80 33 128c12 53.333 30.333 145.666 55 276.999h806l-144 -744h-298z" />
    <glyph glyph-name="uni041C" unicode="&#x41c;" horiz-adv-x="1328" 
d="M25 0l145 744h397l107 -381l249 381h418l-144 -744h-294l88 452l-300 -452h-171l-123 452l-88 -452h-284z" />
    <glyph glyph-name="uni041D" unicode="&#x41d;" horiz-adv-x="1100" 
d="M25 0l145 744h298l-49 -255h348l49 255h298l-145 -744h-297l53 274h-348l-53 -274h-299z" />
    <glyph glyph-name="uni041E" unicode="&#x41e;" horiz-adv-x="1108" 
d="M617 757c122.667 0 221.333 -18.998 296 -56.998c64 -32 109.667 -76.333 137 -133c22 -46 33 -97.333 33 -154c0 -67.333 -11.667 -128.333 -35 -183c-32 -72.667 -81.333 -129 -148 -169c-83.333 -49.333 -191.666 -74 -324.999 -74h-45
c-123.333 0 -222 19.333 -296 58c-64 33.333 -109.667 78.666 -137 135.999c-22 44.667 -33 96 -33 154c0 67.333 12 127.666 36 180.999c31.333 72 80.666 128 147.999 168c82.667 48.667 190.667 73 324 73h45zM738.999 494.002c-29.333 30.667 -77.667 46 -145 46
c-86.667 0 -148 -25.333 -184 -76c-22.667 -32 -34 -71.667 -34 -119c0 -36.667 11.333 -66.667 34 -90c29.333 -31.333 77.333 -47 144 -47c88 0 149.667 25 185 75c22 31.333 33 71.333 33 120c0 36.667 -11 67 -33 91z" />
    <glyph glyph-name="uni041F" unicode="&#x41f;" horiz-adv-x="1061" 
d="M25 0l145 744h905l-145 -744h-298l106 545h-309l-106 -545h-298z" />
    <glyph glyph-name="uni0420" unicode="&#x420;" horiz-adv-x="1036" 
d="M365 215l-41 -215h-299l145 744h514c132.667 0 226 -21 280 -63c26 -20 44.5 -45 55.5 -75s16.5 -65.333 16.5 -106c0 -88 -25.667 -155 -77 -201c-62.667 -56 -164 -84 -304 -84h-290zM405 416h228c35.333 0 60.333 8 75 24c12 12.667 18 28.667 18 48
c0 17.333 -4.66699 30.333 -14 39c-12.667 10.667 -34 16 -64 16h-220z" />
    <glyph glyph-name="uni0421" unicode="&#x421;" horiz-adv-x="1086" 
d="M929 702c64 -30 107.333 -71.9971 130 -125.997c11.333 -28 17 -60 17 -96c0 -16 -1 -31.667 -3 -47h-311c0 25.333 -7.66699 46 -23 62c-30 30 -82 45 -156 45c-80.667 0 -137.667 -23.667 -171 -71c-24 -33.333 -36 -73.666 -36 -120.999
c0 -38.667 10.667 -69.667 32 -93c26.667 -31.333 71.667 -47 135 -47c70 0 123.333 15.667 160 47c14 12.667 23.333 24.334 28 35.001c2 3.33301 4.66699 10.666 8 21.999h311c-9.33301 -58.667 -24.333 -106.334 -45 -143.001c-32.667 -56 -79.334 -98.333 -140.001 -127
c-78 -36.667 -178 -55 -300 -55h-44c-122 0 -219.667 18.667 -293 56c-62 31.333 -106.333 75.666 -133 132.999c-21.333 44.667 -32 98.667 -32 162s11.667 121.666 35 174.999c31.333 71.333 80 127.666 146 168.999c80.667 50 186.334 75 317.001 75h44
c136 0 244 -18.333 324 -55z" />
    <glyph glyph-name="uni0422" unicode="&#x422;" horiz-adv-x="982" 
d="M289 0l102 522h-298l43 222h892l-43 -222h-297l-101 -522h-298z" />
    <glyph glyph-name="uni0423" unicode="&#x423;" horiz-adv-x="1050" 
d="M672 165c-25.333 -30.667 -48.001 -55.666 -68.001 -74.999s-41.333 -35.333 -64 -48c-25.333 -14 -54.166 -24.5 -86.499 -31.5s-70.5 -10.5 -114.5 -10.5h-245l38 199h140c21.333 0 32 9.66699 32 29c0 9.33301 -2.33301 18.666 -7 27.999l-212 488h330l139 -341
l272 341h319z" />
    <glyph glyph-name="uni0424" unicode="&#x424;" horiz-adv-x="1411" 
d="M499 -10l18.002 87h-120c-104.667 0 -187.667 22.667 -249 68c-66 48.667 -99 118.667 -99 210c0 57.333 11.167 107 33.5 149s53.166 76.333 92.499 103c36 24 77.333 41.833 124 53.5s95.667 17.5 147 17.5h188l14 76h298l-14 -76h106
c116.667 0 205.667 -21.333 267 -64c64 -46 96 -116.333 96 -211c0 -111.333 -39.333 -195.333 -118 -252c-35.333 -25.333 -77.333 -44 -126 -56s-101.334 -18 -158.001 -18h-184l-18 -87h-298zM556.002 276l39.001 202.999h-108c-34.667 0 -63.334 -8 -86.001 -24
c-28 -19.333 -42 -47.666 -42 -84.999c0 -31.333 11 -54.833 33 -70.5s53.333 -23.5 94 -23.5h70zM854.003 275.999h97c44 0 78.333 9.16699 103 27.5s37 46.833 37 85.5c0 60 -41.667 90 -125 90h-73z" />
    <glyph glyph-name="uni0425" unicode="&#x425;" horiz-adv-x="1027" 
d="M648 0l-130 235l-214 -235h-370l360 394l-199 350h348l116 -212l192 212h357l-332 -359l211 -385h-339z" />
    <glyph glyph-name="uni0426" unicode="&#x426;" horiz-adv-x="1129" 
d="M758 -125l24 125h-757l145 744h298l-106 -545h309l106 545h298l-106 -545h120l-63 -324h-268z" />
    <glyph glyph-name="uni0427" unicode="&#x427;" horiz-adv-x="1067" 
d="M691 269c-39.333 -5.33301 -71.668 -9.33301 -97.001 -12c-27.333 -3.33301 -64.666 -5 -111.999 -5c-74 0 -137 6.16699 -189 18.5s-93.333 31.833 -124 58.5c-46.667 38.667 -70 96 -70 172c0 30 3.33301 61.667 10 95l28 148h298l-29 -147
c-2.66699 -16 -4 -27.333 -4 -34c0 -32.667 12.667 -57.667 38 -75c26.667 -18.667 71 -28 133 -28c66 0 118.333 4.66699 157 14l53 270h298l-145 -744h-298z" />
    <glyph glyph-name="uni0428" unicode="&#x428;" horiz-adv-x="1420" 
d="M25 0l145 744h298l-107 -545h185l107 545h298l-107 -545h185l107 545h298l-145 -744h-1264z" />
    <glyph glyph-name="uni0429" unicode="&#x429;" horiz-adv-x="1488" 
d="M25 0l145 744h298l-107 -545h185l107 545h298l-107 -545h185l107 545h298l-106 -545h120l-62 -324h-268l24 125h-1117z" />
    <glyph glyph-name="uni042A" unicode="&#x42a;" horiz-adv-x="1199" 
d="M590 530l224 -0.000976562c123.333 0 214.333 -23 273 -69c51.333 -41.333 77 -98.666 77 -171.999c0 -91.333 -29.667 -161 -89 -209c-66.667 -53.333 -171.667 -80 -315 -80h-571l105 545h-224l38 199h523zM748 198.999c38 0 65.167 6.16797 81.5 18.501
s24.5 30.166 24.5 53.499c0 40 -30.333 60 -91 60h-212l-26 -132h223z" />
    <glyph glyph-name="uni042B" unicode="&#x42b;" horiz-adv-x="1490" 
d="M426 530l224 -0.000976562c123.333 0 214.333 -23 273 -69c51.333 -41.333 77 -98.666 77 -171.999c0 -91.333 -29.667 -161 -89 -209c-66.667 -53.333 -171.667 -80 -315 -80h-571l144 744h298zM584 198.999c38 0 65.167 6.16797 81.5 18.501s24.5 30.166 24.5 53.499
c0 40 -30.333 60 -91 60h-212l-26 -132h223zM1503 744l-144 -744h-299l145 744h298z" />
    <glyph glyph-name="uni042C" unicode="&#x42c;" horiz-adv-x="1035" 
d="M426 530l224 -0.000976562c123.333 0 214.333 -23 273 -69c51.333 -41.333 77 -98.666 77 -171.999c0 -91.333 -29.667 -161 -89 -209c-66.667 -53.333 -171.667 -80 -315 -80h-571l144 744h298zM584 198.999c38 0 65.167 6.16797 81.5 18.501s24.5 30.166 24.5 53.499
c0 40 -30.333 60 -91 60h-212l-26 -132h223z" />
    <glyph glyph-name="uni042D" unicode="&#x42d;" horiz-adv-x="1097" 
d="M1045.5 250.5c-17.667 -50.333 -45.5029 -94.502 -83.5029 -132.502c-87.333 -87.333 -221.666 -131 -402.999 -131h-65c-124 0 -225.333 18.333 -304 55c-64 28.667 -109.333 69.334 -136 122.001c-16.667 30.667 -25 62.667 -25 96c0 11.333 1 22 3 32h321
c0 -2 1.66699 -8.66699 5 -20c4 -11.333 12.5 -22.333 25.5 -33s30.833 -20 53.5 -28c24 -8.66699 57.667 -13 101 -13c54 0 97.833 7.33301 131.5 22s58.834 36.334 75.501 65.001h-312l36 183h292c-23.333 54.667 -80.666 82 -171.999 82c-74 0 -129 -14.333 -165 -43
c-14 -10 -23.667 -21 -29 -33l-10 -21h-321c10 50.667 29 95 57 133c38 50 90 89.667 156 119c78 34.667 175.667 52 293 52h42c117.333 0 213.333 -18.667 288 -56c62 -30.667 107.667 -75 137 -133c23.333 -46 35 -97.333 35 -154
c0 -58.667 -8.83301 -113.167 -26.5 -163.5z" />
    <glyph glyph-name="uni042E" unicode="&#x42e;" horiz-adv-x="1498" 
d="M1438 230c-30 -72 -78.335 -128.334 -145.002 -169.001c-80 -49.333 -186 -74 -318 -74h-45c-152 0 -266.333 31 -343 93c-59.333 47.333 -95.666 112 -108.999 194h-101l-53 -274h-299l145 744h298l-49 -255h80c26.667 78.667 73.334 140.334 140.001 185.001
c83.333 55.333 194.333 83 333 83h45c119.333 0 216 -19 290 -57c61.333 -32 106 -76.333 134 -133c21.333 -46 32 -97.333 32 -154c0 -67.333 -11.667 -128.333 -35 -183zM1131 493.999c-27.333 30.667 -73 46 -137 46c-82.667 0 -141.334 -25.333 -176.001 -76
c-21.333 -31.333 -32 -71 -32 -119c0 -36.667 10.333 -66.667 31 -90c26.667 -31.333 72.334 -47 137.001 -47c57.333 0 104 12.667 140 38c27.333 19.333 46.333 46.333 57 81c7.33301 22.667 11 48 11 76c0 36.667 -10.333 67 -31 91z" />
    <glyph glyph-name="uni042F" unicode="&#x42f;" horiz-adv-x="1118" 
d="M586 223l-265.999 -223h-360l320 268c-59.333 15.333 -105 41.5 -137 78.5s-48 82.167 -48 135.5c0 84 31.167 148.667 93.5 194s155.166 68 278.499 68h665l-144 -744h-298l43 223h-147zM795.001 542h-308.999c-29.333 0 -51 -7 -65 -21
c-10.667 -10.667 -16 -24 -16 -40s5.66699 -29 17 -39s28.666 -15 51.999 -15h299z" />
    <glyph glyph-name="uni0430" unicode="&#x430;" horiz-adv-x="848" 
d="M69 375c3.33301 26 9.83398 49.9971 19.501 71.9971s26.167 42 49.5 60c59.333 45.333 156.333 68 291 68h33c143.333 0 240 -21.667 290 -65c29.333 -26 44 -59 44 -99c0 -8.66699 -1.33301 -21.667 -4 -39l-32 -161v-6c0 -8.66699 4.33301 -13 13 -13h37l-38 -192h-222
c-24.667 0 -45.334 7.66699 -62.001 23c-12.667 10.667 -21.334 25 -26.001 43c-16 -18 -36.333 -33.333 -61 -46c-41.333 -21.333 -90.333 -32 -147 -32h-17c-69.333 0 -123.5 14.5 -162.5 43.5s-58.5 69.5 -58.5 121.5c0 58.667 18.333 102.334 55 131.001
c45.333 36 120.333 55.667 225 59l174 7c15.333 0.666992 26.5 3.83398 33.5 9.50098s10.5 13.834 10.5 24.501c0 13.333 -5 23.333 -15 30c-11.333 7.33301 -32 11 -62 11h-4c-33.333 0 -57 -6.33301 -71 -19c-9.33301 -8.66699 -14.666 -19 -15.999 -31h-277z
M448.001 164.997c18.667 16.667 30.667 38.333 36 65l4 19l-94 -14c-40 -6.66699 -66.333 -14 -79 -22c-7.33301 -4 -12.333 -8.83301 -15 -14.5s-4 -12.5 -4 -20.5c0 -28.667 22.667 -43 68 -43c34 0 62 10 84 30z" />
    <glyph glyph-name="uni0431" unicode="&#x431;" horiz-adv-x="899" 
d="M747 52c-69.333 -44.667 -168.999 -66.999 -298.999 -66.999h-30c-110.667 0 -198.334 22.333 -263.001 67c-79.333 52.667 -119 135.334 -119 248.001c0 149.333 45 261.666 135 336.999c81.333 68 199.333 102 354 102h39c26 0 43.333 1.66699 52 5
c8 2.66699 14.333 7 19 13h300c-8.66699 -41.333 -17.834 -74 -27.501 -98s-23.5 -43.333 -41.5 -58c-20 -16.667 -46.5 -28.834 -79.5 -36.501s-76.167 -11.5 -129.5 -11.5h-75c-94 0 -161 -9 -201 -27c-20.667 -10 -36.667 -22.833 -48 -38.5
s-18.666 -34.834 -21.999 -57.501c32 26.667 67.5 46.5 106.5 59.5s87.167 19.5 144.5 19.5h14c86 0 154.667 -18.667 206 -56c53.333 -38.667 80 -95 80 -169c0 -105.333 -38.333 -182.666 -115 -231.999zM442.001 158.001c46 0 78.667 11.999 98 35.999
c15.333 18.667 23 42.334 23 71.001c0 26.667 -8.5 48.167 -25.5 64.5s-41.167 24.5 -72.5 24.5h-6c-41.333 0 -72.666 -10.667 -93.999 -32c-19.333 -19.333 -29 -44 -29 -74c0 -25.333 8 -46 24 -62c17.333 -18.667 42.666 -28 75.999 -28h6z" />
    <glyph glyph-name="uni0432" unicode="&#x432;" horiz-adv-x="904" 
d="M13 0l108 559.999h513c69.333 0 123.333 -10 162 -30c40 -21.333 60 -53.666 60 -96.999c0 -37.333 -13 -68.333 -39 -93c-22 -22 -53.333 -38 -94 -48c36 -8.66699 64.667 -22 86 -40c25.333 -22 38 -49.333 38 -82c0 -113.333 -77 -170 -231 -170h-603zM520 342.999
c42 0 63 15.667 63 47c0 13.333 -4.5 23.333 -13.5 30s-24.167 10 -45.5 10h-143l-17 -87h156zM488 130.999c48 0 72 16.667 72 50c0 14.667 -5.16699 25.5 -15.5 32.5s-27.5 10.5 -51.5 10.5h-152l-18 -93h165z" />
    <glyph glyph-name="uni0433" unicode="&#x433;" horiz-adv-x="668" 
d="M13 0l108 560h574l-33 -173h-289l-75 -387h-285z" />
    <glyph glyph-name="uni0434" unicode="&#x434;" horiz-adv-x="984" 
d="M16 173h80.001c21.333 35.333 41.666 87.333 60.999 156c18 62.667 33.333 139.667 46 231h711l-75 -387h100l-57 -291h-265l23 118h-393l-23 -118h-265zM554.001 173l42 219.001h-158c-4.66699 -28.667 -13 -64.334 -25 -107.001c-13.333 -44.667 -28 -82 -44 -112h185z
" />
    <glyph glyph-name="uni0435" unicode="&#x435;" horiz-adv-x="895" 
d="M840 187c-11.333 -54 -39.665 -97.333 -84.998 -130c-66.667 -48 -170 -72 -310 -72h-49c-132 0 -228 28.333 -288 85c-48 45.333 -72 106.666 -72 183.999c0 46.667 9.33301 91.334 28 134.001c23.333 54 62.666 97 117.999 129c66 38.667 152.333 58 259 58h45
c159.333 0 267.333 -31.667 324 -95c34 -38 51 -87 51 -147c0 -23.333 -2.66699 -49.333 -8 -78l-4 -21h-517c3.33301 -30 13.666 -51.833 30.999 -65.5s43 -20.5 77 -20.5c31.333 0 56 5.33301 74 16c10.667 6 19 13.667 25 23h301zM344.001 348h225.999
c0 53.333 -35 80 -105 80c-61.333 0 -101.666 -26.667 -120.999 -80z" />
    <glyph glyph-name="uni0436" unicode="&#x436;" horiz-adv-x="1228" 
d="M419 0l47 242l-210 -242h-311l278 312l-146 248h302l108 -207l40 207h285l-40 -206l188 206h308l-253 -261l155 -299h-303l-116 241l-47 -241h-285z" />
    <glyph glyph-name="uni0437" unicode="&#x437;" horiz-adv-x="903" 
d="M59 377c13.333 67.333 53.332 116.999 119.999 148.999c67.333 32.667 168.666 49 303.999 49h16c126 0 220.333 -13 283 -39c57.333 -24 86 -60 86 -108c0 -31.333 -8.66699 -57.333 -26 -78c-22 -25.333 -60.667 -43.666 -116 -54.999c36.667 -8 65.334 -21 86.001 -39
c24.667 -21.333 37 -50.333 37 -87c0 -26 -5.16699 -49.5 -15.5 -70.5s-28.5 -39.5 -54.5 -55.5c-64 -38.667 -172.333 -58 -325 -58h-18c-136 0 -238.5 17.167 -307.5 51.5s-103.5 84.166 -103.5 149.499c0 10 0.333008 17.333 1 22h305
c-2.66699 -26 9.33301 -44.667 36 -56c20 -8.66699 46.333 -13 79 -13c31.333 0 56.333 4.33301 75 13s28 21.334 28 38.001c0 15.333 -6.66699 25.5 -20 30.5s-34.666 7.5 -63.999 7.5h-109l24 121h122c22 0 39.167 3.5 51.5 10.5s18.5 17.167 18.5 30.5
c0 12.667 -5.66699 22.667 -17 30c-11.333 6.66699 -34 10 -68 10c-33.333 0 -61.333 -4.5 -84 -13.5s-36.667 -22.167 -42 -39.5h-302z" />
    <glyph glyph-name="uni0438" unicode="&#x438;" horiz-adv-x="926" 
d="M578 296l-275 -296h-290l108 560h285l-58 -301l276 301h290l-108 -560h-285z" />
    <glyph glyph-name="uni0439" unicode="&#x439;" horiz-adv-x="926" 
d="M578 296l-275 -296h-290l108 560h285l-58 -301l276 301h290l-108 -560h-285zM341 679c-22.667 28 -34 62.6689 -34 104.002c0 8.66699 0.333008 15 1 19h182v-18c0 -16.667 6.66699 -28.667 20 -36c6.66699 -4.66699 17 -7 31 -7h2c21.333 0 37.666 8 48.999 24
c8.66699 11.333 13.667 23.666 15 36.999h182c-2 -20.667 -7 -41.834 -15 -63.501s-20.333 -41.5 -37 -59.5c-43.333 -48 -105.666 -72 -186.999 -72h-14c-92.667 0 -157.667 24 -195 72z" />
    <glyph glyph-name="uni043A" unicode="&#x43a;" horiz-adv-x="814" 
d="M465 0l-121 237l-46 -237h-285l109 560h285l-39 -199l178 199h308l-246 -260l162 -300h-305z" />
    <glyph glyph-name="uni043B" unicode="&#x43b;" horiz-adv-x="880" 
d="M550 387l-138.004 0.000976562c-23.333 -122 -49.666 -209.667 -78.999 -263c-21.333 -36.667 -45.666 -64.334 -72.999 -83.001c-42 -27.333 -99 -41 -171 -41h-108l33 173h6c20.667 0 37.667 4 51 12s25.333 21.667 36 41c6.66699 13.333 12.334 26.333 17.001 39
s9.33398 29.667 14.001 51c5.33301 24.667 11.333 55 18 91l28 153h684l-108 -560h-285z" />
    <glyph glyph-name="uni043C" unicode="&#x43c;" horiz-adv-x="1116" 
d="M419 0l-84 325l-64 -325h-258l108 560h379l64 -249l161 249h379l-108 -560h-280l64 326l-212 -326h-149z" />
    <glyph glyph-name="uni043D" unicode="&#x43d;" horiz-adv-x="915" 
d="M298 0h-285l108 560h285l-36 -189h212l36 189h285l-108 -560h-285l38 198h-212z" />
    <glyph glyph-name="uni043E" unicode="&#x43e;" horiz-adv-x="899" 
d="M419 -15c-107.333 0 -191.001 14.9971 -251.001 44.9971c-51.333 25.333 -87.666 60.333 -108.999 105c-15.333 32 -23 71.667 -23 119c0 44.667 8 86.334 24 125.001c22.667 56.667 60.667 101.334 114 134.001c67.333 41.333 157.666 62 270.999 62h35
c106 0 190.333 -14.333 253 -43c50.667 -23.333 86.334 -57.333 107.001 -102c14.667 -32.667 22 -72 22 -118c0 -53.333 -6.66699 -97.666 -20 -132.999c-20.667 -57.333 -58 -102 -112 -134c-68 -40 -160.333 -60 -277 -60h-34zM354.999 195.997
c16.667 -22 42.667 -33.002 78 -33.002h6c23.333 0 43.333 4.83301 60 14.5s30 22.167 40 37.5c8 12.667 14 26.834 18 42.501s6 30.167 6 43.5c0 28.667 -6.66699 51.334 -20 68.001c-17.333 20.667 -43.333 31 -78 31h-6c-43.333 0 -76 -15.667 -98 -47
c-16.667 -24 -25 -53.667 -25 -89c0 -29.333 6.33301 -52 19 -68z" />
    <glyph glyph-name="uni043F" unicode="&#x43f;" horiz-adv-x="878" 
d="M13 0l108 560h745l-108 -560h-285l75 387h-175l-75 -387h-285z" />
    <glyph glyph-name="uni0440" unicode="&#x440;" horiz-adv-x="911" 
d="M395 496c14 16 36 31 66 45c44 20 91.333 30 142 30h9c87.333 0 154.333 -26 201 -78c42 -46.667 63 -108 63 -184c0 -38.667 -5.5 -76.334 -16.5 -113.001s-28.833 -69.667 -53.5 -99c-60.667 -72 -150.667 -108 -270 -108h-10c-59.333 0 -110.333 10.333 -153 31
c-23.333 10.667 -44.333 25.334 -63 44.001l-49 -252h-285l146 748h285zM452 167c42 0 74.667 15.667 98 47c16.667 24 25 52.333 25 85c0 27.333 -6.66699 49 -20 65c-16.667 20 -42 30 -76 30h-5c-42.667 0 -75 -15.667 -97 -47c-17.333 -24.667 -26 -52.667 -26 -84
c0 -26 6.66699 -47.667 20 -65c16 -20.667 41.333 -31 76 -31h5z" />
    <glyph glyph-name="uni0441" unicode="&#x441;" horiz-adv-x="875" 
d="M831 240c-6.66699 -38 -17.0039 -70.3301 -31.0039 -96.9971c-25.333 -45.333 -61.666 -81 -108.999 -107c-63.333 -34 -144.666 -51 -243.999 -51h-49c-137.333 0 -235.333 28.667 -294 86c-45.333 43.333 -68 102.666 -68 177.999c0 54.667 9.66699 103.667 29 147
c24.667 54 64.334 96 119.001 126c65.333 35.333 150.333 53 255 53h36c114.667 0 202.334 -14.667 263.001 -44c50.667 -24 84 -57 100 -99c8 -20.667 12 -43.334 12 -68.001c0 -8 -0.666992 -18.667 -2 -32h-297c0 16 -5 29.667 -15 41c-15.333 16.667 -40.333 25 -75 25
h-8c-39.333 0 -69.666 -15 -90.999 -45c-17.333 -24.667 -26 -56 -26 -94c0 -28.667 6 -51 18 -67c13.333 -18.667 35.333 -28 66 -28h7c34.667 0 62 10 82 30c11.333 11.333 19.666 26.666 24.999 45.999h297z" />
    <glyph glyph-name="uni0442" unicode="&#x442;" horiz-adv-x="734" 
d="M171 0l75 387h-205l33 173h695l-33 -173h-205l-75 -387h-285z" />
    <glyph glyph-name="uni0443" unicode="&#x443;" horiz-adv-x="812" 
d="M35 -15l125 -0.000976562c8 0 13.5 1.33301 16.5 4s4.5 6.66699 4.5 12c0 4.66699 -2.33301 17 -7 37l-131 522h304l38 -347l176 347h304l-365 -601c-15.333 -26 -30 -47.667 -44 -65s-29.333 -31.666 -46 -42.999c-37.333 -26 -82 -39 -134 -39h-274z" />
    <glyph glyph-name="uni0444" unicode="&#x444;" horiz-adv-x="1203" 
d="M687 -15l-34 -173h-286l34 173c-120 2.66699 -210.833 26.5 -272.5 71.5s-92.5 110.833 -92.5 197.5c0 47.333 9.66699 91 29 131s47.333 74 84 102c36 28.667 79.167 50.5 129.5 65.5s105.833 22.5 166.5 22.5h71l33 169h286l-33 -169c242.667 -4 364 -91.667 364 -263
c0 -51.333 -9.16699 -97.333 -27.5 -138s-44.833 -75 -79.5 -103s-77.5 -49.333 -128.5 -64s-108.833 -22 -173.5 -22h-70zM435 158l48.001 246h-24c-36.667 0 -66.334 -12.833 -89.001 -38.5s-34 -59.5 -34 -101.5c0 -34 8.5 -60.167 25.5 -78.5s40.833 -27.5 71.5 -27.5h2
zM721.001 158l22.002 -0.000976562c17.333 0 33.666 3.66699 48.999 11s28.666 17.333 39.999 30s20 27.834 26 45.501s9 36.5 9 56.5c0 32 -8.66699 57.167 -26 75.5s-41.333 27.5 -72 27.5z" />
    <glyph glyph-name="uni0445" unicode="&#x445;" horiz-adv-x="815" 
d="M464 0l-72 169l-131 -169h-323l251 296l-138 264h308l71 -152l124 152h318l-241 -275l138 -285h-305z" />
    <glyph glyph-name="uni0446" unicode="&#x446;" horiz-adv-x="937" 
d="M892 173l-57 -291h-265l23 118h-580l109 560h285l-75 -387h175l75 387h285l-75 -387h100z" />
    <glyph glyph-name="uni0447" unicode="&#x447;" horiz-adv-x="868" 
d="M855 560l-108.001 -560.001h-285l35 180c-52 -5.33301 -97.333 -8 -136 -8c-68.667 0 -124.5 6.16699 -167.5 18.5s-75.5 30.5 -97.5 54.5c-26 28.667 -39 66.667 -39 114c0 22 2.66699 47.333 8 76l24 125h285l-18 -97c-2.66699 -13.333 -4 -26.666 -4 -39.999
c0 -22 5.66699 -38.667 17 -50c14.667 -14 42.334 -21 83.001 -21c36 0 62.333 1.66699 79 5l39 203h285z" />
    <glyph glyph-name="uni0448" unicode="&#x448;" horiz-adv-x="1238" 
d="M13 0l108 560h285l-75 -387h125l75 387h285l-75 -387h125l75 387h285l-108 -560h-1105z" />
    <glyph glyph-name="uni0449" unicode="&#x449;" horiz-adv-x="1298" 
d="M14 0l108 560h285l-75 -387h125l75 387h285l-75 -387h125l75 387h285l-75 -387h101l-56 -291h-265l22 118h-940z" />
    <glyph glyph-name="uni044A" unicode="&#x44a;" horiz-adv-x="979" 
d="M72 560h428l-26 -134h212c89.333 0 157 -18 203 -54c40 -31.333 60 -76 60 -134c0 -75.333 -25 -133.833 -75 -175.5s-125 -62.5 -225 -62.5h-542l74 387h-143zM574 166c50 0 75 17.333 75 52c0 16.667 -5.33301 28.167 -16 34.5s-27 9.5 -49 9.5h-141l-19 -96h150z" />
    <glyph glyph-name="uni044B" unicode="&#x44b;" horiz-adv-x="1304" 
d="M121 560h285l-26 -134h212c89.333 0 157 -18 203 -54c40 -31.333 60 -76 60 -134c0 -75.333 -25 -133.833 -75 -175.5s-125 -62.5 -225 -62.5h-542zM480 166c50 0 75 17.333 75 52c0 16.667 -5.33301 28.167 -16 34.5s-27 9.5 -49 9.5h-141l-19 -96h150zM1292 560
l-109 -560h-285l109 560h285z" />
    <glyph glyph-name="uni044C" unicode="&#x44c;" horiz-adv-x="885" 
d="M121 560h285l-26 -134h212c89.333 0 157 -18 203 -54c40 -31.333 60 -76 60 -134c0 -75.333 -25 -133.833 -75 -175.5s-125 -62.5 -225 -62.5h-542zM480 166c50 0 75 17.333 75 52c0 16.667 -5.33301 28.167 -16 34.5s-27 9.5 -49 9.5h-141l-19 -96h150z" />
    <glyph glyph-name="uni044D" unicode="&#x44d;" horiz-adv-x="899" 
d="M783 87c-68 -68 -178.668 -101.998 -332.001 -101.998h-49c-148 0 -254 30.333 -318 91c-20 19.333 -34.667 40 -44 62s-14 43.667 -14 65c0 12.667 0.666992 21.667 2 27h305c0 -16.667 6 -31.334 18 -44.001c18.667 -20 45.667 -30 81 -30h7c58 0 97.333 23.667 118 71
h-181l23 118h165c-10.667 40.667 -39 61 -85 61h-8c-38 0 -67 -8.33301 -87 -25c-12 -10 -21.667 -23 -29 -39h-305c7.33301 36 20.333 67 39 93c28 41.333 67 73.333 117 96c64 29.333 144 44 240 44h40c136.667 0 236.334 -27 299.001 -81
c51.333 -44.667 77 -105.667 77 -183c0 -96.667 -26.333 -171.334 -79 -224.001z" />
    <glyph glyph-name="uni044E" unicode="&#x44e;" horiz-adv-x="1259" 
d="M1202 179c-21.333 -58 -57.666 -102.669 -108.999 -134.002c-66.667 -40 -156.667 -60 -270 -60h-34c-127.333 0 -222 23 -284 69c-46.667 34 -75 82 -85 144h-84l-38 -198h-285l108 560h285l-36 -189h66c20 57.333 56.667 103.666 110 138.999
c65.333 43.333 155 65 269 65h35c149.333 0 253.333 -30 312 -90c23.333 -23.333 39.166 -49.666 47.499 -78.999s12.5 -60.666 12.5 -93.999c0 -53.333 -6.66699 -97.666 -20 -132.999zM733 195.998c14 -22 37.334 -32.999 70.001 -32.999h6
c21.333 0 39.666 4.66699 54.999 14s27.666 22 36.999 38c7.33301 12.667 12.833 26.834 16.5 42.501s5.5 30.167 5.5 43.5c0 29.333 -6 52 -18 68c-15.333 20.667 -38.666 31 -69.999 31h-6c-40 0 -70 -15.667 -90 -47c-15.333 -24.667 -23 -54.334 -23 -89.001
c0 -28.667 5.66699 -51.334 17 -68.001z" />
    <glyph glyph-name="uni044F" unicode="&#x44f;" horiz-adv-x="921" 
d="M455 160l-150.001 -159.999h-320l197 210c-31.333 12 -56.166 29.833 -74.499 53.5s-27.5 52.5 -27.5 86.5c0 69.333 25.5 121.666 76.5 156.999s125.5 53 223.5 53h528l-108 -560h-285l31 160h-91zM447.999 407.001c-22.667 0 -40.166 -5 -52.499 -15
s-18.5 -24.333 -18.5 -43c0 -16.667 4.66699 -28.667 14 -36s24.666 -11 45.999 -11h136l21 105h-146z" />
    <glyph glyph-name="uni0451" unicode="&#x451;" horiz-adv-x="895" 
d="M840 187c-11.333 -54 -39.665 -97.333 -84.998 -130c-66.667 -48 -170 -72 -310 -72h-49c-132 0 -228 28.333 -288 85c-48 45.333 -72 106.666 -72 183.999c0 46.667 9.33301 91.334 28 134.001c23.333 54 62.666 97 117.999 129c66 38.667 152.333 58 259 58h45
c159.333 0 267.333 -31.667 324 -95c34 -38 51 -87 51 -147c0 -23.333 -2.66699 -49.333 -8 -78l-4 -21h-517c3.33301 -30 13.666 -51.833 30.999 -65.5s43 -20.5 77 -20.5c31.333 0 56 5.33301 74 16c10.667 6 19 13.667 25 23h301zM344.001 348h225.999
c0 53.333 -35 80 -105 80c-61.333 0 -101.666 -26.667 -120.999 -80zM497 763l-30 -157h-263l30 157h263zM806 763l-30 -157h-263l30 157h263z" />
    <glyph glyph-name="uni0453" unicode="&#x453;" horiz-adv-x="669" 
d="M13 0l108 560h574l-33 -173h-289l-75 -387h-285zM259 611l124 164h311l-161 -164h-274z" />
    <glyph glyph-name="uni045E" unicode="&#x45e;" horiz-adv-x="812" 
d="M35 -15l125 -0.000976562c8 0 13.5 1.33301 16.5 4s4.5 6.66699 4.5 12c0 4.66699 -2.33301 17 -7 37l-131 522h304l38 -347l176 347h304l-365 -601c-15.333 -26 -30 -47.667 -44 -65s-29.333 -31.666 -46 -42.999c-37.333 -26 -82 -39 -134 -39h-274zM271 678.999
c-22.667 28 -34 62.6689 -34 104.002c0 8.66699 0.333008 15 1 19h182v-18c0 -16.667 6.66699 -28.667 20 -36c6.66699 -4.66699 17 -7 31 -7h2c21.333 0 37.666 8 48.999 24c8.66699 11.333 13.667 23.666 15 36.999h182c-2 -20.667 -7 -41.834 -15 -63.501
s-20.333 -41.5 -37 -59.5c-43.333 -48 -105.666 -72 -186.999 -72h-14c-92.667 0 -157.667 24 -195 72z" />
    <glyph glyph-name="uni0490" unicode="&#x490;" horiz-adv-x="827" 
d="M25 0l145 744h444l29 142h268l-29 -142l-38 -199h-414l-107 -545h-298z" />
    <glyph glyph-name="Wgrave" unicode="&#x1e80;" horiz-adv-x="1440" 
d="M548 0h-352l-116 744h308l46 -465l221 465h307l49 -466l218 466h303l-375 -744h-345l-60 434zM673 794l-116 161h307l80 -161h-271z" />
    <glyph glyph-name="wgrave" unicode="&#x1e81;" horiz-adv-x="1227" 
d="M482 0h-352l-78 560h292l17 -327l153 327h300l35 -327l135 327h291l-280 -560h-342l-39 289zM793 611h-268l-119 164h304z" />
    <glyph glyph-name="Wacute" unicode="&#x1e82;" horiz-adv-x="1440" 
d="M548 0h-352l-116 744h308l46 -465l221 465h307l49 -466l218 466h303l-375 -744h-345l-60 434zM946 794h-273l117 161h309z" />
    <glyph glyph-name="wacute" unicode="&#x1e83;" horiz-adv-x="1227" 
d="M482 0h-352l-78 560h292l17 -327l153 327h300l35 -327l135 327h291l-280 -560h-342l-39 289zM525 611l124 164h311l-161 -164h-274z" />
    <glyph glyph-name="Wdieresis" unicode="&#x1e84;" horiz-adv-x="1440" 
d="M548 0h-352l-116 744h308l46 -465l221 465h307l49 -466l218 466h303l-375 -744h-345l-60 434zM807 951l-30 -157h-265l30 157h265zM1120 951l-30 -157h-265l30 157h265z" />
    <glyph glyph-name="wdieresis" unicode="&#x1e85;" horiz-adv-x="1227" 
d="M482 0h-352l-78 560h292l17 -327l153 327h300l35 -327l135 327h291l-280 -560h-342l-39 289zM670 763l-30 -157h-263l30 157h263zM979 763l-30 -157h-263l30 157h263z" />
    <glyph glyph-name="Ygrave" unicode="&#x1ef2;" horiz-adv-x="1021" 
d="M315 0l51 262l-297 482h340l143 -247l243 247h340l-472 -482l-51 -262h-297zM465 794l-116 161h307l80 -161h-271z" />
    <glyph glyph-name="ygrave" unicode="&#x1ef3;" horiz-adv-x="812" 
d="M35 -15l125 -0.000976562c8 0 13.5 1.33301 16.5 4s4.5 6.66699 4.5 12c0 4.66699 -2.33301 17 -7 37l-131 522h304l38 -347l176 347h304l-365 -601c-15.333 -26 -30 -47.667 -44 -65s-29.333 -31.666 -46 -42.999c-37.333 -26 -82 -39 -134 -39h-274zM589 610.999h-268
l-119 164h304z" />
    <glyph glyph-name="endash" unicode="&#x2013;" horiz-adv-x="876" 
d="M81 385h758l-33 -168h-759z" />
    <glyph glyph-name="glyph45" 
d="M621 611h-268l-119 164h304z" />
    <glyph glyph-name="glyph72" 
d="M420 763l-30 -157h-263l30 157h263zM729 763l-30 -157h-263l30 157h263z" />
    <glyph glyph-name="glyph73" 
d="M192 616l28 141h444l-28 -141h-444z" />
    <glyph glyph-name="glyph74" 
d="M219 611l124 164h311l-161 -164h-274z" />
    <glyph glyph-name="glyph137" 
d="M605 775l112 -166h-244l-44 68l-65 -68h-259l168 166h332z" />
    <glyph glyph-name="glyph138" 
d="M245 611l-112 164h244l44 -67l65 67h259l-168 -164h-332z" />
    <glyph glyph-name="glyph139" 
d="M225 679c-22.667 28 -34 62.6689 -34 104.002c0 8.66699 0.333008 15 1 19h182v-18c0 -16.667 6.66699 -28.667 20 -36c6.66699 -4.66699 17 -7 31 -7h2c21.333 0 37.666 8 48.999 24c8.66699 11.333 13.667 23.666 15 36.999h182c-2 -20.667 -7 -41.834 -15 -63.501
s-20.333 -41.5 -37 -59.5c-43.333 -48 -105.666 -72 -186.999 -72h-14c-92.667 0 -157.667 24 -195 72z" />
    <glyph glyph-name="glyph140" 
d="M582 763l-30 -157h-285l30 157h285z" />
    <glyph glyph-name="glyph141" 
d="M590 839c24 -21.333 36.001 -49.667 36.001 -85c0 -40 -10.667 -72.333 -32 -97c-33.333 -38 -91 -57 -173 -57c-67.333 0 -116 13.333 -146 40c-24 20.667 -36 48.667 -36 84c0 40 10.667 72.333 32 97c33.333 38 90.666 57 171.999 57c67.333 0 116.333 -13 147 -39z
M474.501 704.999c10.333 12 15.5 26.333 15.5 43c0 12.667 -4.33301 23 -13 31s-21.667 12 -39 12c-21.333 0 -37.166 -6 -47.499 -18s-15.5 -26.333 -15.5 -43c0 -12.667 4.16699 -23 12.5 -31s21.166 -12 38.499 -12c22 0 38.167 6 48.5 18z" />
    <glyph glyph-name="glyph142" 
d="M115.5 -86.5c5.66699 10.333 15.833 20.1689 30.5 29.502c31.333 20.667 93 39.667 185 57h117c-30 -12.667 -51 -23.667 -63 -33c-12.667 -8.66699 -19 -17.334 -19 -26.001c0 -12 11.667 -18 35 -18h31l-22 -111h-186c-78 0 -117 22 -117 66
c0 13.333 2.83301 25.166 8.5 35.499z" />
    <glyph glyph-name="glyph143" 
d="M684 818l-18.9971 -100.002c-4.66699 -17.333 -9.33398 -32.166 -14.001 -44.499s-11 -22.833 -19 -31.5c-19.333 -22.667 -46.333 -34 -81 -34h-3c-17.333 0 -35 2.66699 -53 8s-43 14.666 -75 27.999c-14.667 6.66699 -27.834 12.334 -39.501 17.001s-20.5 7 -26.5 7
c-6.66699 0 -11.167 -1.83301 -13.5 -5.5s-4.5 -9.83398 -6.5 -18.501l-8 -40h-148l20 100c5.33301 32.667 16.666 58.334 33.999 77.001c20 22 46.667 33 80 33h3c18.667 0 37.167 -2.66699 55.5 -8s42.5 -14.666 72.5 -27.999c32.667 -15.333 54.667 -23 66 -23
c6.66699 0 11.167 1.83301 13.5 5.5s4.5 9.5 6.5 17.5l8 40h147z" />
    <glyph glyph-name="glyph144" 
d="M98 611l105 164h251l-110 -164h-246zM396 611l112 164h253l-117 -164h-248z" />
    <glyph glyph-name="glyph219" horiz-adv-x="419" 
d="M446 763l-30 -157h-285l30 157h285zM407 560l-109 -560h-285l109 560h285z" />
    <glyph glyph-name="f_f.liga" horiz-adv-x="1050" 
d="M87 0l74.002 380h-106l35 180h106l4 20c6.66699 32.667 14.167 59.5 22.5 80.5s19.5 38.5 33.5 52.5c15.333 15.333 34.5 26.5 57.5 33.5s52.5 10.5 88.5 10.5h218l-28 -143h-71c-13.333 0 -22.833 -2.33301 -28.5 -7s-9.83398 -13.667 -12.501 -27l-4 -20h208l4 20
c6.66699 32.667 14.167 59.5 22.5 80.5s19.5 38.5 33.5 52.5c15.333 15.333 34.5 26.5 57.5 33.5s52.5 10.5 88.5 10.5h218l-28 -143h-71c-13.333 0 -22.833 -2.33301 -28.5 -7s-9.83398 -13.667 -12.501 -27l-4 -20h106l-35 -180h-105l-74 -380h-281l74 380h-207l-74 -380
h-281z" />
    <glyph glyph-name="f_f_t.liga" horiz-adv-x="1550" 
d="M87 0l74.0039 380h-106l35 180h106l4 20c6.66699 32.667 14.167 59.5 22.5 80.5s19.5 38.5 33.5 52.5c15.333 15.333 34.5 26.5 57.5 33.5s52.5 10.5 88.5 10.5h218l-28 -143h-71c-13.333 0 -22.833 -2.33301 -28.5 -7s-9.83398 -13.667 -12.501 -27l-4 -20h208l4 20
c6.66699 32.667 14.167 59.5 22.5 80.5s19.5 38.5 33.5 52.5c15.333 15.333 34.5 26.5 57.5 33.5s52.5 10.5 88.5 10.5h214l-28 -143h-67c-13.333 0 -22.833 -2.33301 -28.5 -7s-9.83398 -13.667 -12.501 -27l-4 -20h208l32 167h282l-34 -167h106l-35 -180h-106l-26 -132
c-1.33301 -9.33301 -2 -16 -2 -20c0 -12 3.66699 -20.5 11 -25.5s19.666 -7.5 36.999 -7.5h51l-39 -195h-216c-50.667 -0 -88.334 13.333 -113.001 40c-20 21.333 -30 49 -30 83c0 13.333 1.33301 26.333 4 39l43 218h-207l-74 -380h-281l74 380h-207l-74 -380h-281z" />
    <glyph glyph-name="f_i.liga" horiz-adv-x="981" 
d="M592 614h-70.999c-13.333 0 -22.833 -2.33301 -28.5 -7s-9.83398 -13.667 -12.501 -27l-4 -20h106l-35 -180h-105l-74 -380h-281l74 380h-106l35 180h106l4 20c6.66699 32.667 14.167 59.5 22.5 80.5s19.5 38.5 33.5 52.5c15.333 15.333 34.5 26.5 57.5 33.5
s52.5 10.5 88.5 10.5h218zM1008 763l-30 -157h-285l30 157h285zM969.001 560l-109 -560h-285l109 560h285z" />
    <glyph glyph-name="f_l.liga" horiz-adv-x="981" 
d="M592 614h-70.999c-13.333 0 -22.833 -2.33301 -28.5 -7s-9.83398 -13.667 -12.501 -27l-4 -20h106l-35 -180h-105l-74 -380h-281l74 380h-106l35 180h106l4 20c6.66699 32.667 14.167 59.5 22.5 80.5s19.5 38.5 33.5 52.5c15.333 15.333 34.5 26.5 57.5 33.5
s52.5 10.5 88.5 10.5h218zM1007 757l-147 -757h-285l147 757h285z" />
    <glyph glyph-name="f_t.liga" horiz-adv-x="1062" 
d="M441 380l-72.9971 -380h-281l74 380h-106l35 180h106l4 20c6.66699 32.667 14.167 59.5 22.5 80.5s19.5 38.5 33.5 52.5c15.333 15.333 34.5 26.5 57.5 33.5s52.5 10.5 88.5 10.5h214l-28 -143h-67c-13.333 0 -22.833 -2.33301 -28.5 -7s-9.83398 -13.667 -12.501 -27
l-4 -20h208l32 167h282l-34 -167h106l-35 -180h-106l-26 -132c-1.33301 -9.33301 -2 -16 -2 -20c0 -12 3.66699 -20.5 11 -25.5s19.666 -7.5 36.999 -7.5h51l-39 -195h-216c-50.667 -0 -88.334 13.333 -113.001 40c-20 21.333 -30 49 -30 83c0 13.333 1.33301 26.333 4 39
l43 218h-208z" />
    <glyph glyph-name="glyph259" 
d="M178 -298c25.333 37.333 42.333 65.666 51 84.999h-125l33 167h297l-22 -116c-5.33301 -23.333 -14.5 -47.166 -27.5 -71.499s-27.167 -45.833 -42.5 -64.5h-164z" />
    <glyph glyph-name="glyph260" horiz-adv-x="655" 
d="M38 229l128.998 -0.000976562c42 0 72.333 10.333 91 31c8.66699 10 15.834 22.833 21.501 38.5s10.834 36.5 15.501 62.5l74 383h300l-88 -453c-10.667 -53.333 -23.334 -98 -38.001 -134s-33 -65.333 -55 -88c-23.333 -23.333 -51.666 -40.666 -84.999 -51.999
s-74 -17 -122 -17h-288z" />
    <glyph glyph-name="I_J.locl" horiz-adv-x="1110" 
d="M468 744l-144 -744h-299l145 744h298zM493 229l128.998 -0.000976562c42 0 72.333 10.333 91 31c8.66699 10 15.834 22.833 21.501 38.5s10.834 36.5 15.501 62.5l74 383h300l-88 -453c-10.667 -53.333 -23.334 -98 -38.001 -134s-33 -65.333 -55 -88
c-23.333 -23.333 -51.666 -40.666 -84.999 -51.999s-74 -17 -122 -17h-288z" />
    <glyph glyph-name="glyph262" 
d="M520 858c-25.333 -37.333 -42.333 -65.666 -51 -84.999h125l-33 -167h-297l22 116c5.33301 23.333 14.5 47.166 27.5 71.499s27.167 45.833 42.5 64.5h164z" />
    <glyph glyph-name="glyph263" 
d="M335 794l-116 161h307l80 -161h-271z" />
    <glyph glyph-name="glyph264" 
d="M449 951l-30 -157h-265l30 157h265zM762 951l-30 -157h-265l30 157h265z" />
    <glyph glyph-name="glyph265" 
d="M218 803l28 141h445l-28 -141h-445z" />
    <glyph glyph-name="glyph266" 
d="M549 794h-273l117 161h309z" />
    <glyph glyph-name="glyph267" 
d="M634 955l117 -163h-244l-45 68l-69 -68h-259l172 163h328z" />
    <glyph glyph-name="glyph268" 
d="M272 794l-117 161h244l45 -67l69 67h259l-172 -161h-328z" />
    <glyph glyph-name="glyph269" 
d="M243 860c-23.333 28.667 -34.999 63.334 -34.999 104.001l1 17h182c0 -4.66699 0.333008 -10.334 1 -17.001s2.66699 -12.667 6 -18c8 -15.333 23.667 -23 47 -23h2c22 0 39 7.33301 51 22c9.33301 11.333 14.666 23.333 15.999 36h180
c-2 -20 -7.16699 -40.667 -15.5 -62s-20.833 -41 -37.5 -59c-44 -47.333 -106.667 -71 -188 -71h-14c-92.667 0 -158 23.667 -196 71z" />
    <glyph glyph-name="glyph270" 
d="M607 951l-30 -157h-285l30 157h285z" />
    <glyph glyph-name="glyph271" 
d="M609 1023c24.667 -21.333 37 -49.667 37 -85c0 -39.333 -11.333 -71.666 -34 -96.999c-34.667 -38 -94.334 -57 -179.001 -57c-69.333 0 -119.666 13.333 -150.999 40c-24.667 20 -37 48 -37 84c0 39.333 11.333 71.666 34 96.999c33.333 38 92.333 57 177 57
c69.333 0 120.333 -13 153 -39zM492 888.499c11.333 11.667 17.001 26.167 17.001 43.5c0 12.667 -5 23 -15 31s-24.333 12 -43 12c-24 0 -41.5 -5.83301 -52.5 -17.5s-16.5 -26.167 -16.5 -43.5c0 -13.333 4.66699 -23.833 14 -31.5s23.666 -11.5 42.999 -11.5
c24 0 41.667 5.83301 53 17.5z" />
    <glyph glyph-name="glyph272" 
d="M717 1001l-18.998 -97c-5.33301 -31.333 -16.333 -56.666 -33 -75.999c-18.667 -22 -45 -33 -79 -33h-3c-18.667 0 -37.5 2.83301 -56.5 8.5s-43.833 14.5 -74.5 26.5l-42 17c-10.667 4 -19.334 6 -26.001 6s-11.334 -1.83301 -14.001 -5.5s-5 -9.16699 -7 -16.5l-8 -40
h-147l19 97c5.33301 31.333 16.333 56.666 33 75.999c18.667 22 45 33 79 33h3c18.667 0 37.5 -2.83301 56.5 -8.5s43.833 -14.5 74.5 -26.5l43 -17c11.333 -4 19.666 -6 24.999 -6c6.66699 0 11.334 1.83301 14.001 5.5s5 9.16699 7 16.5l8 40h147z" />
    <glyph glyph-name="glyph273" 
d="M152 794l98 161h251l-105 -161h-244zM449 794l106 161h252l-111 -161h-247z" />
    <glyph glyph-name="glyph274" horiz-adv-x="562" 
d="M592 614h-70.999c-13.333 0 -22.833 -2.33301 -28.5 -7s-9.83398 -13.667 -12.501 -27l-4 -20h106l-35 -180h-105l-74 -380h-281l74 380h-106l35 180h106l4 20c6.66699 32.667 14.167 59.5 22.5 80.5s19.5 38.5 33.5 52.5c15.333 15.333 34.5 26.5 57.5 33.5
s52.5 10.5 88.5 10.5h218z" />
    <glyph glyph-name="glyph275" horiz-adv-x="1050" 
d="M87 0l74.002 380h-106l35 180h106l4 20c6.66699 32.667 14.167 59.5 22.5 80.5s19.5 38.5 33.5 52.5c15.333 15.333 34.5 26.5 57.5 33.5s52.5 10.5 88.5 10.5h218l-28 -143h-71c-13.333 0 -22.833 -2.33301 -28.5 -7s-9.83398 -13.667 -12.501 -27l-4 -20h208l4 20
c6.66699 32.667 14.167 59.5 22.5 80.5s19.5 38.5 33.5 52.5c15.333 15.333 34.5 26.5 57.5 33.5s52.5 10.5 88.5 10.5h218l-28 -143h-71c-13.333 0 -22.833 -2.33301 -28.5 -7s-9.83398 -13.667 -12.501 -27l-4 -20h106l-35 -180h-105l-74 -380h-281l74 380h-207l-74 -380
h-281z" />
    <glyph glyph-name="uni0414.locl" horiz-adv-x="1143" 
d="M238 0l-25 -125h-268l63 324h99l366 545h367l168 -545h100l-63 -324h-268l25 125h-564zM403 199h285l-85 303z" />
    <glyph glyph-name="uni0416.locl" horiz-adv-x="1518" 
d="M549 0l60 311l-314 -311h-373l432 414l-263 330h335l215 -270l52 270h297l-52 -271l319 271h344l-404 -342l269 -402h-356l-203 313l-61 -313h-297z" />
    <glyph glyph-name="uni041A.locl" horiz-adv-x="1000" 
d="M323 0h-298l145 744h297l-53 -275l314 275h355l-411 -351l295 -393h-350l-232 322z" />
    <glyph glyph-name="uni041B.locl" horiz-adv-x="1051" 
 />
    <glyph glyph-name="uni0431.locl" horiz-adv-x="923" 
d="M857 168.5c-18 -35.667 -45.3291 -66.8311 -81.9961 -93.498c-82.667 -60 -199.334 -90 -350.001 -90h-31c-130.667 0 -225.334 23.333 -284.001 70c-51.333 39.333 -77 96 -77 170c0 51.333 17 95.5 51 132.5s82 62.167 144 75.5
c-29.333 12.667 -52.333 30.167 -69 52.5s-25 49.166 -25 80.499c0 54 22.667 96.333 68 127s108.666 46 189.999 46h173c26.667 0 44 1.66699 52 5c8 2.66699 14.333 7 19 13h290c-8.66699 -41.333 -17.834 -74 -27.501 -98s-23.5 -43.667 -41.5 -59
c-20 -16.667 -46.667 -29 -80 -37s-76.333 -12 -129 -12h-209c-32 0 -52.667 -2 -62 -6c-10 -4 -15 -9.66699 -15 -17c0 -8 5.33301 -13.333 16 -16c11.333 -3.33301 29 -5 53 -5h91c129.333 0 223.333 -20 282 -60c53.333 -38 80 -92.667 80 -164
c0 -40.667 -9 -78.834 -27 -114.501zM361.504 171.003c15 -14 38.167 -21 69.5 -21h11c42.667 0 75.667 11.667 99 35c21.333 20 32 44.333 32 73c0 23.333 -6.33301 42.333 -19 57c-16 18 -41 27 -75 27h-11c-41.333 0 -74.333 -12.333 -99 -37
c-10 -10 -17.5 -21.833 -22.5 -35.5s-7.5 -27.167 -7.5 -40.5c0 -24.667 7.5 -44 22.5 -58z" />
    <glyph glyph-name="uni0432.locl" horiz-adv-x="850" 
d="M716 49c-63.333 -42.667 -156 -64 -278 -64h-33c-73.333 0 -137 9.66699 -191 29c-64.667 21.333 -111.667 57 -141 107c-22 36.667 -33 81 -33 133c0 27.333 3 56.333 9 87l24 123c19.333 101.333 65 176.333 137 225c66.667 45.333 156.667 68 270 68h27
c110.667 0 194.667 -18 252 -54c54 -34.667 81 -82.667 81 -144c0 -48 -17.333 -87.667 -52 -119c-15.333 -13.333 -32.5 -24.333 -51.5 -33s-38.167 -14.334 -57.5 -17.001c40 -8.66699 72.667 -25.667 98 -51s38 -54.666 38 -87.999c0 -90 -33 -157.333 -99 -202zM356 452
h98.001c38.667 0 67 8 85 24c14.667 14 22 31.667 22 53c0 20 -7 35.833 -21 47.5s-34.667 17.5 -62 17.5h-6c-30.667 0 -54.834 -8.33301 -72.501 -25s-30.167 -44.667 -37.5 -84zM424.001 155c34 0 60.168 8.33301 78.501 25s27.5 40 27.5 70
c0 23.333 -8.5 41.166 -25.5 53.499s-45.833 18.5 -86.5 18.5h-87l-10 -50c-2 -12 -3 -23 -3 -33c0 -27.333 7.66699 -47.666 23 -60.999c17.333 -15.333 41.666 -23 72.999 -23h10z" />
    <glyph glyph-name="uni0433.locl" horiz-adv-x="858" 
d="M80 388c5.33301 28 13.6689 52.501 25.002 73.501s29 39.167 53 54.5c58 36.667 154.667 55 290 55h32c117.333 0 205 -14 263 -42c54 -26.667 81 -66 81 -118c0 -20 -2.66699 -38.667 -8 -56s-16 -33.333 -32 -48c-40 -37.333 -114.333 -63.333 -223 -78l-123 -16
c-37.333 -5.33301 -63 -10.333 -77 -15c-14.667 -4.66699 -22 -13 -22 -25c0 -8.66699 5 -15.667 15 -21c9.33301 -6 26.666 -9 51.999 -9h2c27.333 0 47.666 5 60.999 15c8 5.33301 14.333 14.666 19 27.999h305c-4 -26.667 -11.333 -51 -22 -73s-27.667 -41.667 -51 -59
c-58 -44.667 -158.333 -67 -301 -67h-33c-131.333 0 -225.333 17.333 -282 52c-46.667 27.333 -70 68.333 -70 123c0 52.667 19.667 93.667 59 123c45.333 34 119 56 221 66l128 13c35.333 4 59.666 9 72.999 15c11.333 5.33301 17 12.666 17 21.999
c0 18.667 -21.667 28 -65 28h-6c-29.333 0 -49.666 -4.33301 -60.999 -13c-12 -9.33301 -19.667 -18.666 -23 -27.999h-297z" />
    <glyph glyph-name="uni0434.locl" horiz-adv-x="915" 
d="M335 -12c1.33301 -7.33301 6.66797 -12.999 16.001 -16.999c13.333 -6 32.666 -9 57.999 -9h6c57.333 0 92.333 31 105 93l6 30c-14 -14 -36 -27.333 -66 -40c-40.667 -17.333 -87 -26 -139 -26h-13c-88 0 -155.167 23 -201.5 69s-69.5 110 -69.5 192
c0 38.667 7.16699 75.667 21.5 111s35.166 66.333 62.499 93c61.333 59.333 146.333 89 255 89h10c59.333 0 111.333 -9.33301 156 -28c15.333 -6.66699 29.666 -14.334 42.999 -23.001c5.33301 -3.33301 9.83301 -6.5 13.5 -9.5s6.83398 -5.16699 9.50098 -6.5l10 54h286
l-97 -497c-8 -42 -20 -78.833 -36 -110.5s-38.333 -58.5 -67 -80.5c-64.667 -50.667 -164 -76 -298 -76h-26c-103.333 0 -184.666 11 -243.999 33c-49.333 18 -83 43.333 -101 76c-13.333 22 -20 49.667 -20 83h320zM463.002 400.001c-40 0 -71 -12.667 -93 -38
c-19.333 -22 -29 -49 -29 -81c0 -26 7.33301 -47.333 22 -64c16.667 -20 42 -30 76 -30h6c44.667 0 77.667 14.667 99 44c16 21.333 24 47.333 24 78c0 24.667 -7 45 -21 61c-17.333 20 -43.333 30 -78 30h-6z" />
    <glyph glyph-name="uni0436.locl" horiz-adv-x="1228" 
d="M419 0l47 242l-210 -242h-311l278 312l-146 248h302l108 -207l78 404h285l-78 -403l188 206h308l-253 -261l155 -299h-303l-116 241l-47 -241h-285z" />
    <glyph glyph-name="uni0437.locl" horiz-adv-x="932" 
d="M76 341c18 76.667 63.002 134.832 135.002 174.499s169.667 59.5 293 59.5h32c123.333 0 215.833 -16.667 277.5 -50s92.5 -82.333 92.5 -147c0 -40 -14 -76.667 -42 -110c-29.333 -34.667 -68 -55.334 -116 -62.001c38 -9.33301 67.333 -26 88 -50s31 -52 31 -84
c0 -38 -8.83301 -73.5 -26.5 -106.5s-43.834 -62.167 -78.501 -87.5c-76 -54.667 -182.667 -82 -320 -82h-21c-156.667 0 -267.667 25 -333 75c-49.333 36.667 -74 87.667 -74 153c0 14.667 1.66699 32 5 52l2 12h306c-1.33301 -10.667 -2 -16.667 -2 -18v-7
c0 -35.333 9.16699 -60.666 27.5 -75.999s46.166 -23 83.499 -23c34.667 0 62.667 6.66699 84 20s34.666 33.666 39.999 60.999c1.33301 4.66699 2 11.334 2 20.001c0 38.667 -27 58 -81 58h-126l31 163h124c52 0 81.667 18.667 89 56c1.33301 6.66699 2 11.334 2 14.001
c0 16.667 -7.5 29.5 -22.5 38.5s-37.167 13.5 -66.5 13.5c-67.333 0 -111.666 -24 -132.999 -72c-0.666992 -0.666992 -1 -2 -1 -4l-4 -8h-302z" />
    <glyph glyph-name="uni0438.locl" horiz-adv-x="895" 
d="M774 0h-284l18 87c-22.667 -25.333 -50.667 -47 -84 -65c-48 -25.333 -99.333 -38 -154 -38h-9c-39.333 0 -73.333 6.5 -102 19.5s-51.667 31.833 -69 56.5c-24 34.667 -36 78 -36 130c0 22.667 2.66699 48.334 8 77.001l57 293h286l-50 -263c-2 -10 -3 -19.667 -3 -29
c0 -24.667 7.16699 -43.834 21.5 -57.501s35.5 -20.5 63.5 -20.5c58.667 0 95 35.667 109 107l52 263h285z" />
    <glyph glyph-name="uni043A.locl" horiz-adv-x="814" 
d="M298 0h-285l147 757h285l-77 -396l178 199h308l-246 -260l162 -300h-305l-121 237z" />
    <glyph glyph-name="uni043B.locl" horiz-adv-x="862" 
 />
    <glyph glyph-name="uni043D.locl" horiz-adv-x="915" 
d="M298 0h-285l108 560h285l-36 -189h212l36 189h285l-108 -560h-285l38 198h-212z" />
    <glyph glyph-name="uni043F.locl" horiz-adv-x="899" 
d="M122 560l283 -0.000976562l-17 -87c22.667 25.333 51.667 47.333 87 66c49.333 24.667 101 37 155 37h9c79.333 0 136.666 -25.333 171.999 -76c23.333 -33.333 35 -76 35 -128c0 -22.667 -2.66699 -49 -8 -79l-58 -293h-286l51 263c2 10 3 19.667 3 29
c0 24.667 -7.16699 43.834 -21.5 57.501s-36.166 20.5 -65.499 20.5c-32.667 0 -57.667 -9 -75 -27s-29.333 -44.667 -36 -80l-52 -263h-285z" />
    <glyph glyph-name="uni0442.locl" horiz-adv-x="1347" 
d="M13 0l108.998 559.999h283l-17 -87c26.667 28 54 49.667 82 65c47.333 25.333 97.333 38 150 38h9c102 0 165.333 -40 190 -120c30.667 34.667 67 62.667 109 84c48 24 98.667 36 152 36h9c82 0 140.333 -25.333 175 -76c20.667 -31.333 31 -71.666 31 -120.999
c0 -26 -3 -54.667 -9 -86l-58 -293h-286l51 263c2 10 3 20 3 30c0 18.667 -3.66699 34 -11 46c-13.333 20.667 -35.666 31 -66.999 31c-54.667 0 -89 -35.667 -103 -107l-52 -263h-286l51 263c2 10 3 20 3 30c0 18.667 -3.66699 34 -11 46
c-13.333 20.667 -35.666 31 -66.999 31c-54.667 0 -89 -35.667 -103 -107l-52 -263h-285z" />
    <glyph glyph-name="uni0446.locl" horiz-adv-x="953" 
d="M908 173l-56 -291h-265l23 118h-120l18 87c-22.667 -25.333 -50.667 -47 -84 -65c-48 -25.333 -99.333 -38 -154 -38h-9c-39.333 0 -73.333 6.5 -102 19.5s-51.667 31.833 -69 56.5c-24 34.667 -36 78 -36 130c0 22.667 2.66699 48.334 8 77.001l57 293h286l-50 -263
c-2 -10 -3 -19.667 -3 -29c0 -24.667 7.16699 -43.834 21.5 -57.501s35.5 -20.5 63.5 -20.5c58.667 0 95 35.667 109 107l52 263h285l-76 -387h101z" />
    <glyph glyph-name="uni0447.locl" horiz-adv-x="868" 
d="M855 560l-108.001 -560.001h-285l35 180c-52 -5.33301 -97.333 -8 -136 -8c-68.667 0 -124.5 6.16699 -167.5 18.5s-75.5 30.5 -97.5 54.5c-26 28.667 -39 66.667 -39 114c0 22 2.66699 47.333 8 76l24 125h285l-18 -97c-2.66699 -13.333 -4 -26.666 -4 -39.999
c0 -22 5.66699 -38.667 17 -50c14.667 -14 42.334 -21 83.001 -21c36 0 62.333 1.66699 79 5l39 203h285z" />
    <glyph glyph-name="uni0448.locl" horiz-adv-x="1348" 
 />
    <glyph glyph-name="uni0449.locl" horiz-adv-x="1407" 
d="M1336 560l-75.001 -381.999h101l-56 -291h-265l22 113h-119l17 87c-26.667 -28 -54 -49.667 -82 -65c-47.333 -25.333 -97.333 -38 -150 -38h-9c-102 0 -165.333 40 -190 120c-29.333 -34 -65.666 -61.667 -108.999 -83c-49.333 -24.667 -100 -37 -152 -37h-9
c-82.667 0 -140.667 25.667 -174 77c-21.333 31.333 -32 71.666 -32 120.999c0 26.667 3 55 9 85l58 293h286l-51 -263c-2 -10 -3 -20 -3 -30c0 -18.667 3.66699 -33.667 11 -45c12.667 -21.333 35 -32 67 -32c54.667 0 89 35.667 103 107l52 263h286l-51 -263
c-2 -10 -3 -20 -3 -30c0 -18.667 3.66699 -33.667 11 -45c12.667 -21.333 35 -32 67 -32c54.667 0 89 35.667 103 107l52 263h285z" />
    <glyph glyph-name="uni044A.locl" horiz-adv-x="994" 
d="M72 560l435 -0.000976562l-27 -139h197c96 0 167.833 -15.333 215.5 -46s71.5 -74.667 71.5 -132c0 -75.333 -31.667 -135.333 -95 -180c-73.333 -52 -182.333 -78 -327 -78h-25c-76.667 0 -140.167 6 -190.5 18s-89.5 30 -117.5 54
c-38.667 32.667 -58 79.334 -58 140.001c0 22 2.66699 47.333 8 76l22 112h-143zM444 239.999c-2 -8.66699 -3 -16.665 -3 -23.998c0 -22.667 8 -38.834 24 -48.501s40 -14.5 72 -14.5h7c42 0 71.667 6.66699 89 20c16 13.333 24 28.666 24 45.999c0 27.333 -22 41 -66 41
h-143z" />
    <glyph glyph-name="uni044C.locl" horiz-adv-x="898" 
d="M119 560l292 -0.000976562l-27 -139h197c96 0 167.833 -15.333 215.5 -46s71.5 -74.667 71.5 -132c0 -75.333 -31.667 -135.333 -95 -180c-73.333 -52 -182.333 -78 -327 -78h-25c-76.667 0 -140.167 6 -190.5 18s-89.5 30 -117.5 54
c-38.667 32.667 -58 79.334 -58 140.001c0 22 2.66699 47.333 8 76zM348 239.999c-2 -8.66699 -3 -16.665 -3 -23.998c0 -22.667 8 -38.834 24 -48.501s40 -14.5 72 -14.5h7c42 0 71.667 6.66699 89 20c16 13.333 24 28.666 24 45.999c0 27.333 -22 41 -66 41h-143z" />
    <glyph glyph-name="uni044E.locl" horiz-adv-x="1259" 
d="M1202 179c-21.333 -58 -57.666 -102.669 -108.999 -134.002c-66.667 -40 -156.667 -60 -270 -60h-34c-127.333 0 -222 23 -284 69c-46.667 34 -75 82 -85 144h-84l-38 -198h-285l147 757h285l-75 -386h66c20 57.333 56.667 103.666 110 138.999
c65.333 43.333 155 65 269 65h35c149.333 0 253.333 -30 312 -90c23.333 -23.333 39.166 -49.666 47.499 -78.999s12.5 -60.666 12.5 -93.999c0 -53.333 -6.66699 -97.666 -20 -132.999zM733 195.998c14 -22 37.334 -32.999 70.001 -32.999h6
c21.333 0 39.666 4.66699 54.999 14s27.666 22 36.999 38c7.33301 12.667 12.833 26.834 16.5 42.501s5.5 30.167 5.5 43.5c0 29.333 -6 52 -18 68c-15.333 20.667 -38.666 31 -69.999 31h-6c-40 0 -70 -15.667 -90 -47c-15.333 -24.667 -23 -54.334 -23 -89.001
c0 -28.667 5.66699 -51.334 17 -68.001z" />
    <glyph glyph-name="uni0439.locl" horiz-adv-x="895" 
d="M774 0h-284l18 87c-22.667 -25.333 -50.667 -47 -84 -65c-48 -25.333 -99.333 -38 -154 -38h-9c-39.333 0 -73.333 6.5 -102 19.5s-51.667 31.833 -69 56.5c-24 34.667 -36 78 -36 130c0 22.667 2.66699 48.334 8 77.001l57 293h286l-50 -263c-2 -10 -3 -19.667 -3 -29
c0 -24.667 7.16699 -43.834 21.5 -57.501s35.5 -20.5 63.5 -20.5c58.667 0 95 35.667 109 107l52 263h285zM315 679c-22.667 28 -34 62.6689 -34 104.002c0 8.66699 0.333008 15 1 19h182v-18c0 -16.667 6.66699 -28.667 20 -36c6.66699 -4.66699 17 -7 31 -7h2
c21.333 0 37.666 8 48.999 24c8.66699 11.333 13.667 23.666 15 36.999h182c-2 -20.667 -7 -41.834 -15 -63.501s-20.333 -41.5 -37 -59.5c-43.333 -48 -105.666 -72 -186.999 -72h-14c-92.667 0 -157.667 24 -195 72z" />
    </font>
</defs>
</svg>
